<ttFont>
<head>
    <!-- Most of this table will be recalculated by the compiler -->
    <tableVersion value="1.0"/>
    <fontRevision value="1.002"/>
    <checkSumAdjustment value="0x66be5b68"/>
    <magicNumber value="0x5f0f3cf5"/>
    <flags value="00000000 00001111"/>
    <unitsPerEm value="1000"/>
    <created value="Sun Jun 13 08:13:04 2021"/>
    <modified value="Mon Jun 14 15:26:02 2021"/>
    <xMin value="-185"/>
    <yMin value="-265"/>
    <xMax value="1225"/>
    <yMax value="1239"/>
    <macStyle value="00000000 00000000"/>
    <lowestRecPPEM value="6"/>
    <fontDirectionHint value="2"/>
    <indexToLocFormat value="0"/>
    <glyphDataFormat value="0"/>
  </head>
    <TTGlyph name=".notdef" xMin="50" yMin="-265" xMax="450" yMax="1000">
      <contour>
        <pt x="50" y="-265" on="1"/>
        <pt x="50" y="1000" on="1"/>
        <pt x="450" y="1000" on="1"/>
        <pt x="450" y="-265" on="1"/>
      </contour>
      <contour>
        <pt x="100" y="-215" on="1"/>
        <pt x="400" y="-215" on="1"/>
        <pt x="400" y="950" on="1"/>
        <pt x="100" y="950" on="1"/>
      </contour>
    </TTGlyph>
    <TTGlyph name="A" xMin="-41" yMin="0" xMax="710" yMax="740">
      <contour>
        <pt x="-41" y="0" on="1"/>
        <pt x="362" y="740" on="1"/>
        <pt x="621" y="740" on="1"/>
        <pt x="710" y="0" on="1"/>
        <pt x="520" y="0" on="1"/>
        <pt x="507" y="124" on="1"/>
        <pt x="234" y="124" on="1"/>
        <pt x="169" y="0" on="1"/>
      </contour>
      <contour>
        <pt x="320" y="288" on="1"/>
        <pt x="491" y="288" on="1"/>
        <pt x="463" y="561" on="1"/>
      </contour>
    </TTGlyph>
    <TTGlyph name="AE" xMin="-41" yMin="0" xMax="1083" yMax="740">
      <contour>
        <pt x="-41" y="0" on="1"/>
        <pt x="422" y="740" on="1"/>
        <pt x="1083" y="740" on="1"/>
        <pt x="1048" y="574" on="1"/>
        <pt x="716" y="574" on="1"/>
        <pt x="690" y="454" on="1"/>
        <pt x="978" y="454" on="1"/>
        <pt x="944" y="296" on="1"/>
        <pt x="657" y="296" on="1"/>
        <pt x="629" y="166" on="1"/>
        <pt x="966" y="166" on="1"/>
        <pt x="931" y="0" on="1"/>
        <pt x="402" y="0" on="1"/>
        <pt x="428" y="124" on="1"/>
        <pt x="244" y="124" on="1"/>
        <pt x="167" y="0" on="1"/>
      </contour>
      <contour>
        <pt x="345" y="285" on="1"/>
        <pt x="462" y="285" on="1"/>
        <pt x="523" y="570" on="1"/>
      </contour>
    </TTGlyph>
    <TTGlyph name="Aacute" xMin="-43" yMin="0" xMax="708" yMax="989">
      <contour>
        <pt x="578" y="809" on="1"/>
        <pt x="445" y="810" on="1"/>
        <pt x="522" y="989" on="1"/>
        <pt x="692" y="989" on="1"/>
      </contour>
      <contour>
        <pt x="-43" y="0" on="1"/>
        <pt x="360" y="740" on="1"/>
        <pt x="619" y="740" on="1"/>
        <pt x="708" y="0" on="1"/>
        <pt x="518" y="0" on="1"/>
        <pt x="505" y="124" on="1"/>
        <pt x="232" y="124" on="1"/>
        <pt x="167" y="0" on="1"/>
      </contour>
      <contour>
        <pt x="318" y="288" on="1"/>
        <pt x="489" y="288" on="1"/>
        <pt x="461" y="561" on="1"/>
      </contour>
    </TTGlyph>
    <TTGlyph name="Abreve" xMin="-43" yMin="0" xMax="729" yMax="968">
      <contour>
        <pt x="520" y="802" on="1"/>
        <pt x="462" y="802" on="0"/>
        <pt x="391" y="836" on="0"/>
        <pt x="354" y="885" on="0"/>
        <pt x="341" y="934" on="0"/>
        <pt x="341" y="968" on="0"/>
        <pt x="341" y="968" on="1"/>
        <pt x="460" y="968" on="1"/>
        <pt x="460" y="968" on="0"/>
        <pt x="459" y="949" on="0"/>
        <pt x="468" y="923" on="0"/>
        <pt x="494" y="904" on="0"/>
        <pt x="521" y="904" on="1"/>
        <pt x="549" y="904" on="0"/>
        <pt x="584" y="923" on="0"/>
        <pt x="603" y="949" on="0"/>
        <pt x="610" y="968" on="0"/>
        <pt x="610" y="968" on="1"/>
        <pt x="729" y="968" on="1"/>
        <pt x="729" y="968" on="0"/>
        <pt x="722" y="934" on="0"/>
        <pt x="701" y="885" on="0"/>
        <pt x="655" y="836" on="0"/>
        <pt x="579" y="802" on="0"/>
      </contour>
      <contour>
        <pt x="-43" y="0" on="1"/>
        <pt x="360" y="740" on="1"/>
        <pt x="619" y="740" on="1"/>
        <pt x="708" y="0" on="1"/>
        <pt x="518" y="0" on="1"/>
        <pt x="505" y="124" on="1"/>
        <pt x="232" y="124" on="1"/>
        <pt x="167" y="0" on="1"/>
      </contour>
      <contour>
        <pt x="318" y="288" on="1"/>
        <pt x="489" y="288" on="1"/>
        <pt x="461" y="561" on="1"/>
      </contour>
    </TTGlyph>
    <TTGlyph name="Acircumflex" xMin="-43" yMin="0" xMax="708" yMax="958">
      <contour>
        <pt x="285" y="799" on="1"/>
        <pt x="454" y="958" on="1"/>
        <pt x="601" y="958" on="1"/>
        <pt x="702" y="799" on="1"/>
        <pt x="569" y="799" on="1"/>
        <pt x="519" y="884" on="1"/>
        <pt x="434" y="799" on="1"/>
      </contour>
      <contour>
        <pt x="-43" y="0" on="1"/>
        <pt x="360" y="740" on="1"/>
        <pt x="619" y="740" on="1"/>
        <pt x="708" y="0" on="1"/>
        <pt x="518" y="0" on="1"/>
        <pt x="505" y="124" on="1"/>
        <pt x="232" y="124" on="1"/>
        <pt x="167" y="0" on="1"/>
      </contour>
      <contour>
        <pt x="318" y="288" on="1"/>
        <pt x="489" y="288" on="1"/>
        <pt x="461" y="561" on="1"/>
      </contour>
    </TTGlyph>
    <TTGlyph name="Adieresis" xMin="-43" yMin="0" xMax="745" yMax="983">
      <contour>
        <pt x="643" y="788" on="1"/>
        <pt x="598" y="788" on="0"/>
        <pt x="541" y="845" on="0"/>
        <pt x="541" y="885" on="1"/>
        <pt x="541" y="926" on="0"/>
        <pt x="598" y="983" on="0"/>
        <pt x="643" y="983" on="1"/>
        <pt x="687" y="983" on="0"/>
        <pt x="745" y="926" on="0"/>
        <pt x="745" y="885" on="1"/>
        <pt x="745" y="845" on="0"/>
        <pt x="687" y="788" on="0"/>
      </contour>
      <contour>
        <pt x="393" y="788" on="1"/>
        <pt x="348" y="788" on="0"/>
        <pt x="291" y="845" on="0"/>
        <pt x="291" y="885" on="1"/>
        <pt x="291" y="926" on="0"/>
        <pt x="348" y="983" on="0"/>
        <pt x="393" y="983" on="1"/>
        <pt x="437" y="983" on="0"/>
        <pt x="495" y="926" on="0"/>
        <pt x="495" y="885" on="1"/>
        <pt x="495" y="845" on="0"/>
        <pt x="437" y="788" on="0"/>
      </contour>
      <contour>
        <pt x="-43" y="0" on="1"/>
        <pt x="360" y="740" on="1"/>
        <pt x="619" y="740" on="1"/>
        <pt x="708" y="0" on="1"/>
        <pt x="518" y="0" on="1"/>
        <pt x="505" y="124" on="1"/>
        <pt x="232" y="124" on="1"/>
        <pt x="167" y="0" on="1"/>
      </contour>
      <contour>
        <pt x="318" y="288" on="1"/>
        <pt x="489" y="288" on="1"/>
        <pt x="461" y="561" on="1"/>
      </contour>
    </TTGlyph>
    <TTGlyph name="Agrave" xMin="-43" yMin="0" xMax="708" yMax="989">
      <contour>
        <pt x="428" y="809" on="1"/>
        <pt x="324" y="989" on="1"/>
        <pt x="489" y="989" on="1"/>
        <pt x="556" y="810" on="1"/>
      </contour>
      <contour>
        <pt x="-43" y="0" on="1"/>
        <pt x="360" y="740" on="1"/>
        <pt x="619" y="740" on="1"/>
        <pt x="708" y="0" on="1"/>
        <pt x="518" y="0" on="1"/>
        <pt x="505" y="124" on="1"/>
        <pt x="232" y="124" on="1"/>
        <pt x="167" y="0" on="1"/>
      </contour>
      <contour>
        <pt x="318" y="288" on="1"/>
        <pt x="489" y="288" on="1"/>
        <pt x="461" y="561" on="1"/>
      </contour>
    </TTGlyph>
    <TTGlyph name="Amacron" xMin="-43" yMin="0" xMax="708" yMax="925">
      <contour>
        <pt x="333" y="823" on="1"/>
        <pt x="355" y="925" on="1"/>
        <pt x="695" y="925" on="1"/>
        <pt x="673" y="823" on="1"/>
      </contour>
      <contour>
        <pt x="-43" y="0" on="1"/>
        <pt x="360" y="740" on="1"/>
        <pt x="619" y="740" on="1"/>
        <pt x="708" y="0" on="1"/>
        <pt x="518" y="0" on="1"/>
        <pt x="505" y="124" on="1"/>
        <pt x="232" y="124" on="1"/>
        <pt x="167" y="0" on="1"/>
      </contour>
      <contour>
        <pt x="318" y="288" on="1"/>
        <pt x="489" y="288" on="1"/>
        <pt x="461" y="561" on="1"/>
      </contour>
    </TTGlyph>
    <TTGlyph name="Aogonek" xMin="-43" yMin="-194" xMax="724" yMax="740">
      <contour>
        <pt x="-43" y="0" on="1"/>
        <pt x="360" y="740" on="1"/>
        <pt x="619" y="740" on="1"/>
        <pt x="708" y="0" on="1"/>
        <pt x="708" y="0" on="0"/>
        <pt x="677" y="-15" on="0"/>
        <pt x="646" y="-42" on="0"/>
        <pt x="646" y="-60" on="1"/>
        <pt x="646" y="-73" on="0"/>
        <pt x="667" y="-90" on="0"/>
        <pt x="692" y="-90" on="1"/>
        <pt x="703" y="-90" on="0"/>
        <pt x="724" y="-87" on="0"/>
        <pt x="724" y="-87" on="1"/>
        <pt x="703" y="-189" on="1"/>
        <pt x="703" y="-189" on="0"/>
        <pt x="672" y="-194" on="0"/>
        <pt x="646" y="-194" on="1"/>
        <pt x="574" y="-194" on="0"/>
        <pt x="507" y="-140" on="0"/>
        <pt x="507" y="-99" on="1"/>
        <pt x="507" y="-63" on="0"/>
        <pt x="549" y="-15" on="0"/>
        <pt x="575" y="0" on="1"/>
        <pt x="518" y="0" on="1"/>
        <pt x="505" y="124" on="1"/>
        <pt x="232" y="124" on="1"/>
        <pt x="167" y="0" on="1"/>
      </contour>
      <contour>
        <pt x="318" y="288" on="1"/>
        <pt x="489" y="288" on="1"/>
        <pt x="461" y="561" on="1"/>
      </contour>
    </TTGlyph>
    <TTGlyph name="Aring" xMin="-43" yMin="0" xMax="708" yMax="1069">
      <contour>
        <pt x="527" y="788" on="1"/>
        <pt x="488" y="788" on="0"/>
        <pt x="424" y="826" on="0"/>
        <pt x="386" y="890" on="0"/>
        <pt x="386" y="929" on="1"/>
        <pt x="386" y="968" on="0"/>
        <pt x="424" y="1031" on="0"/>
        <pt x="488" y="1069" on="0"/>
        <pt x="527" y="1069" on="1"/>
        <pt x="566" y="1069" on="0"/>
        <pt x="630" y="1031" on="0"/>
        <pt x="668" y="968" on="0"/>
        <pt x="668" y="929" on="1"/>
        <pt x="668" y="890" on="0"/>
        <pt x="630" y="826" on="0"/>
        <pt x="566" y="788" on="0"/>
      </contour>
      <contour>
        <pt x="527" y="878" on="1"/>
        <pt x="548" y="878" on="0"/>
        <pt x="578" y="907" on="0"/>
        <pt x="578" y="929" on="1"/>
        <pt x="578" y="950" on="0"/>
        <pt x="548" y="979" on="0"/>
        <pt x="527" y="979" on="1"/>
        <pt x="506" y="979" on="0"/>
        <pt x="476" y="950" on="0"/>
        <pt x="476" y="929" on="1"/>
        <pt x="476" y="907" on="0"/>
        <pt x="506" y="878" on="0"/>
      </contour>
      <contour>
        <pt x="-43" y="0" on="1"/>
        <pt x="360" y="740" on="1"/>
        <pt x="619" y="740" on="1"/>
        <pt x="708" y="0" on="1"/>
        <pt x="518" y="0" on="1"/>
        <pt x="505" y="124" on="1"/>
        <pt x="232" y="124" on="1"/>
        <pt x="167" y="0" on="1"/>
      </contour>
      <contour>
        <pt x="318" y="288" on="1"/>
        <pt x="489" y="288" on="1"/>
        <pt x="461" y="561" on="1"/>
      </contour>
    </TTGlyph>
    <TTGlyph name="Atilde" xMin="-43" yMin="0" xMax="725" yMax="987">
      <contour>
        <pt x="593" y="822" on="1"/>
        <pt x="566" y="822" on="0"/>
        <pt x="526" y="840" on="0"/>
        <pt x="496" y="863" on="0"/>
        <pt x="470" y="881" on="0"/>
        <pt x="457" y="881" on="1"/>
        <pt x="431" y="881" on="0"/>
        <pt x="420" y="828" on="1"/>
        <pt x="327" y="828" on="1"/>
        <pt x="336" y="868" on="0"/>
        <pt x="362" y="940" on="0"/>
        <pt x="414" y="987" on="0"/>
        <pt x="459" y="987" on="1"/>
        <pt x="496" y="987" on="0"/>
        <pt x="543" y="958" on="0"/>
        <pt x="578" y="928" on="0"/>
        <pt x="595" y="928" on="1"/>
        <pt x="609" y="928" on="0"/>
        <pt x="626" y="955" on="0"/>
        <pt x="632" y="981" on="1"/>
        <pt x="725" y="981" on="1"/>
        <pt x="717" y="942" on="0"/>
        <pt x="689" y="869" on="0"/>
        <pt x="638" y="822" on="0"/>
      </contour>
      <contour>
        <pt x="-43" y="0" on="1"/>
        <pt x="360" y="740" on="1"/>
        <pt x="619" y="740" on="1"/>
        <pt x="708" y="0" on="1"/>
        <pt x="518" y="0" on="1"/>
        <pt x="505" y="124" on="1"/>
        <pt x="232" y="124" on="1"/>
        <pt x="167" y="0" on="1"/>
      </contour>
      <contour>
        <pt x="318" y="288" on="1"/>
        <pt x="489" y="288" on="1"/>
        <pt x="461" y="561" on="1"/>
      </contour>
    </TTGlyph>
    <TTGlyph name="B" xMin="2" yMin="0" xMax="715" yMax="740">
      <contour>
        <pt x="2" y="0" on="1"/>
        <pt x="159" y="740" on="1"/>
        <pt x="497" y="740" on="1"/>
        <pt x="573" y="740" on="0"/>
        <pt x="669" y="693" on="0"/>
        <pt x="715" y="617" on="0"/>
        <pt x="715" y="575" on="1"/>
        <pt x="715" y="539" on="0"/>
        <pt x="681" y="468" on="0"/>
        <pt x="617" y="414" on="0"/>
        <pt x="571" y="402" on="1"/>
        <pt x="570" y="393" on="1"/>
        <pt x="631" y="380" on="0"/>
        <pt x="689" y="298" on="0"/>
        <pt x="689" y="248" on="1"/>
        <pt x="689" y="206" on="0"/>
        <pt x="650" y="118" on="0"/>
        <pt x="573" y="45" on="0"/>
        <pt x="461" y="0" on="0"/>
        <pt x="388" y="0" on="1"/>
      </contour>
      <contour>
        <pt x="453" y="581" on="1"/>
        <pt x="317" y="581" on="1"/>
        <pt x="290" y="452" on="1"/>
        <pt x="436" y="452" on="1"/>
        <pt x="476" y="452" on="0"/>
        <pt x="520" y="501" on="0"/>
        <pt x="520" y="527" on="1"/>
        <pt x="520" y="548" on="0"/>
        <pt x="488" y="581" on="0"/>
      </contour>
      <contour>
        <pt x="410" y="309" on="1"/>
        <pt x="260" y="309" on="1"/>
        <pt x="228" y="159" on="1"/>
        <pt x="388" y="159" on="1"/>
        <pt x="435" y="159" on="0"/>
        <pt x="487" y="215" on="0"/>
        <pt x="487" y="246" on="1"/>
        <pt x="487" y="271" on="0"/>
        <pt x="450" y="309" on="0"/>
      </contour>
    </TTGlyph>
    <TTGlyph name="C" xMin="55" yMin="-10" xMax="785" yMax="750">
      <contour>
        <pt x="381" y="-10" on="1"/>
        <pt x="298" y="-10" on="0"/>
        <pt x="175" y="44" on="0"/>
        <pt x="95" y="136" on="0"/>
        <pt x="55" y="254" on="0"/>
        <pt x="55" y="318" on="1"/>
        <pt x="55" y="395" on="0"/>
        <pt x="109" y="548" on="0"/>
        <pt x="214" y="674" on="0"/>
        <pt x="367" y="750" on="0"/>
        <pt x="467" y="750" on="1"/>
        <pt x="549" y="750" on="0"/>
        <pt x="660" y="710" on="0"/>
        <pt x="729" y="647" on="0"/>
        <pt x="767" y="576" on="0"/>
        <pt x="783" y="513" on="0"/>
        <pt x="785" y="473" on="0"/>
        <pt x="785" y="473" on="1"/>
        <pt x="595" y="473" on="1"/>
        <pt x="595" y="473" on="0"/>
        <pt x="590" y="505" on="0"/>
        <pt x="566" y="548" on="0"/>
        <pt x="510" y="580" on="0"/>
        <pt x="459" y="580" on="1"/>
        <pt x="408" y="580" on="0"/>
        <pt x="330" y="537" on="0"/>
        <pt x="277" y="465" on="0"/>
        <pt x="249" y="378" on="0"/>
        <pt x="249" y="335" on="1"/>
        <pt x="249" y="289" on="0"/>
        <pt x="281" y="210" on="0"/>
        <pt x="348" y="161" on="0"/>
        <pt x="399" y="161" on="1"/>
        <pt x="447" y="161" on="0"/>
        <pt x="509" y="193" on="0"/>
        <pt x="545" y="235" on="0"/>
        <pt x="560" y="267" on="0"/>
        <pt x="560" y="267" on="1"/>
        <pt x="750" y="267" on="1"/>
        <pt x="750" y="267" on="0"/>
        <pt x="739" y="227" on="0"/>
        <pt x="710" y="164" on="0"/>
        <pt x="658" y="93" on="0"/>
        <pt x="577" y="30" on="0"/>
        <pt x="460" y="-10" on="0"/>
      </contour>
    </TTGlyph>
    <TTGlyph name="Cacute" xMin="55" yMin="-10" xMax="785" yMax="987">
      <contour>
        <pt x="598" y="807" on="1"/>
        <pt x="465" y="808" on="1"/>
        <pt x="542" y="987" on="1"/>
        <pt x="712" y="987" on="1"/>
      </contour>
      <contour>
        <pt x="381" y="-10" on="1"/>
        <pt x="298" y="-10" on="0"/>
        <pt x="175" y="44" on="0"/>
        <pt x="95" y="136" on="0"/>
        <pt x="55" y="254" on="0"/>
        <pt x="55" y="318" on="1"/>
        <pt x="55" y="395" on="0"/>
        <pt x="109" y="548" on="0"/>
        <pt x="214" y="674" on="0"/>
        <pt x="367" y="750" on="0"/>
        <pt x="467" y="750" on="1"/>
        <pt x="549" y="750" on="0"/>
        <pt x="660" y="710" on="0"/>
        <pt x="729" y="647" on="0"/>
        <pt x="767" y="576" on="0"/>
        <pt x="783" y="513" on="0"/>
        <pt x="785" y="473" on="0"/>
        <pt x="785" y="473" on="1"/>
        <pt x="595" y="473" on="1"/>
        <pt x="595" y="473" on="0"/>
        <pt x="590" y="505" on="0"/>
        <pt x="566" y="548" on="0"/>
        <pt x="510" y="580" on="0"/>
        <pt x="459" y="580" on="1"/>
        <pt x="408" y="580" on="0"/>
        <pt x="330" y="537" on="0"/>
        <pt x="277" y="465" on="0"/>
        <pt x="249" y="378" on="0"/>
        <pt x="249" y="335" on="1"/>
        <pt x="249" y="289" on="0"/>
        <pt x="281" y="210" on="0"/>
        <pt x="348" y="161" on="0"/>
        <pt x="399" y="161" on="1"/>
        <pt x="447" y="161" on="0"/>
        <pt x="509" y="193" on="0"/>
        <pt x="545" y="235" on="0"/>
        <pt x="560" y="267" on="0"/>
        <pt x="560" y="267" on="1"/>
        <pt x="750" y="267" on="1"/>
        <pt x="750" y="267" on="0"/>
        <pt x="739" y="227" on="0"/>
        <pt x="710" y="164" on="0"/>
        <pt x="658" y="93" on="0"/>
        <pt x="577" y="30" on="0"/>
        <pt x="460" y="-10" on="0"/>
      </contour>
    </TTGlyph>
    <TTGlyph name="Ccaron" xMin="55" yMin="-10" xMax="785" yMax="987">
      <contour>
        <pt x="450" y="798" on="1"/>
        <pt x="355" y="987" on="1"/>
        <pt x="489" y="987" on="1"/>
        <pt x="534" y="885" on="1"/>
        <pt x="624" y="987" on="1"/>
        <pt x="772" y="987" on="1"/>
        <pt x="597" y="798" on="1"/>
      </contour>
      <contour>
        <pt x="381" y="-10" on="1"/>
        <pt x="298" y="-10" on="0"/>
        <pt x="175" y="44" on="0"/>
        <pt x="95" y="136" on="0"/>
        <pt x="55" y="254" on="0"/>
        <pt x="55" y="318" on="1"/>
        <pt x="55" y="395" on="0"/>
        <pt x="109" y="548" on="0"/>
        <pt x="214" y="674" on="0"/>
        <pt x="367" y="750" on="0"/>
        <pt x="467" y="750" on="1"/>
        <pt x="549" y="750" on="0"/>
        <pt x="660" y="710" on="0"/>
        <pt x="729" y="647" on="0"/>
        <pt x="767" y="576" on="0"/>
        <pt x="783" y="513" on="0"/>
        <pt x="785" y="473" on="0"/>
        <pt x="785" y="473" on="1"/>
        <pt x="595" y="473" on="1"/>
        <pt x="595" y="473" on="0"/>
        <pt x="590" y="505" on="0"/>
        <pt x="566" y="548" on="0"/>
        <pt x="510" y="580" on="0"/>
        <pt x="459" y="580" on="1"/>
        <pt x="408" y="580" on="0"/>
        <pt x="330" y="537" on="0"/>
        <pt x="277" y="465" on="0"/>
        <pt x="249" y="378" on="0"/>
        <pt x="249" y="335" on="1"/>
        <pt x="249" y="289" on="0"/>
        <pt x="281" y="210" on="0"/>
        <pt x="348" y="161" on="0"/>
        <pt x="399" y="161" on="1"/>
        <pt x="447" y="161" on="0"/>
        <pt x="509" y="193" on="0"/>
        <pt x="545" y="235" on="0"/>
        <pt x="560" y="267" on="0"/>
        <pt x="560" y="267" on="1"/>
        <pt x="750" y="267" on="1"/>
        <pt x="750" y="267" on="0"/>
        <pt x="739" y="227" on="0"/>
        <pt x="710" y="164" on="0"/>
        <pt x="658" y="93" on="0"/>
        <pt x="577" y="30" on="0"/>
        <pt x="460" y="-10" on="0"/>
      </contour>
    </TTGlyph>
    <TTGlyph name="Ccedilla" xMin="55" yMin="-263" xMax="785" yMax="750">
      <contour>
        <pt x="290" y="-263" on="1"/>
        <pt x="256" y="-263" on="0"/>
        <pt x="203" y="-255" on="0"/>
        <pt x="203" y="-255" on="1"/>
        <pt x="217" y="-159" on="1"/>
        <pt x="217" y="-159" on="0"/>
        <pt x="243" y="-162" on="0"/>
        <pt x="279" y="-165" on="0"/>
        <pt x="292" y="-165" on="1"/>
        <pt x="327" y="-165" on="0"/>
        <pt x="351" y="-144" on="0"/>
        <pt x="351" y="-131" on="1"/>
        <pt x="351" y="-120" on="0"/>
        <pt x="333" y="-104" on="0"/>
        <pt x="315" y="-104" on="1"/>
        <pt x="298" y="-104" on="0"/>
        <pt x="273" y="-116" on="0"/>
        <pt x="273" y="-116" on="1"/>
        <pt x="227" y="-58" on="1"/>
        <pt x="283" y="2" on="1"/>
        <pt x="206" y="21" on="0"/>
        <pt x="105" y="116" on="0"/>
        <pt x="55" y="246" on="0"/>
        <pt x="55" y="318" on="1"/>
        <pt x="55" y="395" on="0"/>
        <pt x="109" y="548" on="0"/>
        <pt x="214" y="674" on="0"/>
        <pt x="367" y="750" on="0"/>
        <pt x="467" y="750" on="1"/>
        <pt x="549" y="750" on="0"/>
        <pt x="660" y="710" on="0"/>
        <pt x="729" y="647" on="0"/>
        <pt x="767" y="576" on="0"/>
        <pt x="783" y="513" on="0"/>
        <pt x="785" y="473" on="0"/>
        <pt x="785" y="473" on="1"/>
        <pt x="595" y="473" on="1"/>
        <pt x="595" y="473" on="0"/>
        <pt x="590" y="505" on="0"/>
        <pt x="566" y="548" on="0"/>
        <pt x="510" y="580" on="0"/>
        <pt x="459" y="580" on="1"/>
        <pt x="408" y="580" on="0"/>
        <pt x="330" y="537" on="0"/>
        <pt x="277" y="465" on="0"/>
        <pt x="249" y="378" on="0"/>
        <pt x="249" y="335" on="1"/>
        <pt x="249" y="289" on="0"/>
        <pt x="281" y="210" on="0"/>
        <pt x="348" y="161" on="0"/>
        <pt x="399" y="161" on="1"/>
        <pt x="447" y="161" on="0"/>
        <pt x="509" y="193" on="0"/>
        <pt x="545" y="235" on="0"/>
        <pt x="560" y="267" on="0"/>
        <pt x="560" y="267" on="1"/>
        <pt x="750" y="267" on="1"/>
        <pt x="750" y="267" on="0"/>
        <pt x="739" y="227" on="0"/>
        <pt x="711" y="164" on="0"/>
        <pt x="659" y="93" on="0"/>
        <pt x="579" y="30" on="0"/>
        <pt x="464" y="-10" on="0"/>
        <pt x="386" y="-10" on="1"/>
        <pt x="365" y="-32" on="1"/>
        <pt x="365" y="-32" on="1"/>
        <pt x="415" y="-32" on="0"/>
        <pt x="478" y="-91" on="0"/>
        <pt x="478" y="-133" on="1"/>
        <pt x="478" y="-164" on="0"/>
        <pt x="439" y="-224" on="0"/>
        <pt x="356" y="-263" on="0"/>
      </contour>
    </TTGlyph>
    <TTGlyph name="Cdotaccent" xMin="55" yMin="-10" xMax="785" yMax="998">
      <contour>
        <pt x="540" y="791" on="1"/>
        <pt x="493" y="791" on="0"/>
        <pt x="432" y="852" on="0"/>
        <pt x="432" y="894" on="1"/>
        <pt x="432" y="938" on="0"/>
        <pt x="493" y="998" on="0"/>
        <pt x="540" y="998" on="1"/>
        <pt x="587" y="998" on="0"/>
        <pt x="649" y="938" on="0"/>
        <pt x="649" y="894" on="1"/>
        <pt x="649" y="852" on="0"/>
        <pt x="587" y="791" on="0"/>
      </contour>
      <contour>
        <pt x="381" y="-10" on="1"/>
        <pt x="298" y="-10" on="0"/>
        <pt x="175" y="44" on="0"/>
        <pt x="95" y="136" on="0"/>
        <pt x="55" y="254" on="0"/>
        <pt x="55" y="318" on="1"/>
        <pt x="55" y="395" on="0"/>
        <pt x="109" y="548" on="0"/>
        <pt x="214" y="674" on="0"/>
        <pt x="367" y="750" on="0"/>
        <pt x="467" y="750" on="1"/>
        <pt x="549" y="750" on="0"/>
        <pt x="660" y="710" on="0"/>
        <pt x="729" y="647" on="0"/>
        <pt x="767" y="576" on="0"/>
        <pt x="783" y="513" on="0"/>
        <pt x="785" y="473" on="0"/>
        <pt x="785" y="473" on="1"/>
        <pt x="595" y="473" on="1"/>
        <pt x="595" y="473" on="0"/>
        <pt x="590" y="505" on="0"/>
        <pt x="566" y="548" on="0"/>
        <pt x="510" y="580" on="0"/>
        <pt x="459" y="580" on="1"/>
        <pt x="408" y="580" on="0"/>
        <pt x="330" y="537" on="0"/>
        <pt x="277" y="465" on="0"/>
        <pt x="249" y="378" on="0"/>
        <pt x="249" y="335" on="1"/>
        <pt x="249" y="289" on="0"/>
        <pt x="281" y="210" on="0"/>
        <pt x="348" y="161" on="0"/>
        <pt x="399" y="161" on="1"/>
        <pt x="447" y="161" on="0"/>
        <pt x="509" y="193" on="0"/>
        <pt x="545" y="235" on="0"/>
        <pt x="560" y="267" on="0"/>
        <pt x="560" y="267" on="1"/>
        <pt x="750" y="267" on="1"/>
        <pt x="750" y="267" on="0"/>
        <pt x="739" y="227" on="0"/>
        <pt x="710" y="164" on="0"/>
        <pt x="658" y="93" on="0"/>
        <pt x="577" y="30" on="0"/>
        <pt x="460" y="-10" on="0"/>
      </contour>
    </TTGlyph>
    <TTGlyph name="D" xMin="2" yMin="0" xMax="752" yMax="740">
      <contour>
        <pt x="2" y="0" on="1"/>
        <pt x="159" y="740" on="1"/>
        <pt x="404" y="740" on="1"/>
        <pt x="492" y="740" on="0"/>
        <pt x="623" y="686" on="0"/>
        <pt x="709" y="593" on="0"/>
        <pt x="752" y="474" on="0"/>
        <pt x="752" y="410" on="1"/>
        <pt x="752" y="336" on="0"/>
        <pt x="695" y="191" on="0"/>
        <pt x="583" y="72" on="0"/>
        <pt x="417" y="0" on="0"/>
        <pt x="307" y="0" on="1"/>
      </contour>
      <contour>
        <pt x="390" y="572" on="1"/>
        <pt x="315" y="572" on="1"/>
        <pt x="230" y="171" on="1"/>
        <pt x="324" y="171" on="1"/>
        <pt x="383" y="171" on="0"/>
        <pt x="473" y="211" on="0"/>
        <pt x="533" y="278" on="0"/>
        <pt x="564" y="359" on="0"/>
        <pt x="564" y="399" on="1"/>
        <pt x="564" y="444" on="0"/>
        <pt x="526" y="523" on="0"/>
        <pt x="449" y="572" on="0"/>
      </contour>
    </TTGlyph>
    <TTGlyph name="Dcaron" xMin="2" yMin="0" xMax="752" yMax="989">
      <contour>
        <pt x="387" y="800" on="1"/>
        <pt x="292" y="989" on="1"/>
        <pt x="426" y="989" on="1"/>
        <pt x="471" y="887" on="1"/>
        <pt x="561" y="989" on="1"/>
        <pt x="709" y="989" on="1"/>
        <pt x="534" y="800" on="1"/>
      </contour>
      <contour>
        <pt x="2" y="0" on="1"/>
        <pt x="159" y="740" on="1"/>
        <pt x="404" y="740" on="1"/>
        <pt x="492" y="740" on="0"/>
        <pt x="623" y="686" on="0"/>
        <pt x="709" y="593" on="0"/>
        <pt x="752" y="474" on="0"/>
        <pt x="752" y="410" on="1"/>
        <pt x="752" y="336" on="0"/>
        <pt x="695" y="191" on="0"/>
        <pt x="583" y="72" on="0"/>
        <pt x="417" y="0" on="0"/>
        <pt x="307" y="0" on="1"/>
      </contour>
      <contour>
        <pt x="390" y="572" on="1"/>
        <pt x="315" y="572" on="1"/>
        <pt x="230" y="171" on="1"/>
        <pt x="324" y="171" on="1"/>
        <pt x="383" y="171" on="0"/>
        <pt x="473" y="211" on="0"/>
        <pt x="533" y="278" on="0"/>
        <pt x="564" y="359" on="0"/>
        <pt x="564" y="399" on="1"/>
        <pt x="564" y="444" on="0"/>
        <pt x="526" y="523" on="0"/>
        <pt x="449" y="572" on="0"/>
      </contour>
    </TTGlyph>
    <TTGlyph name="Dcroat" xMin="-11" yMin="0" xMax="768" yMax="740">
      <contour>
        <pt x="18" y="0" on="1"/>
        <pt x="81" y="296" on="1"/>
        <pt x="-11" y="296" on="1"/>
        <pt x="21" y="444" on="1"/>
        <pt x="112" y="444" on="1"/>
        <pt x="175" y="740" on="1"/>
        <pt x="420" y="740" on="1"/>
        <pt x="508" y="740" on="0"/>
        <pt x="639" y="686" on="0"/>
        <pt x="725" y="593" on="0"/>
        <pt x="768" y="474" on="0"/>
        <pt x="768" y="410" on="1"/>
        <pt x="768" y="336" on="0"/>
        <pt x="711" y="191" on="0"/>
        <pt x="599" y="72" on="0"/>
        <pt x="433" y="0" on="0"/>
        <pt x="323" y="0" on="1"/>
      </contour>
      <contour>
        <pt x="379" y="296" on="1"/>
        <pt x="273" y="296" on="1"/>
        <pt x="246" y="171" on="1"/>
        <pt x="340" y="171" on="1"/>
        <pt x="399" y="171" on="0"/>
        <pt x="489" y="211" on="0"/>
        <pt x="549" y="278" on="0"/>
        <pt x="580" y="359" on="0"/>
        <pt x="580" y="399" on="1"/>
        <pt x="580" y="444" on="0"/>
        <pt x="542" y="523" on="0"/>
        <pt x="465" y="572" on="0"/>
        <pt x="406" y="572" on="1"/>
        <pt x="331" y="572" on="1"/>
        <pt x="304" y="444" on="1"/>
        <pt x="411" y="444" on="1"/>
      </contour>
    </TTGlyph>
    <TTGlyph name="E" xMin="2" yMin="0" xMax="693" yMax="740">
      <contour>
        <pt x="2" y="0" on="1"/>
        <pt x="159" y="740" on="1"/>
        <pt x="693" y="740" on="1"/>
        <pt x="658" y="574" on="1"/>
        <pt x="316" y="574" on="1"/>
        <pt x="290" y="454" on="1"/>
        <pt x="588" y="454" on="1"/>
        <pt x="554" y="296" on="1"/>
        <pt x="257" y="296" on="1"/>
        <pt x="229" y="166" on="1"/>
        <pt x="576" y="166" on="1"/>
        <pt x="541" y="0" on="1"/>
      </contour>
    </TTGlyph>
    <TTGlyph name="Eacute" xMin="2" yMin="0" xMax="683" yMax="989">
      <contour>
        <pt x="510" y="809" on="1"/>
        <pt x="377" y="810" on="1"/>
        <pt x="454" y="989" on="1"/>
        <pt x="624" y="989" on="1"/>
      </contour>
      <contour>
        <pt x="2" y="0" on="1"/>
        <pt x="159" y="740" on="1"/>
        <pt x="683" y="740" on="1"/>
        <pt x="648" y="574" on="1"/>
        <pt x="316" y="574" on="1"/>
        <pt x="290" y="454" on="1"/>
        <pt x="578" y="454" on="1"/>
        <pt x="544" y="296" on="1"/>
        <pt x="257" y="296" on="1"/>
        <pt x="229" y="166" on="1"/>
        <pt x="566" y="166" on="1"/>
        <pt x="531" y="0" on="1"/>
      </contour>
    </TTGlyph>
    <TTGlyph name="Ecaron" xMin="2" yMin="0" xMax="684" yMax="989">
      <contour>
        <pt x="362" y="800" on="1"/>
        <pt x="267" y="989" on="1"/>
        <pt x="401" y="989" on="1"/>
        <pt x="446" y="887" on="1"/>
        <pt x="536" y="989" on="1"/>
        <pt x="684" y="989" on="1"/>
        <pt x="509" y="800" on="1"/>
      </contour>
      <contour>
        <pt x="2" y="0" on="1"/>
        <pt x="159" y="740" on="1"/>
        <pt x="683" y="740" on="1"/>
        <pt x="648" y="574" on="1"/>
        <pt x="316" y="574" on="1"/>
        <pt x="290" y="454" on="1"/>
        <pt x="578" y="454" on="1"/>
        <pt x="544" y="296" on="1"/>
        <pt x="257" y="296" on="1"/>
        <pt x="229" y="166" on="1"/>
        <pt x="566" y="166" on="1"/>
        <pt x="531" y="0" on="1"/>
      </contour>
    </TTGlyph>
    <TTGlyph name="Ecircumflex" xMin="2" yMin="0" xMax="683" yMax="958">
      <contour>
        <pt x="217" y="799" on="1"/>
        <pt x="386" y="958" on="1"/>
        <pt x="533" y="958" on="1"/>
        <pt x="634" y="799" on="1"/>
        <pt x="501" y="799" on="1"/>
        <pt x="451" y="884" on="1"/>
        <pt x="366" y="799" on="1"/>
      </contour>
      <contour>
        <pt x="2" y="0" on="1"/>
        <pt x="159" y="740" on="1"/>
        <pt x="683" y="740" on="1"/>
        <pt x="648" y="574" on="1"/>
        <pt x="316" y="574" on="1"/>
        <pt x="290" y="454" on="1"/>
        <pt x="578" y="454" on="1"/>
        <pt x="544" y="296" on="1"/>
        <pt x="257" y="296" on="1"/>
        <pt x="229" y="166" on="1"/>
        <pt x="566" y="166" on="1"/>
        <pt x="531" y="0" on="1"/>
      </contour>
    </TTGlyph>
    <TTGlyph name="Edieresis" xMin="2" yMin="0" xMax="683" yMax="983">
      <contour>
        <pt x="575" y="788" on="1"/>
        <pt x="530" y="788" on="0"/>
        <pt x="473" y="845" on="0"/>
        <pt x="473" y="885" on="1"/>
        <pt x="473" y="926" on="0"/>
        <pt x="530" y="983" on="0"/>
        <pt x="575" y="983" on="1"/>
        <pt x="619" y="983" on="0"/>
        <pt x="677" y="926" on="0"/>
        <pt x="677" y="885" on="1"/>
        <pt x="677" y="845" on="0"/>
        <pt x="619" y="788" on="0"/>
      </contour>
      <contour>
        <pt x="325" y="788" on="1"/>
        <pt x="280" y="788" on="0"/>
        <pt x="223" y="845" on="0"/>
        <pt x="223" y="885" on="1"/>
        <pt x="223" y="926" on="0"/>
        <pt x="280" y="983" on="0"/>
        <pt x="325" y="983" on="1"/>
        <pt x="369" y="983" on="0"/>
        <pt x="427" y="926" on="0"/>
        <pt x="427" y="885" on="1"/>
        <pt x="427" y="845" on="0"/>
        <pt x="369" y="788" on="0"/>
      </contour>
      <contour>
        <pt x="2" y="0" on="1"/>
        <pt x="159" y="740" on="1"/>
        <pt x="683" y="740" on="1"/>
        <pt x="648" y="574" on="1"/>
        <pt x="316" y="574" on="1"/>
        <pt x="290" y="454" on="1"/>
        <pt x="578" y="454" on="1"/>
        <pt x="544" y="296" on="1"/>
        <pt x="257" y="296" on="1"/>
        <pt x="229" y="166" on="1"/>
        <pt x="566" y="166" on="1"/>
        <pt x="531" y="0" on="1"/>
      </contour>
    </TTGlyph>
    <TTGlyph name="Edotaccent" xMin="2" yMin="0" xMax="683" yMax="1000">
      <contour>
        <pt x="452" y="793" on="1"/>
        <pt x="405" y="793" on="0"/>
        <pt x="344" y="854" on="0"/>
        <pt x="344" y="896" on="1"/>
        <pt x="344" y="940" on="0"/>
        <pt x="405" y="1000" on="0"/>
        <pt x="452" y="1000" on="1"/>
        <pt x="499" y="1000" on="0"/>
        <pt x="561" y="940" on="0"/>
        <pt x="561" y="896" on="1"/>
        <pt x="561" y="854" on="0"/>
        <pt x="499" y="793" on="0"/>
      </contour>
      <contour>
        <pt x="2" y="0" on="1"/>
        <pt x="159" y="740" on="1"/>
        <pt x="683" y="740" on="1"/>
        <pt x="648" y="574" on="1"/>
        <pt x="316" y="574" on="1"/>
        <pt x="290" y="454" on="1"/>
        <pt x="578" y="454" on="1"/>
        <pt x="544" y="296" on="1"/>
        <pt x="257" y="296" on="1"/>
        <pt x="229" y="166" on="1"/>
        <pt x="566" y="166" on="1"/>
        <pt x="531" y="0" on="1"/>
      </contour>
    </TTGlyph>
    <TTGlyph name="Egrave" xMin="2" yMin="0" xMax="683" yMax="989">
      <contour>
        <pt x="360" y="809" on="1"/>
        <pt x="256" y="989" on="1"/>
        <pt x="421" y="989" on="1"/>
        <pt x="488" y="810" on="1"/>
      </contour>
      <contour>
        <pt x="2" y="0" on="1"/>
        <pt x="159" y="740" on="1"/>
        <pt x="683" y="740" on="1"/>
        <pt x="648" y="574" on="1"/>
        <pt x="316" y="574" on="1"/>
        <pt x="290" y="454" on="1"/>
        <pt x="578" y="454" on="1"/>
        <pt x="544" y="296" on="1"/>
        <pt x="257" y="296" on="1"/>
        <pt x="229" y="166" on="1"/>
        <pt x="566" y="166" on="1"/>
        <pt x="531" y="0" on="1"/>
      </contour>
    </TTGlyph>
    <TTGlyph name="Emacron" xMin="2" yMin="0" xMax="683" yMax="925">
      <contour>
        <pt x="265" y="823" on="1"/>
        <pt x="287" y="925" on="1"/>
        <pt x="627" y="925" on="1"/>
        <pt x="605" y="823" on="1"/>
      </contour>
      <contour>
        <pt x="2" y="0" on="1"/>
        <pt x="159" y="740" on="1"/>
        <pt x="683" y="740" on="1"/>
        <pt x="648" y="574" on="1"/>
        <pt x="316" y="574" on="1"/>
        <pt x="290" y="454" on="1"/>
        <pt x="578" y="454" on="1"/>
        <pt x="544" y="296" on="1"/>
        <pt x="257" y="296" on="1"/>
        <pt x="229" y="166" on="1"/>
        <pt x="566" y="166" on="1"/>
        <pt x="531" y="0" on="1"/>
      </contour>
    </TTGlyph>
    <TTGlyph name="Eogonek" xMin="2" yMin="-194" xMax="683" yMax="740">
      <contour>
        <pt x="2" y="0" on="1"/>
        <pt x="159" y="740" on="1"/>
        <pt x="683" y="740" on="1"/>
        <pt x="648" y="574" on="1"/>
        <pt x="316" y="574" on="1"/>
        <pt x="290" y="454" on="1"/>
        <pt x="578" y="454" on="1"/>
        <pt x="544" y="296" on="1"/>
        <pt x="257" y="296" on="1"/>
        <pt x="229" y="166" on="1"/>
        <pt x="566" y="166" on="1"/>
        <pt x="531" y="0" on="1"/>
        <pt x="531" y="0" on="0"/>
        <pt x="500" y="-15" on="0"/>
        <pt x="469" y="-42" on="0"/>
        <pt x="469" y="-60" on="1"/>
        <pt x="469" y="-73" on="0"/>
        <pt x="490" y="-90" on="0"/>
        <pt x="515" y="-90" on="1"/>
        <pt x="526" y="-90" on="0"/>
        <pt x="547" y="-87" on="0"/>
        <pt x="547" y="-87" on="1"/>
        <pt x="526" y="-189" on="1"/>
        <pt x="526" y="-189" on="0"/>
        <pt x="495" y="-194" on="0"/>
        <pt x="469" y="-194" on="1"/>
        <pt x="397" y="-194" on="0"/>
        <pt x="330" y="-140" on="0"/>
        <pt x="330" y="-99" on="1"/>
        <pt x="330" y="-63" on="0"/>
        <pt x="372" y="-15" on="0"/>
        <pt x="398" y="0" on="1"/>
      </contour>
    </TTGlyph>
    <TTGlyph name="Eth" xMin="-11" yMin="0" xMax="768" yMax="740">
      <contour>
        <pt x="18" y="0" on="1"/>
        <pt x="81" y="296" on="1"/>
        <pt x="-11" y="296" on="1"/>
        <pt x="21" y="444" on="1"/>
        <pt x="112" y="444" on="1"/>
        <pt x="175" y="740" on="1"/>
        <pt x="420" y="740" on="1"/>
        <pt x="508" y="740" on="0"/>
        <pt x="639" y="686" on="0"/>
        <pt x="725" y="593" on="0"/>
        <pt x="768" y="474" on="0"/>
        <pt x="768" y="410" on="1"/>
        <pt x="768" y="336" on="0"/>
        <pt x="711" y="191" on="0"/>
        <pt x="599" y="72" on="0"/>
        <pt x="433" y="0" on="0"/>
        <pt x="323" y="0" on="1"/>
      </contour>
      <contour>
        <pt x="379" y="296" on="1"/>
        <pt x="273" y="296" on="1"/>
        <pt x="246" y="171" on="1"/>
        <pt x="340" y="171" on="1"/>
        <pt x="399" y="171" on="0"/>
        <pt x="489" y="211" on="0"/>
        <pt x="549" y="278" on="0"/>
        <pt x="580" y="359" on="0"/>
        <pt x="580" y="399" on="1"/>
        <pt x="580" y="444" on="0"/>
        <pt x="542" y="523" on="0"/>
        <pt x="465" y="572" on="0"/>
        <pt x="406" y="572" on="1"/>
        <pt x="331" y="572" on="1"/>
        <pt x="304" y="444" on="1"/>
        <pt x="411" y="444" on="1"/>
      </contour>
    </TTGlyph>
    <TTGlyph name="Euro" xMin="17" yMin="-10" xMax="727" yMax="750">
      <contour>
        <pt x="17" y="271" on="1"/>
        <pt x="34" y="351" on="1"/>
        <pt x="133" y="351" on="1"/>
        <pt x="134" y="371" on="0"/>
        <pt x="137" y="390" on="1"/>
        <pt x="42" y="390" on="1"/>
        <pt x="59" y="470" on="1"/>
        <pt x="156" y="470" on="1"/>
        <pt x="181" y="546" on="0"/>
        <pt x="290" y="673" on="0"/>
        <pt x="457" y="750" on="0"/>
        <pt x="568" y="750" on="1"/>
        <pt x="645" y="750" on="0"/>
        <pt x="727" y="734" on="0"/>
        <pt x="727" y="734" on="1"/>
        <pt x="692" y="569" on="1"/>
        <pt x="692" y="569" on="0"/>
        <pt x="626" y="585" on="0"/>
        <pt x="578" y="585" on="1"/>
        <pt x="500" y="585" on="0"/>
        <pt x="392" y="519" on="0"/>
        <pt x="363" y="470" on="1"/>
        <pt x="577" y="470" on="1"/>
        <pt x="560" y="390" on="1"/>
        <pt x="334" y="390" on="1"/>
        <pt x="330" y="370" on="0"/>
        <pt x="330" y="351" on="1"/>
        <pt x="552" y="351" on="1"/>
        <pt x="535" y="271" on="1"/>
        <pt x="344" y="271" on="1"/>
        <pt x="363" y="222" on="0"/>
        <pt x="454" y="155" on="0"/>
        <pt x="527" y="155" on="1"/>
        <pt x="559" y="155" on="0"/>
        <pt x="619" y="163" on="0"/>
        <pt x="657" y="171" on="0"/>
        <pt x="657" y="171" on="1"/>
        <pt x="622" y="5" on="1"/>
        <pt x="622" y="5" on="0"/>
        <pt x="546" y="-10" on="0"/>
        <pt x="481" y="-10" on="1"/>
        <pt x="378" y="-10" on="0"/>
        <pt x="234" y="67" on="0"/>
        <pt x="150" y="195" on="0"/>
        <pt x="138" y="271" on="1"/>
      </contour>
    </TTGlyph>
    <TTGlyph name="F" xMin="2" yMin="0" xMax="693" yMax="740">
      <contour>
        <pt x="2" y="0" on="1"/>
        <pt x="159" y="740" on="1"/>
        <pt x="693" y="740" on="1"/>
        <pt x="658" y="574" on="1"/>
        <pt x="316" y="574" on="1"/>
        <pt x="282" y="414" on="1"/>
        <pt x="579" y="414" on="1"/>
        <pt x="545" y="255" on="1"/>
        <pt x="248" y="255" on="1"/>
        <pt x="194" y="0" on="1"/>
      </contour>
    </TTGlyph>
    <TTGlyph name="G" xMin="56" yMin="-10" xMax="786" yMax="750">
      <contour>
        <pt x="393" y="-10" on="1"/>
        <pt x="309" y="-10" on="0"/>
        <pt x="183" y="43" on="0"/>
        <pt x="98" y="136" on="0"/>
        <pt x="56" y="256" on="0"/>
        <pt x="56" y="323" on="1"/>
        <pt x="56" y="398" on="0"/>
        <pt x="109" y="549" on="0"/>
        <pt x="215" y="674" on="0"/>
        <pt x="373" y="750" on="0"/>
        <pt x="478" y="750" on="1"/>
        <pt x="555" y="750" on="0"/>
        <pt x="662" y="710" on="0"/>
        <pt x="729" y="647" on="0"/>
        <pt x="767" y="576" on="0"/>
        <pt x="783" y="513" on="0"/>
        <pt x="786" y="473" on="0"/>
        <pt x="786" y="473" on="1"/>
        <pt x="596" y="473" on="1"/>
        <pt x="596" y="473" on="0"/>
        <pt x="590" y="505" on="0"/>
        <pt x="567" y="548" on="0"/>
        <pt x="513" y="580" on="0"/>
        <pt x="465" y="580" on="1"/>
        <pt x="412" y="580" on="0"/>
        <pt x="332" y="537" on="0"/>
        <pt x="277" y="465" on="0"/>
        <pt x="250" y="380" on="0"/>
        <pt x="250" y="338" on="1"/>
        <pt x="250" y="291" on="0"/>
        <pt x="286" y="210" on="0"/>
        <pt x="358" y="161" on="0"/>
        <pt x="413" y="161" on="1"/>
        <pt x="466" y="161" on="0"/>
        <pt x="543" y="208" on="0"/>
        <pt x="563" y="261" on="1"/>
        <pt x="400" y="261" on="1"/>
        <pt x="432" y="409" on="1"/>
        <pt x="784" y="409" on="1"/>
        <pt x="777" y="353" on="1"/>
        <pt x="761" y="223" on="0"/>
        <pt x="650" y="63" on="0"/>
        <pt x="487" y="-10" on="0"/>
      </contour>
    </TTGlyph>
    <TTGlyph name="Gbreve" xMin="56" yMin="-10" xMax="786" yMax="988">
      <contour>
        <pt x="515" y="802" on="1"/>
        <pt x="455" y="802" on="0"/>
        <pt x="385" y="840" on="0"/>
        <pt x="352" y="895" on="0"/>
        <pt x="344" y="950" on="0"/>
        <pt x="346" y="988" on="0"/>
        <pt x="346" y="988" on="1"/>
        <pt x="465" y="988" on="1"/>
        <pt x="465" y="988" on="0"/>
        <pt x="463" y="964" on="0"/>
        <pt x="470" y="931" on="0"/>
        <pt x="495" y="907" on="0"/>
        <pt x="523" y="907" on="1"/>
        <pt x="550" y="907" on="0"/>
        <pt x="586" y="931" on="0"/>
        <pt x="607" y="964" on="0"/>
        <pt x="615" y="988" on="0"/>
        <pt x="615" y="988" on="1"/>
        <pt x="734" y="988" on="1"/>
        <pt x="734" y="988" on="0"/>
        <pt x="726" y="950" on="0"/>
        <pt x="703" y="895" on="0"/>
        <pt x="655" y="840" on="0"/>
        <pt x="575" y="802" on="0"/>
      </contour>
      <contour>
        <pt x="393" y="-10" on="1"/>
        <pt x="309" y="-10" on="0"/>
        <pt x="183" y="43" on="0"/>
        <pt x="98" y="136" on="0"/>
        <pt x="56" y="256" on="0"/>
        <pt x="56" y="323" on="1"/>
        <pt x="56" y="398" on="0"/>
        <pt x="109" y="549" on="0"/>
        <pt x="215" y="674" on="0"/>
        <pt x="373" y="750" on="0"/>
        <pt x="478" y="750" on="1"/>
        <pt x="555" y="750" on="0"/>
        <pt x="662" y="710" on="0"/>
        <pt x="729" y="647" on="0"/>
        <pt x="767" y="576" on="0"/>
        <pt x="783" y="513" on="0"/>
        <pt x="786" y="473" on="0"/>
        <pt x="786" y="473" on="1"/>
        <pt x="596" y="473" on="1"/>
        <pt x="596" y="473" on="0"/>
        <pt x="590" y="505" on="0"/>
        <pt x="567" y="548" on="0"/>
        <pt x="513" y="580" on="0"/>
        <pt x="465" y="580" on="1"/>
        <pt x="412" y="580" on="0"/>
        <pt x="332" y="537" on="0"/>
        <pt x="277" y="465" on="0"/>
        <pt x="250" y="380" on="0"/>
        <pt x="250" y="338" on="1"/>
        <pt x="250" y="291" on="0"/>
        <pt x="286" y="210" on="0"/>
        <pt x="358" y="161" on="0"/>
        <pt x="413" y="161" on="1"/>
        <pt x="466" y="161" on="0"/>
        <pt x="543" y="208" on="0"/>
        <pt x="563" y="261" on="1"/>
        <pt x="400" y="261" on="1"/>
        <pt x="432" y="409" on="1"/>
        <pt x="784" y="409" on="1"/>
        <pt x="777" y="353" on="1"/>
        <pt x="761" y="223" on="0"/>
        <pt x="650" y="63" on="0"/>
        <pt x="487" y="-10" on="0"/>
      </contour>
    </TTGlyph>
    <TTGlyph name="Gcaron" xMin="56" yMin="-10" xMax="786" yMax="989">
      <contour>
        <pt x="430" y="800" on="1"/>
        <pt x="335" y="989" on="1"/>
        <pt x="469" y="989" on="1"/>
        <pt x="514" y="887" on="1"/>
        <pt x="604" y="989" on="1"/>
        <pt x="752" y="989" on="1"/>
        <pt x="577" y="800" on="1"/>
      </contour>
      <contour>
        <pt x="393" y="-10" on="1"/>
        <pt x="309" y="-10" on="0"/>
        <pt x="183" y="43" on="0"/>
        <pt x="98" y="136" on="0"/>
        <pt x="56" y="256" on="0"/>
        <pt x="56" y="323" on="1"/>
        <pt x="56" y="398" on="0"/>
        <pt x="109" y="549" on="0"/>
        <pt x="215" y="674" on="0"/>
        <pt x="373" y="750" on="0"/>
        <pt x="478" y="750" on="1"/>
        <pt x="555" y="750" on="0"/>
        <pt x="662" y="710" on="0"/>
        <pt x="729" y="647" on="0"/>
        <pt x="767" y="576" on="0"/>
        <pt x="783" y="513" on="0"/>
        <pt x="786" y="473" on="0"/>
        <pt x="786" y="473" on="1"/>
        <pt x="596" y="473" on="1"/>
        <pt x="596" y="473" on="0"/>
        <pt x="590" y="505" on="0"/>
        <pt x="567" y="548" on="0"/>
        <pt x="513" y="580" on="0"/>
        <pt x="465" y="580" on="1"/>
        <pt x="412" y="580" on="0"/>
        <pt x="332" y="537" on="0"/>
        <pt x="277" y="465" on="0"/>
        <pt x="250" y="380" on="0"/>
        <pt x="250" y="338" on="1"/>
        <pt x="250" y="291" on="0"/>
        <pt x="286" y="210" on="0"/>
        <pt x="358" y="161" on="0"/>
        <pt x="413" y="161" on="1"/>
        <pt x="466" y="161" on="0"/>
        <pt x="543" y="208" on="0"/>
        <pt x="563" y="261" on="1"/>
        <pt x="400" y="261" on="1"/>
        <pt x="432" y="409" on="1"/>
        <pt x="784" y="409" on="1"/>
        <pt x="777" y="353" on="1"/>
        <pt x="761" y="223" on="0"/>
        <pt x="650" y="63" on="0"/>
        <pt x="487" y="-10" on="0"/>
      </contour>
    </TTGlyph>
    <TTGlyph name="Gdotaccent" xMin="56" yMin="-10" xMax="786" yMax="1000">
      <contour>
        <pt x="520" y="793" on="1"/>
        <pt x="473" y="793" on="0"/>
        <pt x="412" y="854" on="0"/>
        <pt x="412" y="896" on="1"/>
        <pt x="412" y="940" on="0"/>
        <pt x="473" y="1000" on="0"/>
        <pt x="520" y="1000" on="1"/>
        <pt x="567" y="1000" on="0"/>
        <pt x="629" y="940" on="0"/>
        <pt x="629" y="896" on="1"/>
        <pt x="629" y="854" on="0"/>
        <pt x="567" y="793" on="0"/>
      </contour>
      <contour>
        <pt x="393" y="-10" on="1"/>
        <pt x="309" y="-10" on="0"/>
        <pt x="183" y="43" on="0"/>
        <pt x="98" y="136" on="0"/>
        <pt x="56" y="256" on="0"/>
        <pt x="56" y="323" on="1"/>
        <pt x="56" y="398" on="0"/>
        <pt x="109" y="549" on="0"/>
        <pt x="215" y="674" on="0"/>
        <pt x="373" y="750" on="0"/>
        <pt x="478" y="750" on="1"/>
        <pt x="555" y="750" on="0"/>
        <pt x="662" y="710" on="0"/>
        <pt x="729" y="647" on="0"/>
        <pt x="767" y="576" on="0"/>
        <pt x="783" y="513" on="0"/>
        <pt x="786" y="473" on="0"/>
        <pt x="786" y="473" on="1"/>
        <pt x="596" y="473" on="1"/>
        <pt x="596" y="473" on="0"/>
        <pt x="590" y="505" on="0"/>
        <pt x="567" y="548" on="0"/>
        <pt x="513" y="580" on="0"/>
        <pt x="465" y="580" on="1"/>
        <pt x="412" y="580" on="0"/>
        <pt x="332" y="537" on="0"/>
        <pt x="277" y="465" on="0"/>
        <pt x="250" y="380" on="0"/>
        <pt x="250" y="338" on="1"/>
        <pt x="250" y="291" on="0"/>
        <pt x="286" y="210" on="0"/>
        <pt x="358" y="161" on="0"/>
        <pt x="413" y="161" on="1"/>
        <pt x="466" y="161" on="0"/>
        <pt x="543" y="208" on="0"/>
        <pt x="563" y="261" on="1"/>
        <pt x="400" y="261" on="1"/>
        <pt x="432" y="409" on="1"/>
        <pt x="784" y="409" on="1"/>
        <pt x="777" y="353" on="1"/>
        <pt x="761" y="223" on="0"/>
        <pt x="650" y="63" on="0"/>
        <pt x="487" y="-10" on="0"/>
      </contour>
    </TTGlyph>
    <TTGlyph name="H" xMin="2" yMin="0" xMax="797" yMax="740">
      <contour>
        <pt x="2" y="0" on="1"/>
        <pt x="159" y="740" on="1"/>
        <pt x="351" y="740" on="1"/>
        <pt x="292" y="462" on="1"/>
        <pt x="546" y="462" on="1"/>
        <pt x="605" y="740" on="1"/>
        <pt x="797" y="740" on="1"/>
        <pt x="640" y="0" on="1"/>
        <pt x="448" y="0" on="1"/>
        <pt x="511" y="298" on="1"/>
        <pt x="257" y="298" on="1"/>
        <pt x="194" y="0" on="1"/>
      </contour>
    </TTGlyph>
    <TTGlyph name="Hbar" xMin="22" yMin="0" xMax="863" yMax="740">
      <contour>
        <pt x="22" y="0" on="1"/>
        <pt x="134" y="527" on="1"/>
        <pt x="64" y="527" on="1"/>
        <pt x="92" y="658" on="1"/>
        <pt x="162" y="658" on="1"/>
        <pt x="179" y="740" on="1"/>
        <pt x="371" y="740" on="1"/>
        <pt x="354" y="658" on="1"/>
        <pt x="608" y="658" on="1"/>
        <pt x="625" y="740" on="1"/>
        <pt x="817" y="740" on="1"/>
        <pt x="800" y="658" on="1"/>
        <pt x="863" y="658" on="1"/>
        <pt x="835" y="527" on="1"/>
        <pt x="772" y="527" on="1"/>
        <pt x="660" y="0" on="1"/>
        <pt x="468" y="0" on="1"/>
        <pt x="531" y="298" on="1"/>
        <pt x="277" y="298" on="1"/>
        <pt x="214" y="0" on="1"/>
      </contour>
      <contour>
        <pt x="312" y="462" on="1"/>
        <pt x="566" y="462" on="1"/>
        <pt x="580" y="527" on="1"/>
        <pt x="326" y="527" on="1"/>
      </contour>
    </TTGlyph>
    <TTGlyph name="I" xMin="2" yMin="0" xMax="351" yMax="740">
      <contour>
        <pt x="2" y="0" on="1"/>
        <pt x="159" y="740" on="1"/>
        <pt x="351" y="740" on="1"/>
        <pt x="194" y="0" on="1"/>
      </contour>
    </TTGlyph>
    <TTGlyph name="Iacute" xMin="2" yMin="0" xMax="459" yMax="985">
      <contour>
        <pt x="345" y="805" on="1"/>
        <pt x="212" y="806" on="1"/>
        <pt x="289" y="985" on="1"/>
        <pt x="459" y="985" on="1"/>
      </contour>
      <contour>
        <pt x="2" y="0" on="1"/>
        <pt x="159" y="740" on="1"/>
        <pt x="351" y="740" on="1"/>
        <pt x="194" y="0" on="1"/>
      </contour>
    </TTGlyph>
    <TTGlyph name="Icircumflex" xMin="2" yMin="0" xMax="475" yMax="984">
      <contour>
        <pt x="58" y="795" on="1"/>
        <pt x="233" y="984" on="1"/>
        <pt x="380" y="984" on="1"/>
        <pt x="475" y="795" on="1"/>
        <pt x="341" y="795" on="1"/>
        <pt x="296" y="897" on="1"/>
        <pt x="206" y="795" on="1"/>
      </contour>
      <contour>
        <pt x="2" y="0" on="1"/>
        <pt x="159" y="740" on="1"/>
        <pt x="351" y="740" on="1"/>
        <pt x="194" y="0" on="1"/>
      </contour>
    </TTGlyph>
    <TTGlyph name="Idieresis" xMin="2" yMin="0" xMax="512" yMax="979">
      <contour>
        <pt x="410" y="784" on="1"/>
        <pt x="365" y="784" on="0"/>
        <pt x="308" y="841" on="0"/>
        <pt x="308" y="881" on="1"/>
        <pt x="308" y="922" on="0"/>
        <pt x="365" y="979" on="0"/>
        <pt x="410" y="979" on="1"/>
        <pt x="454" y="979" on="0"/>
        <pt x="512" y="922" on="0"/>
        <pt x="512" y="881" on="1"/>
        <pt x="512" y="841" on="0"/>
        <pt x="454" y="784" on="0"/>
      </contour>
      <contour>
        <pt x="160" y="784" on="1"/>
        <pt x="115" y="784" on="0"/>
        <pt x="58" y="841" on="0"/>
        <pt x="58" y="881" on="1"/>
        <pt x="58" y="922" on="0"/>
        <pt x="115" y="979" on="0"/>
        <pt x="160" y="979" on="1"/>
        <pt x="204" y="979" on="0"/>
        <pt x="262" y="922" on="0"/>
        <pt x="262" y="881" on="1"/>
        <pt x="262" y="841" on="0"/>
        <pt x="204" y="784" on="0"/>
      </contour>
      <contour>
        <pt x="2" y="0" on="1"/>
        <pt x="159" y="740" on="1"/>
        <pt x="351" y="740" on="1"/>
        <pt x="194" y="0" on="1"/>
      </contour>
    </TTGlyph>
    <TTGlyph name="Idotaccent" xMin="2" yMin="0" xMax="396" yMax="996">
      <contour>
        <pt x="287" y="789" on="1"/>
        <pt x="240" y="789" on="0"/>
        <pt x="179" y="850" on="0"/>
        <pt x="179" y="892" on="1"/>
        <pt x="179" y="936" on="0"/>
        <pt x="240" y="996" on="0"/>
        <pt x="287" y="996" on="1"/>
        <pt x="334" y="996" on="0"/>
        <pt x="396" y="936" on="0"/>
        <pt x="396" y="892" on="1"/>
        <pt x="396" y="850" on="0"/>
        <pt x="334" y="789" on="0"/>
      </contour>
      <contour>
        <pt x="2" y="0" on="1"/>
        <pt x="159" y="740" on="1"/>
        <pt x="351" y="740" on="1"/>
        <pt x="194" y="0" on="1"/>
      </contour>
    </TTGlyph>
    <TTGlyph name="Igrave" xMin="2" yMin="0" xMax="351" yMax="985">
      <contour>
        <pt x="195" y="805" on="1"/>
        <pt x="91" y="985" on="1"/>
        <pt x="256" y="985" on="1"/>
        <pt x="323" y="806" on="1"/>
      </contour>
      <contour>
        <pt x="2" y="0" on="1"/>
        <pt x="159" y="740" on="1"/>
        <pt x="351" y="740" on="1"/>
        <pt x="194" y="0" on="1"/>
      </contour>
    </TTGlyph>
    <TTGlyph name="Imacron" xMin="2" yMin="0" xMax="462" yMax="921">
      <contour>
        <pt x="100" y="819" on="1"/>
        <pt x="122" y="921" on="1"/>
        <pt x="462" y="921" on="1"/>
        <pt x="440" y="819" on="1"/>
      </contour>
      <contour>
        <pt x="2" y="0" on="1"/>
        <pt x="159" y="740" on="1"/>
        <pt x="351" y="740" on="1"/>
        <pt x="194" y="0" on="1"/>
      </contour>
    </TTGlyph>
    <TTGlyph name="Iogonek" xMin="-7" yMin="-194" xMax="351" yMax="740">
      <contour>
        <pt x="2" y="0" on="1"/>
        <pt x="159" y="740" on="1"/>
        <pt x="351" y="740" on="1"/>
        <pt x="194" y="0" on="1"/>
        <pt x="194" y="0" on="0"/>
        <pt x="163" y="-15" on="0"/>
        <pt x="132" y="-42" on="0"/>
        <pt x="132" y="-60" on="1"/>
        <pt x="132" y="-73" on="0"/>
        <pt x="153" y="-90" on="0"/>
        <pt x="178" y="-90" on="1"/>
        <pt x="189" y="-90" on="0"/>
        <pt x="210" y="-87" on="0"/>
        <pt x="210" y="-87" on="1"/>
        <pt x="189" y="-189" on="1"/>
        <pt x="189" y="-189" on="0"/>
        <pt x="158" y="-194" on="0"/>
        <pt x="132" y="-194" on="1"/>
        <pt x="60" y="-194" on="0"/>
        <pt x="-7" y="-140" on="0"/>
        <pt x="-7" y="-99" on="1"/>
        <pt x="-7" y="-63" on="0"/>
        <pt x="35" y="-15" on="0"/>
        <pt x="61" y="0" on="1"/>
      </contour>
    </TTGlyph>
    <TTGlyph name="Itilde" xMin="2" yMin="0" xMax="492" yMax="983">
      <contour>
        <pt x="360" y="818" on="1"/>
        <pt x="333" y="818" on="0"/>
        <pt x="293" y="836" on="0"/>
        <pt x="263" y="859" on="0"/>
        <pt x="237" y="877" on="0"/>
        <pt x="224" y="877" on="1"/>
        <pt x="198" y="877" on="0"/>
        <pt x="187" y="824" on="1"/>
        <pt x="94" y="824" on="1"/>
        <pt x="103" y="864" on="0"/>
        <pt x="129" y="936" on="0"/>
        <pt x="181" y="983" on="0"/>
        <pt x="226" y="983" on="1"/>
        <pt x="263" y="983" on="0"/>
        <pt x="310" y="954" on="0"/>
        <pt x="345" y="924" on="0"/>
        <pt x="362" y="924" on="1"/>
        <pt x="376" y="924" on="0"/>
        <pt x="393" y="951" on="0"/>
        <pt x="399" y="977" on="1"/>
        <pt x="492" y="977" on="1"/>
        <pt x="484" y="938" on="0"/>
        <pt x="456" y="865" on="0"/>
        <pt x="405" y="818" on="0"/>
      </contour>
      <contour>
        <pt x="2" y="0" on="1"/>
        <pt x="159" y="740" on="1"/>
        <pt x="351" y="740" on="1"/>
        <pt x="194" y="0" on="1"/>
      </contour>
    </TTGlyph>
    <TTGlyph name="J" xMin="-10" yMin="-10" xMax="555" yMax="740">
      <contour>
        <pt x="106" y="-10" on="1"/>
        <pt x="56" y="-10" on="0"/>
        <pt x="-10" y="0" on="0"/>
        <pt x="-10" y="0" on="1"/>
        <pt x="23" y="157" on="1"/>
        <pt x="23" y="157" on="0"/>
        <pt x="70" y="152" on="0"/>
        <pt x="101" y="152" on="1"/>
        <pt x="160" y="152" on="0"/>
        <pt x="256" y="224" on="0"/>
        <pt x="272" y="301" on="1"/>
        <pt x="365" y="740" on="1"/>
        <pt x="555" y="740" on="1"/>
        <pt x="459" y="286" on="1"/>
        <pt x="447" y="228" on="0"/>
        <pt x="394" y="121" on="0"/>
        <pt x="309" y="38" on="0"/>
        <pt x="187" y="-10" on="0"/>
      </contour>
    </TTGlyph>
    <TTGlyph name="K" xMin="2" yMin="0" xMax="826" yMax="740">
      <contour>
        <pt x="2" y="0" on="1"/>
        <pt x="159" y="740" on="1"/>
        <pt x="351" y="740" on="1"/>
        <pt x="284" y="423" on="1"/>
        <pt x="577" y="740" on="1"/>
        <pt x="826" y="740" on="1"/>
        <pt x="457" y="361" on="1"/>
        <pt x="655" y="0" on="1"/>
        <pt x="440" y="0" on="1"/>
        <pt x="265" y="334" on="1"/>
        <pt x="194" y="0" on="1"/>
      </contour>
    </TTGlyph>
    <TTGlyph name="L" xMin="2" yMin="0" xMax="576" yMax="740">
      <contour>
        <pt x="2" y="0" on="1"/>
        <pt x="159" y="740" on="1"/>
        <pt x="351" y="740" on="1"/>
        <pt x="229" y="166" on="1"/>
        <pt x="576" y="166" on="1"/>
        <pt x="541" y="0" on="1"/>
      </contour>
    </TTGlyph>
    <TTGlyph name="Lacute" xMin="2" yMin="0" xMax="566" yMax="989">
      <contour>
        <pt x="345" y="809" on="1"/>
        <pt x="212" y="810" on="1"/>
        <pt x="289" y="989" on="1"/>
        <pt x="459" y="989" on="1"/>
      </contour>
      <contour>
        <pt x="2" y="0" on="1"/>
        <pt x="159" y="740" on="1"/>
        <pt x="351" y="740" on="1"/>
        <pt x="229" y="166" on="1"/>
        <pt x="566" y="166" on="1"/>
        <pt x="531" y="0" on="1"/>
      </contour>
    </TTGlyph>
    <TTGlyph name="Lcaron" xMin="2" yMin="0" xMax="566" yMax="989">
      <contour>
        <pt x="197" y="800" on="1"/>
        <pt x="102" y="989" on="1"/>
        <pt x="236" y="989" on="1"/>
        <pt x="281" y="887" on="1"/>
        <pt x="371" y="989" on="1"/>
        <pt x="519" y="989" on="1"/>
        <pt x="344" y="800" on="1"/>
      </contour>
      <contour>
        <pt x="2" y="0" on="1"/>
        <pt x="159" y="740" on="1"/>
        <pt x="351" y="740" on="1"/>
        <pt x="229" y="166" on="1"/>
        <pt x="566" y="166" on="1"/>
        <pt x="531" y="0" on="1"/>
      </contour>
    </TTGlyph>
    <TTGlyph name="Lslash" xMin="-21" yMin="0" xMax="581" yMax="740">
      <contour>
        <pt x="17" y="0" on="1"/>
        <pt x="72" y="259" on="1"/>
        <pt x="-21" y="218" on="1"/>
        <pt x="12" y="361" on="1"/>
        <pt x="102" y="401" on="1"/>
        <pt x="174" y="740" on="1"/>
        <pt x="366" y="740" on="1"/>
        <pt x="314" y="496" on="1"/>
        <pt x="443" y="553" on="1"/>
        <pt x="410" y="410" on="1"/>
        <pt x="284" y="354" on="1"/>
        <pt x="244" y="166" on="1"/>
        <pt x="581" y="166" on="1"/>
        <pt x="546" y="0" on="1"/>
      </contour>
    </TTGlyph>
    <TTGlyph name="M" xMin="2" yMin="0" xMax="951" yMax="740">
      <contour>
        <pt x="2" y="0" on="1"/>
        <pt x="159" y="740" on="1"/>
        <pt x="409" y="740" on="1"/>
        <pt x="475" y="402" on="1"/>
        <pt x="691" y="740" on="1"/>
        <pt x="951" y="740" on="1"/>
        <pt x="794" y="0" on="1"/>
        <pt x="602" y="0" on="1"/>
        <pt x="695" y="437" on="1"/>
        <pt x="520" y="162" on="1"/>
        <pt x="344" y="162" on="1"/>
        <pt x="287" y="437" on="1"/>
        <pt x="194" y="0" on="1"/>
      </contour>
    </TTGlyph>
    <TTGlyph name="N" xMin="2" yMin="0" xMax="799" yMax="740">
      <contour>
        <pt x="2" y="0" on="1"/>
        <pt x="159" y="740" on="1"/>
        <pt x="336" y="740" on="1"/>
        <pt x="518" y="320" on="1"/>
        <pt x="607" y="740" on="1"/>
        <pt x="799" y="740" on="1"/>
        <pt x="642" y="0" on="1"/>
        <pt x="463" y="0" on="1"/>
        <pt x="279" y="400" on="1"/>
        <pt x="194" y="0" on="1"/>
      </contour>
    </TTGlyph>
    <TTGlyph name="Nacute" xMin="2" yMin="0" xMax="799" yMax="989">
      <contour>
        <pt x="566" y="809" on="1"/>
        <pt x="433" y="810" on="1"/>
        <pt x="510" y="989" on="1"/>
        <pt x="680" y="989" on="1"/>
      </contour>
      <contour>
        <pt x="2" y="0" on="1"/>
        <pt x="159" y="740" on="1"/>
        <pt x="336" y="740" on="1"/>
        <pt x="518" y="320" on="1"/>
        <pt x="607" y="740" on="1"/>
        <pt x="799" y="740" on="1"/>
        <pt x="642" y="0" on="1"/>
        <pt x="463" y="0" on="1"/>
        <pt x="279" y="400" on="1"/>
        <pt x="194" y="0" on="1"/>
      </contour>
    </TTGlyph>
    <TTGlyph name="Ncaron" xMin="2" yMin="0" xMax="799" yMax="989">
      <contour>
        <pt x="418" y="800" on="1"/>
        <pt x="323" y="989" on="1"/>
        <pt x="457" y="989" on="1"/>
        <pt x="502" y="887" on="1"/>
        <pt x="592" y="989" on="1"/>
        <pt x="740" y="989" on="1"/>
        <pt x="565" y="800" on="1"/>
      </contour>
      <contour>
        <pt x="2" y="0" on="1"/>
        <pt x="159" y="740" on="1"/>
        <pt x="336" y="740" on="1"/>
        <pt x="518" y="320" on="1"/>
        <pt x="607" y="740" on="1"/>
        <pt x="799" y="740" on="1"/>
        <pt x="642" y="0" on="1"/>
        <pt x="463" y="0" on="1"/>
        <pt x="279" y="400" on="1"/>
        <pt x="194" y="0" on="1"/>
      </contour>
    </TTGlyph>
    <TTGlyph name="Ntilde" xMin="2" yMin="0" xMax="799" yMax="987">
      <contour>
        <pt x="581" y="822" on="1"/>
        <pt x="554" y="822" on="0"/>
        <pt x="514" y="840" on="0"/>
        <pt x="484" y="863" on="0"/>
        <pt x="458" y="881" on="0"/>
        <pt x="445" y="881" on="1"/>
        <pt x="419" y="881" on="0"/>
        <pt x="408" y="828" on="1"/>
        <pt x="315" y="828" on="1"/>
        <pt x="324" y="868" on="0"/>
        <pt x="350" y="940" on="0"/>
        <pt x="402" y="987" on="0"/>
        <pt x="447" y="987" on="1"/>
        <pt x="484" y="987" on="0"/>
        <pt x="531" y="958" on="0"/>
        <pt x="566" y="928" on="0"/>
        <pt x="583" y="928" on="1"/>
        <pt x="597" y="928" on="0"/>
        <pt x="614" y="955" on="0"/>
        <pt x="620" y="981" on="1"/>
        <pt x="713" y="981" on="1"/>
        <pt x="705" y="942" on="0"/>
        <pt x="677" y="869" on="0"/>
        <pt x="626" y="822" on="0"/>
      </contour>
      <contour>
        <pt x="2" y="0" on="1"/>
        <pt x="159" y="740" on="1"/>
        <pt x="336" y="740" on="1"/>
        <pt x="518" y="320" on="1"/>
        <pt x="607" y="740" on="1"/>
        <pt x="799" y="740" on="1"/>
        <pt x="642" y="0" on="1"/>
        <pt x="463" y="0" on="1"/>
        <pt x="279" y="400" on="1"/>
        <pt x="194" y="0" on="1"/>
      </contour>
    </TTGlyph>
    <TTGlyph name="O" xMin="57" yMin="-10" xMax="813" yMax="750">
      <contour>
        <pt x="397" y="-10" on="1"/>
        <pt x="310" y="-10" on="0"/>
        <pt x="182" y="45" on="0"/>
        <pt x="98" y="140" on="0"/>
        <pt x="57" y="261" on="0"/>
        <pt x="57" y="327" on="1"/>
        <pt x="57" y="403" on="0"/>
        <pt x="111" y="553" on="0"/>
        <pt x="217" y="676" on="0"/>
        <pt x="372" y="750" on="0"/>
        <pt x="473" y="750" on="1"/>
        <pt x="560" y="750" on="0"/>
        <pt x="688" y="695" on="0"/>
        <pt x="772" y="600" on="0"/>
        <pt x="813" y="479" on="0"/>
        <pt x="813" y="413" on="1"/>
        <pt x="813" y="337" on="0"/>
        <pt x="759" y="187" on="0"/>
        <pt x="653" y="64" on="0"/>
        <pt x="498" y="-10" on="0"/>
      </contour>
      <contour>
        <pt x="405" y="161" on="1"/>
        <pt x="456" y="161" on="0"/>
        <pt x="536" y="205" on="0"/>
        <pt x="590" y="278" on="0"/>
        <pt x="619" y="366" on="0"/>
        <pt x="619" y="409" on="1"/>
        <pt x="619" y="454" on="0"/>
        <pt x="586" y="532" on="0"/>
        <pt x="519" y="579" on="0"/>
        <pt x="466" y="579" on="1"/>
        <pt x="415" y="579" on="0"/>
        <pt x="335" y="535" on="0"/>
        <pt x="281" y="462" on="0"/>
        <pt x="252" y="375" on="0"/>
        <pt x="252" y="331" on="1"/>
        <pt x="252" y="286" on="0"/>
        <pt x="285" y="209" on="0"/>
        <pt x="353" y="161" on="0"/>
      </contour>
    </TTGlyph>
    <TTGlyph name="OE" xMin="57" yMin="0" xMax="1070" yMax="740">
      <contour>
        <pt x="1070" y="740" on="1"/>
        <pt x="1035" y="574" on="1"/>
        <pt x="703" y="574" on="1"/>
        <pt x="677" y="454" on="1"/>
        <pt x="965" y="454" on="1"/>
        <pt x="931" y="296" on="1"/>
        <pt x="644" y="296" on="1"/>
        <pt x="616" y="166" on="1"/>
        <pt x="953" y="166" on="1"/>
        <pt x="918" y="0" on="1"/>
        <pt x="389" y="0" on="1"/>
        <pt x="305" y="3" on="0"/>
        <pt x="180" y="59" on="0"/>
        <pt x="98" y="151" on="0"/>
        <pt x="57" y="267" on="0"/>
        <pt x="57" y="330" on="1"/>
        <pt x="57" y="404" on="0"/>
        <pt x="114" y="549" on="0"/>
        <pt x="226" y="668" on="0"/>
        <pt x="392" y="740" on="0"/>
        <pt x="502" y="740" on="1"/>
      </contour>
      <contour>
        <pt x="245" y="341" on="1"/>
        <pt x="245" y="296" on="0"/>
        <pt x="283" y="217" on="0"/>
        <pt x="361" y="168" on="0"/>
        <pt x="419" y="168" on="1"/>
        <pt x="425" y="168" on="1"/>
        <pt x="510" y="569" on="1"/>
        <pt x="485" y="569" on="1"/>
        <pt x="426" y="569" on="0"/>
        <pt x="336" y="529" on="0"/>
        <pt x="276" y="462" on="0"/>
        <pt x="245" y="382" on="0"/>
      </contour>
    </TTGlyph>
    <TTGlyph name="Oacute" xMin="57" yMin="-10" xMax="813" yMax="989">
      <contour>
        <pt x="575" y="809" on="1"/>
        <pt x="442" y="810" on="1"/>
        <pt x="519" y="989" on="1"/>
        <pt x="689" y="989" on="1"/>
      </contour>
      <contour>
        <pt x="397" y="-10" on="1"/>
        <pt x="310" y="-10" on="0"/>
        <pt x="182" y="45" on="0"/>
        <pt x="98" y="140" on="0"/>
        <pt x="57" y="261" on="0"/>
        <pt x="57" y="327" on="1"/>
        <pt x="57" y="403" on="0"/>
        <pt x="111" y="553" on="0"/>
        <pt x="217" y="676" on="0"/>
        <pt x="372" y="750" on="0"/>
        <pt x="473" y="750" on="1"/>
        <pt x="560" y="750" on="0"/>
        <pt x="688" y="695" on="0"/>
        <pt x="772" y="600" on="0"/>
        <pt x="813" y="479" on="0"/>
        <pt x="813" y="413" on="1"/>
        <pt x="813" y="337" on="0"/>
        <pt x="759" y="187" on="0"/>
        <pt x="653" y="64" on="0"/>
        <pt x="498" y="-10" on="0"/>
      </contour>
      <contour>
        <pt x="405" y="161" on="1"/>
        <pt x="456" y="161" on="0"/>
        <pt x="536" y="205" on="0"/>
        <pt x="590" y="278" on="0"/>
        <pt x="619" y="366" on="0"/>
        <pt x="619" y="409" on="1"/>
        <pt x="619" y="454" on="0"/>
        <pt x="586" y="532" on="0"/>
        <pt x="519" y="579" on="0"/>
        <pt x="466" y="579" on="1"/>
        <pt x="415" y="579" on="0"/>
        <pt x="335" y="535" on="0"/>
        <pt x="281" y="462" on="0"/>
        <pt x="252" y="375" on="0"/>
        <pt x="252" y="331" on="1"/>
        <pt x="252" y="286" on="0"/>
        <pt x="285" y="209" on="0"/>
        <pt x="353" y="161" on="0"/>
      </contour>
    </TTGlyph>
    <TTGlyph name="Ocircumflex" xMin="57" yMin="-10" xMax="813" yMax="958">
      <contour>
        <pt x="282" y="799" on="1"/>
        <pt x="451" y="958" on="1"/>
        <pt x="598" y="958" on="1"/>
        <pt x="699" y="799" on="1"/>
        <pt x="566" y="799" on="1"/>
        <pt x="516" y="884" on="1"/>
        <pt x="431" y="799" on="1"/>
      </contour>
      <contour>
        <pt x="397" y="-10" on="1"/>
        <pt x="310" y="-10" on="0"/>
        <pt x="182" y="45" on="0"/>
        <pt x="98" y="140" on="0"/>
        <pt x="57" y="261" on="0"/>
        <pt x="57" y="327" on="1"/>
        <pt x="57" y="403" on="0"/>
        <pt x="111" y="553" on="0"/>
        <pt x="217" y="676" on="0"/>
        <pt x="372" y="750" on="0"/>
        <pt x="473" y="750" on="1"/>
        <pt x="560" y="750" on="0"/>
        <pt x="688" y="695" on="0"/>
        <pt x="772" y="600" on="0"/>
        <pt x="813" y="479" on="0"/>
        <pt x="813" y="413" on="1"/>
        <pt x="813" y="337" on="0"/>
        <pt x="759" y="187" on="0"/>
        <pt x="653" y="64" on="0"/>
        <pt x="498" y="-10" on="0"/>
      </contour>
      <contour>
        <pt x="405" y="161" on="1"/>
        <pt x="456" y="161" on="0"/>
        <pt x="536" y="205" on="0"/>
        <pt x="590" y="278" on="0"/>
        <pt x="619" y="366" on="0"/>
        <pt x="619" y="409" on="1"/>
        <pt x="619" y="454" on="0"/>
        <pt x="586" y="532" on="0"/>
        <pt x="519" y="579" on="0"/>
        <pt x="466" y="579" on="1"/>
        <pt x="415" y="579" on="0"/>
        <pt x="335" y="535" on="0"/>
        <pt x="281" y="462" on="0"/>
        <pt x="252" y="375" on="0"/>
        <pt x="252" y="331" on="1"/>
        <pt x="252" y="286" on="0"/>
        <pt x="285" y="209" on="0"/>
        <pt x="353" y="161" on="0"/>
      </contour>
    </TTGlyph>
    <TTGlyph name="Odieresis" xMin="57" yMin="-10" xMax="813" yMax="983">
      <contour>
        <pt x="640" y="788" on="1"/>
        <pt x="595" y="788" on="0"/>
        <pt x="538" y="845" on="0"/>
        <pt x="538" y="885" on="1"/>
        <pt x="538" y="926" on="0"/>
        <pt x="595" y="983" on="0"/>
        <pt x="640" y="983" on="1"/>
        <pt x="684" y="983" on="0"/>
        <pt x="742" y="926" on="0"/>
        <pt x="742" y="885" on="1"/>
        <pt x="742" y="845" on="0"/>
        <pt x="684" y="788" on="0"/>
      </contour>
      <contour>
        <pt x="390" y="788" on="1"/>
        <pt x="345" y="788" on="0"/>
        <pt x="288" y="845" on="0"/>
        <pt x="288" y="885" on="1"/>
        <pt x="288" y="926" on="0"/>
        <pt x="345" y="983" on="0"/>
        <pt x="390" y="983" on="1"/>
        <pt x="434" y="983" on="0"/>
        <pt x="492" y="926" on="0"/>
        <pt x="492" y="885" on="1"/>
        <pt x="492" y="845" on="0"/>
        <pt x="434" y="788" on="0"/>
      </contour>
      <contour>
        <pt x="397" y="-10" on="1"/>
        <pt x="310" y="-10" on="0"/>
        <pt x="182" y="45" on="0"/>
        <pt x="98" y="140" on="0"/>
        <pt x="57" y="261" on="0"/>
        <pt x="57" y="327" on="1"/>
        <pt x="57" y="403" on="0"/>
        <pt x="111" y="553" on="0"/>
        <pt x="217" y="676" on="0"/>
        <pt x="372" y="750" on="0"/>
        <pt x="473" y="750" on="1"/>
        <pt x="560" y="750" on="0"/>
        <pt x="688" y="695" on="0"/>
        <pt x="772" y="600" on="0"/>
        <pt x="813" y="479" on="0"/>
        <pt x="813" y="413" on="1"/>
        <pt x="813" y="337" on="0"/>
        <pt x="759" y="187" on="0"/>
        <pt x="653" y="64" on="0"/>
        <pt x="498" y="-10" on="0"/>
      </contour>
      <contour>
        <pt x="405" y="161" on="1"/>
        <pt x="456" y="161" on="0"/>
        <pt x="536" y="205" on="0"/>
        <pt x="590" y="278" on="0"/>
        <pt x="619" y="366" on="0"/>
        <pt x="619" y="409" on="1"/>
        <pt x="619" y="454" on="0"/>
        <pt x="586" y="532" on="0"/>
        <pt x="519" y="579" on="0"/>
        <pt x="466" y="579" on="1"/>
        <pt x="415" y="579" on="0"/>
        <pt x="335" y="535" on="0"/>
        <pt x="281" y="462" on="0"/>
        <pt x="252" y="375" on="0"/>
        <pt x="252" y="331" on="1"/>
        <pt x="252" y="286" on="0"/>
        <pt x="285" y="209" on="0"/>
        <pt x="353" y="161" on="0"/>
      </contour>
    </TTGlyph>
    <TTGlyph name="Ograve" xMin="57" yMin="-10" xMax="813" yMax="989">
      <contour>
        <pt x="425" y="809" on="1"/>
        <pt x="321" y="989" on="1"/>
        <pt x="486" y="989" on="1"/>
        <pt x="553" y="810" on="1"/>
      </contour>
      <contour>
        <pt x="397" y="-10" on="1"/>
        <pt x="310" y="-10" on="0"/>
        <pt x="182" y="45" on="0"/>
        <pt x="98" y="140" on="0"/>
        <pt x="57" y="261" on="0"/>
        <pt x="57" y="327" on="1"/>
        <pt x="57" y="403" on="0"/>
        <pt x="111" y="553" on="0"/>
        <pt x="217" y="676" on="0"/>
        <pt x="372" y="750" on="0"/>
        <pt x="473" y="750" on="1"/>
        <pt x="560" y="750" on="0"/>
        <pt x="688" y="695" on="0"/>
        <pt x="772" y="600" on="0"/>
        <pt x="813" y="479" on="0"/>
        <pt x="813" y="413" on="1"/>
        <pt x="813" y="337" on="0"/>
        <pt x="759" y="187" on="0"/>
        <pt x="653" y="64" on="0"/>
        <pt x="498" y="-10" on="0"/>
      </contour>
      <contour>
        <pt x="405" y="161" on="1"/>
        <pt x="456" y="161" on="0"/>
        <pt x="536" y="205" on="0"/>
        <pt x="590" y="278" on="0"/>
        <pt x="619" y="366" on="0"/>
        <pt x="619" y="409" on="1"/>
        <pt x="619" y="454" on="0"/>
        <pt x="586" y="532" on="0"/>
        <pt x="519" y="579" on="0"/>
        <pt x="466" y="579" on="1"/>
        <pt x="415" y="579" on="0"/>
        <pt x="335" y="535" on="0"/>
        <pt x="281" y="462" on="0"/>
        <pt x="252" y="375" on="0"/>
        <pt x="252" y="331" on="1"/>
        <pt x="252" y="286" on="0"/>
        <pt x="285" y="209" on="0"/>
        <pt x="353" y="161" on="0"/>
      </contour>
    </TTGlyph>
    <TTGlyph name="Ohorn" xMin="57" yMin="-10" xMax="890" yMax="868">
      <contour>
        <pt x="397" y="-10" on="1"/>
        <pt x="310" y="-10" on="0"/>
        <pt x="182" y="45" on="0"/>
        <pt x="98" y="140" on="0"/>
        <pt x="57" y="261" on="0"/>
        <pt x="57" y="327" on="1"/>
        <pt x="57" y="403" on="0"/>
        <pt x="111" y="553" on="0"/>
        <pt x="217" y="676" on="0"/>
        <pt x="372" y="750" on="0"/>
        <pt x="473" y="750" on="1"/>
        <pt x="480" y="750" on="0"/>
        <pt x="487" y="750" on="1"/>
        <pt x="487" y="750" on="1"/>
        <pt x="665" y="750" on="1"/>
        <pt x="707" y="750" on="0"/>
        <pt x="716" y="790" on="1"/>
        <pt x="733" y="868" on="1"/>
        <pt x="890" y="868" on="1"/>
        <pt x="867" y="761" on="1"/>
        <pt x="856" y="709" on="0"/>
        <pt x="792" y="652" on="0"/>
        <pt x="729" y="652" on="1"/>
        <pt x="726" y="652" on="1"/>
        <pt x="770" y="605" on="0"/>
        <pt x="813" y="480" on="0"/>
        <pt x="813" y="413" on="1"/>
        <pt x="813" y="337" on="0"/>
        <pt x="759" y="187" on="0"/>
        <pt x="653" y="64" on="0"/>
        <pt x="498" y="-10" on="0"/>
      </contour>
      <contour>
        <pt x="405" y="161" on="1"/>
        <pt x="456" y="161" on="0"/>
        <pt x="536" y="205" on="0"/>
        <pt x="590" y="278" on="0"/>
        <pt x="619" y="366" on="0"/>
        <pt x="619" y="409" on="1"/>
        <pt x="619" y="454" on="0"/>
        <pt x="586" y="532" on="0"/>
        <pt x="519" y="579" on="0"/>
        <pt x="466" y="579" on="1"/>
        <pt x="415" y="579" on="0"/>
        <pt x="335" y="535" on="0"/>
        <pt x="281" y="462" on="0"/>
        <pt x="252" y="375" on="0"/>
        <pt x="252" y="331" on="1"/>
        <pt x="252" y="286" on="0"/>
        <pt x="285" y="209" on="0"/>
        <pt x="353" y="161" on="0"/>
      </contour>
    </TTGlyph>
    <TTGlyph name="Ohungarumlaut" xMin="57" yMin="-10" xMax="813" yMax="989">
      <contour>
        <pt x="455" y="809" on="1"/>
        <pt x="335" y="810" on="1"/>
        <pt x="410" y="989" on="1"/>
        <pt x="567" y="989" on="1"/>
      </contour>
      <contour>
        <pt x="659" y="809" on="1"/>
        <pt x="536" y="810" on="1"/>
        <pt x="621" y="989" on="1"/>
        <pt x="781" y="989" on="1"/>
      </contour>
      <contour>
        <pt x="397" y="-10" on="1"/>
        <pt x="310" y="-10" on="0"/>
        <pt x="182" y="45" on="0"/>
        <pt x="98" y="140" on="0"/>
        <pt x="57" y="261" on="0"/>
        <pt x="57" y="327" on="1"/>
        <pt x="57" y="403" on="0"/>
        <pt x="111" y="553" on="0"/>
        <pt x="217" y="676" on="0"/>
        <pt x="372" y="750" on="0"/>
        <pt x="473" y="750" on="1"/>
        <pt x="560" y="750" on="0"/>
        <pt x="688" y="695" on="0"/>
        <pt x="772" y="600" on="0"/>
        <pt x="813" y="479" on="0"/>
        <pt x="813" y="413" on="1"/>
        <pt x="813" y="337" on="0"/>
        <pt x="759" y="187" on="0"/>
        <pt x="653" y="64" on="0"/>
        <pt x="498" y="-10" on="0"/>
      </contour>
      <contour>
        <pt x="405" y="161" on="1"/>
        <pt x="456" y="161" on="0"/>
        <pt x="536" y="205" on="0"/>
        <pt x="590" y="278" on="0"/>
        <pt x="619" y="366" on="0"/>
        <pt x="619" y="409" on="1"/>
        <pt x="619" y="454" on="0"/>
        <pt x="586" y="532" on="0"/>
        <pt x="519" y="579" on="0"/>
        <pt x="466" y="579" on="1"/>
        <pt x="415" y="579" on="0"/>
        <pt x="335" y="535" on="0"/>
        <pt x="281" y="462" on="0"/>
        <pt x="252" y="375" on="0"/>
        <pt x="252" y="331" on="1"/>
        <pt x="252" y="286" on="0"/>
        <pt x="285" y="209" on="0"/>
        <pt x="353" y="161" on="0"/>
      </contour>
    </TTGlyph>
    <TTGlyph name="Omacron" xMin="57" yMin="-10" xMax="813" yMax="925">
      <contour>
        <pt x="330" y="823" on="1"/>
        <pt x="352" y="925" on="1"/>
        <pt x="692" y="925" on="1"/>
        <pt x="670" y="823" on="1"/>
      </contour>
      <contour>
        <pt x="397" y="-10" on="1"/>
        <pt x="310" y="-10" on="0"/>
        <pt x="182" y="45" on="0"/>
        <pt x="98" y="140" on="0"/>
        <pt x="57" y="261" on="0"/>
        <pt x="57" y="327" on="1"/>
        <pt x="57" y="403" on="0"/>
        <pt x="111" y="553" on="0"/>
        <pt x="217" y="676" on="0"/>
        <pt x="372" y="750" on="0"/>
        <pt x="473" y="750" on="1"/>
        <pt x="560" y="750" on="0"/>
        <pt x="688" y="695" on="0"/>
        <pt x="772" y="600" on="0"/>
        <pt x="813" y="479" on="0"/>
        <pt x="813" y="413" on="1"/>
        <pt x="813" y="337" on="0"/>
        <pt x="759" y="187" on="0"/>
        <pt x="653" y="64" on="0"/>
        <pt x="498" y="-10" on="0"/>
      </contour>
      <contour>
        <pt x="405" y="161" on="1"/>
        <pt x="456" y="161" on="0"/>
        <pt x="536" y="205" on="0"/>
        <pt x="590" y="278" on="0"/>
        <pt x="619" y="366" on="0"/>
        <pt x="619" y="409" on="1"/>
        <pt x="619" y="454" on="0"/>
        <pt x="586" y="532" on="0"/>
        <pt x="519" y="579" on="0"/>
        <pt x="466" y="579" on="1"/>
        <pt x="415" y="579" on="0"/>
        <pt x="335" y="535" on="0"/>
        <pt x="281" y="462" on="0"/>
        <pt x="252" y="375" on="0"/>
        <pt x="252" y="331" on="1"/>
        <pt x="252" y="286" on="0"/>
        <pt x="285" y="209" on="0"/>
        <pt x="353" y="161" on="0"/>
      </contour>
    </TTGlyph>
    <TTGlyph name="Oslash" xMin="9" yMin="-24" xMax="861" yMax="763">
      <contour>
        <pt x="9" y="-24" on="1"/>
        <pt x="124" y="111" on="1"/>
        <pt x="90" y="156" on="0"/>
        <pt x="57" y="267" on="0"/>
        <pt x="57" y="326" on="1"/>
        <pt x="57" y="402" on="0"/>
        <pt x="111" y="552" on="0"/>
        <pt x="217" y="675" on="0"/>
        <pt x="372" y="749" on="0"/>
        <pt x="473" y="749" on="1"/>
        <pt x="522" y="749" on="0"/>
        <pt x="604" y="731" on="0"/>
        <pt x="639" y="714" on="1"/>
        <pt x="680" y="763" on="1"/>
        <pt x="861" y="763" on="1"/>
        <pt x="745" y="627" on="1"/>
        <pt x="780" y="582" on="0"/>
        <pt x="813" y="471" on="0"/>
        <pt x="813" y="412" on="1"/>
        <pt x="813" y="336" on="0"/>
        <pt x="759" y="186" on="0"/>
        <pt x="653" y="63" on="0"/>
        <pt x="498" y="-11" on="0"/>
        <pt x="397" y="-11" on="1"/>
        <pt x="348" y="-11" on="0"/>
        <pt x="265" y="7" on="0"/>
        <pt x="231" y="24" on="1"/>
        <pt x="190" y="-24" on="1"/>
      </contour>
      <contour>
        <pt x="252" y="330" on="1"/>
        <pt x="252" y="298" on="0"/>
        <pt x="260" y="270" on="1"/>
        <pt x="516" y="571" on="1"/>
        <pt x="493" y="578" on="0"/>
        <pt x="466" y="578" on="1"/>
        <pt x="415" y="578" on="0"/>
        <pt x="335" y="534" on="0"/>
        <pt x="281" y="461" on="0"/>
        <pt x="252" y="374" on="0"/>
      </contour>
      <contour>
        <pt x="405" y="160" on="1"/>
        <pt x="456" y="160" on="0"/>
        <pt x="536" y="204" on="0"/>
        <pt x="590" y="277" on="0"/>
        <pt x="619" y="365" on="0"/>
        <pt x="619" y="408" on="1"/>
        <pt x="619" y="441" on="0"/>
        <pt x="611" y="469" on="1"/>
        <pt x="353" y="168" on="1"/>
        <pt x="377" y="160" on="0"/>
      </contour>
    </TTGlyph>
    <TTGlyph name="Otilde" xMin="57" yMin="-10" xMax="813" yMax="987">
      <contour>
        <pt x="590" y="822" on="1"/>
        <pt x="563" y="822" on="0"/>
        <pt x="523" y="840" on="0"/>
        <pt x="493" y="863" on="0"/>
        <pt x="467" y="881" on="0"/>
        <pt x="454" y="881" on="1"/>
        <pt x="428" y="881" on="0"/>
        <pt x="417" y="828" on="1"/>
        <pt x="324" y="828" on="1"/>
        <pt x="333" y="868" on="0"/>
        <pt x="359" y="940" on="0"/>
        <pt x="411" y="987" on="0"/>
        <pt x="456" y="987" on="1"/>
        <pt x="493" y="987" on="0"/>
        <pt x="540" y="958" on="0"/>
        <pt x="575" y="928" on="0"/>
        <pt x="592" y="928" on="1"/>
        <pt x="606" y="928" on="0"/>
        <pt x="623" y="955" on="0"/>
        <pt x="629" y="981" on="1"/>
        <pt x="722" y="981" on="1"/>
        <pt x="714" y="942" on="0"/>
        <pt x="686" y="869" on="0"/>
        <pt x="635" y="822" on="0"/>
      </contour>
      <contour>
        <pt x="397" y="-10" on="1"/>
        <pt x="310" y="-10" on="0"/>
        <pt x="182" y="45" on="0"/>
        <pt x="98" y="140" on="0"/>
        <pt x="57" y="261" on="0"/>
        <pt x="57" y="327" on="1"/>
        <pt x="57" y="403" on="0"/>
        <pt x="111" y="553" on="0"/>
        <pt x="217" y="676" on="0"/>
        <pt x="372" y="750" on="0"/>
        <pt x="473" y="750" on="1"/>
        <pt x="560" y="750" on="0"/>
        <pt x="688" y="695" on="0"/>
        <pt x="772" y="600" on="0"/>
        <pt x="813" y="479" on="0"/>
        <pt x="813" y="413" on="1"/>
        <pt x="813" y="337" on="0"/>
        <pt x="759" y="187" on="0"/>
        <pt x="653" y="64" on="0"/>
        <pt x="498" y="-10" on="0"/>
      </contour>
      <contour>
        <pt x="405" y="161" on="1"/>
        <pt x="456" y="161" on="0"/>
        <pt x="536" y="205" on="0"/>
        <pt x="590" y="278" on="0"/>
        <pt x="619" y="366" on="0"/>
        <pt x="619" y="409" on="1"/>
        <pt x="619" y="454" on="0"/>
        <pt x="586" y="532" on="0"/>
        <pt x="519" y="579" on="0"/>
        <pt x="466" y="579" on="1"/>
        <pt x="415" y="579" on="0"/>
        <pt x="335" y="535" on="0"/>
        <pt x="281" y="462" on="0"/>
        <pt x="252" y="375" on="0"/>
        <pt x="252" y="331" on="1"/>
        <pt x="252" y="286" on="0"/>
        <pt x="285" y="209" on="0"/>
        <pt x="353" y="161" on="0"/>
      </contour>
    </TTGlyph>
    <TTGlyph name="P" xMin="2" yMin="0" xMax="721" yMax="740">
      <contour>
        <pt x="2" y="0" on="1"/>
        <pt x="159" y="740" on="1"/>
        <pt x="460" y="740" on="1"/>
        <pt x="549" y="740" on="0"/>
        <pt x="665" y="675" on="0"/>
        <pt x="721" y="571" on="0"/>
        <pt x="721" y="512" on="1"/>
        <pt x="721" y="463" on="0"/>
        <pt x="682" y="366" on="0"/>
        <pt x="605" y="286" on="0"/>
        <pt x="493" y="239" on="0"/>
        <pt x="420" y="239" on="1"/>
        <pt x="245" y="239" on="1"/>
        <pt x="194" y="0" on="1"/>
      </contour>
      <contour>
        <pt x="438" y="573" on="1"/>
        <pt x="316" y="573" on="1"/>
        <pt x="280" y="405" on="1"/>
        <pt x="428" y="405" on="1"/>
        <pt x="476" y="405" on="0"/>
        <pt x="528" y="463" on="0"/>
        <pt x="528" y="496" on="1"/>
        <pt x="528" y="526" on="0"/>
        <pt x="485" y="573" on="0"/>
      </contour>
    </TTGlyph>
    <TTGlyph name="Q" xMin="57" yMin="-10" xMax="813" yMax="750">
      <contour>
        <pt x="397" y="-10" on="1"/>
        <pt x="310" y="-10" on="0"/>
        <pt x="182" y="45" on="0"/>
        <pt x="98" y="140" on="0"/>
        <pt x="57" y="261" on="0"/>
        <pt x="57" y="327" on="1"/>
        <pt x="57" y="403" on="0"/>
        <pt x="111" y="553" on="0"/>
        <pt x="217" y="676" on="0"/>
        <pt x="372" y="750" on="0"/>
        <pt x="473" y="750" on="1"/>
        <pt x="560" y="750" on="0"/>
        <pt x="688" y="695" on="0"/>
        <pt x="772" y="600" on="0"/>
        <pt x="813" y="479" on="0"/>
        <pt x="813" y="413" on="1"/>
        <pt x="813" y="337" on="0"/>
        <pt x="759" y="187" on="0"/>
        <pt x="708" y="127" on="1"/>
        <pt x="794" y="0" on="1"/>
        <pt x="603" y="0" on="1"/>
        <pt x="581" y="30" on="1"/>
        <pt x="542" y="11" on="0"/>
        <pt x="449" y="-10" on="0"/>
      </contour>
      <contour>
        <pt x="405" y="161" on="1"/>
        <pt x="443" y="161" on="0"/>
        <pt x="478" y="175" on="1"/>
        <pt x="391" y="296" on="1"/>
        <pt x="529" y="390" on="1"/>
        <pt x="594" y="294" on="1"/>
        <pt x="619" y="350" on="0"/>
        <pt x="619" y="409" on="1"/>
        <pt x="619" y="454" on="0"/>
        <pt x="586" y="532" on="0"/>
        <pt x="519" y="579" on="0"/>
        <pt x="466" y="579" on="1"/>
        <pt x="415" y="579" on="0"/>
        <pt x="335" y="535" on="0"/>
        <pt x="281" y="462" on="0"/>
        <pt x="252" y="375" on="0"/>
        <pt x="252" y="331" on="1"/>
        <pt x="252" y="286" on="0"/>
        <pt x="285" y="209" on="0"/>
        <pt x="353" y="161" on="0"/>
      </contour>
    </TTGlyph>
    <TTGlyph name="R" xMin="2" yMin="0" xMax="731" yMax="740">
      <contour>
        <pt x="2" y="0" on="1"/>
        <pt x="159" y="740" on="1"/>
        <pt x="463" y="740" on="1"/>
        <pt x="554" y="740" on="0"/>
        <pt x="672" y="677" on="0"/>
        <pt x="731" y="576" on="0"/>
        <pt x="731" y="520" on="1"/>
        <pt x="731" y="471" on="0"/>
        <pt x="688" y="377" on="0"/>
        <pt x="605" y="303" on="0"/>
        <pt x="544" y="284" on="1"/>
        <pt x="630" y="0" on="1"/>
        <pt x="434" y="0" on="1"/>
        <pt x="357" y="268" on="1"/>
        <pt x="251" y="268" on="1"/>
        <pt x="194" y="0" on="1"/>
      </contour>
      <contour>
        <pt x="455" y="575" on="1"/>
        <pt x="316" y="575" on="1"/>
        <pt x="283" y="421" on="1"/>
        <pt x="443" y="421" on="1"/>
        <pt x="491" y="421" on="0"/>
        <pt x="541" y="473" on="0"/>
        <pt x="541" y="503" on="1"/>
        <pt x="541" y="531" on="0"/>
        <pt x="499" y="575" on="0"/>
      </contour>
    </TTGlyph>
    <TTGlyph name="Racute" xMin="2" yMin="0" xMax="731" yMax="989">
      <contour>
        <pt x="518" y="809" on="1"/>
        <pt x="385" y="810" on="1"/>
        <pt x="462" y="989" on="1"/>
        <pt x="632" y="989" on="1"/>
      </contour>
      <contour>
        <pt x="2" y="0" on="1"/>
        <pt x="159" y="740" on="1"/>
        <pt x="463" y="740" on="1"/>
        <pt x="554" y="740" on="0"/>
        <pt x="672" y="677" on="0"/>
        <pt x="731" y="576" on="0"/>
        <pt x="731" y="520" on="1"/>
        <pt x="731" y="471" on="0"/>
        <pt x="688" y="377" on="0"/>
        <pt x="605" y="303" on="0"/>
        <pt x="544" y="284" on="1"/>
        <pt x="630" y="0" on="1"/>
        <pt x="434" y="0" on="1"/>
        <pt x="357" y="268" on="1"/>
        <pt x="251" y="268" on="1"/>
        <pt x="194" y="0" on="1"/>
      </contour>
      <contour>
        <pt x="455" y="575" on="1"/>
        <pt x="316" y="575" on="1"/>
        <pt x="283" y="421" on="1"/>
        <pt x="443" y="421" on="1"/>
        <pt x="491" y="421" on="0"/>
        <pt x="541" y="473" on="0"/>
        <pt x="541" y="503" on="1"/>
        <pt x="541" y="531" on="0"/>
        <pt x="499" y="575" on="0"/>
      </contour>
    </TTGlyph>
    <TTGlyph name="Rcaron" xMin="2" yMin="0" xMax="731" yMax="989">
      <contour>
        <pt x="370" y="800" on="1"/>
        <pt x="275" y="989" on="1"/>
        <pt x="409" y="989" on="1"/>
        <pt x="454" y="887" on="1"/>
        <pt x="544" y="989" on="1"/>
        <pt x="692" y="989" on="1"/>
        <pt x="517" y="800" on="1"/>
      </contour>
      <contour>
        <pt x="2" y="0" on="1"/>
        <pt x="159" y="740" on="1"/>
        <pt x="463" y="740" on="1"/>
        <pt x="554" y="740" on="0"/>
        <pt x="672" y="677" on="0"/>
        <pt x="731" y="576" on="0"/>
        <pt x="731" y="520" on="1"/>
        <pt x="731" y="471" on="0"/>
        <pt x="688" y="377" on="0"/>
        <pt x="605" y="303" on="0"/>
        <pt x="544" y="284" on="1"/>
        <pt x="630" y="0" on="1"/>
        <pt x="434" y="0" on="1"/>
        <pt x="357" y="268" on="1"/>
        <pt x="251" y="268" on="1"/>
        <pt x="194" y="0" on="1"/>
      </contour>
      <contour>
        <pt x="455" y="575" on="1"/>
        <pt x="316" y="575" on="1"/>
        <pt x="283" y="421" on="1"/>
        <pt x="443" y="421" on="1"/>
        <pt x="491" y="421" on="0"/>
        <pt x="541" y="473" on="0"/>
        <pt x="541" y="503" on="1"/>
        <pt x="541" y="531" on="0"/>
        <pt x="499" y="575" on="0"/>
      </contour>
    </TTGlyph>
    <TTGlyph name="S" xMin="19" yMin="-10" xMax="708" yMax="750">
      <contour>
        <pt x="334" y="-10" on="1"/>
        <pt x="256" y="-10" on="0"/>
        <pt x="147" y="26" on="0"/>
        <pt x="78" y="82" on="0"/>
        <pt x="39" y="146" on="0"/>
        <pt x="23" y="202" on="0"/>
        <pt x="19" y="238" on="0"/>
        <pt x="19" y="238" on="1"/>
        <pt x="208" y="238" on="1"/>
        <pt x="208" y="238" on="0"/>
        <pt x="216" y="210" on="0"/>
        <pt x="242" y="172" on="0"/>
        <pt x="296" y="144" on="0"/>
        <pt x="342" y="144" on="1"/>
        <pt x="395" y="144" on="0"/>
        <pt x="454" y="187" on="0"/>
        <pt x="454" y="220" on="1"/>
        <pt x="454" y="268" on="0"/>
        <pt x="384" y="287" on="1"/>
        <pt x="304" y="309" on="1"/>
        <pt x="219" y="332" on="0"/>
        <pt x="111" y="432" on="0"/>
        <pt x="111" y="515" on="1"/>
        <pt x="111" y="578" on="0"/>
        <pt x="179" y="685" on="0"/>
        <pt x="311" y="750" on="0"/>
        <pt x="408" y="750" on="1"/>
        <pt x="479" y="750" on="0"/>
        <pt x="578" y="717" on="0"/>
        <pt x="644" y="664" on="0"/>
        <pt x="683" y="606" on="0"/>
        <pt x="702" y="553" on="0"/>
        <pt x="708" y="520" on="0"/>
        <pt x="708" y="520" on="1"/>
        <pt x="523" y="520" on="1"/>
        <pt x="523" y="520" on="0"/>
        <pt x="516" y="544" on="0"/>
        <pt x="494" y="576" on="0"/>
        <pt x="447" y="600" on="0"/>
        <pt x="408" y="600" on="1"/>
        <pt x="356" y="600" on="0"/>
        <pt x="301" y="557" on="0"/>
        <pt x="301" y="526" on="1"/>
        <pt x="301" y="500" on="0"/>
        <pt x="340" y="466" on="0"/>
        <pt x="375" y="456" on="1"/>
        <pt x="448" y="436" on="1"/>
        <pt x="543" y="410" on="0"/>
        <pt x="646" y="306" on="0"/>
        <pt x="646" y="229" on="1"/>
        <pt x="646" y="166" on="0"/>
        <pt x="575" y="57" on="0"/>
        <pt x="436" y="-10" on="0"/>
      </contour>
    </TTGlyph>
    <TTGlyph name="Sacute" xMin="19" yMin="-10" xMax="708" yMax="989">
      <contour>
        <pt x="541" y="809" on="1"/>
        <pt x="408" y="810" on="1"/>
        <pt x="485" y="989" on="1"/>
        <pt x="655" y="989" on="1"/>
      </contour>
      <contour>
        <pt x="334" y="-10" on="1"/>
        <pt x="256" y="-10" on="0"/>
        <pt x="147" y="26" on="0"/>
        <pt x="78" y="82" on="0"/>
        <pt x="39" y="146" on="0"/>
        <pt x="23" y="202" on="0"/>
        <pt x="19" y="238" on="0"/>
        <pt x="19" y="238" on="1"/>
        <pt x="208" y="238" on="1"/>
        <pt x="208" y="238" on="0"/>
        <pt x="216" y="210" on="0"/>
        <pt x="242" y="172" on="0"/>
        <pt x="296" y="144" on="0"/>
        <pt x="342" y="144" on="1"/>
        <pt x="395" y="144" on="0"/>
        <pt x="454" y="187" on="0"/>
        <pt x="454" y="220" on="1"/>
        <pt x="454" y="268" on="0"/>
        <pt x="384" y="287" on="1"/>
        <pt x="304" y="309" on="1"/>
        <pt x="219" y="332" on="0"/>
        <pt x="111" y="432" on="0"/>
        <pt x="111" y="515" on="1"/>
        <pt x="111" y="578" on="0"/>
        <pt x="179" y="685" on="0"/>
        <pt x="311" y="750" on="0"/>
        <pt x="408" y="750" on="1"/>
        <pt x="479" y="750" on="0"/>
        <pt x="578" y="717" on="0"/>
        <pt x="644" y="664" on="0"/>
        <pt x="683" y="606" on="0"/>
        <pt x="702" y="553" on="0"/>
        <pt x="708" y="520" on="0"/>
        <pt x="708" y="520" on="1"/>
        <pt x="523" y="520" on="1"/>
        <pt x="523" y="520" on="0"/>
        <pt x="516" y="544" on="0"/>
        <pt x="494" y="576" on="0"/>
        <pt x="447" y="600" on="0"/>
        <pt x="408" y="600" on="1"/>
        <pt x="356" y="600" on="0"/>
        <pt x="301" y="557" on="0"/>
        <pt x="301" y="526" on="1"/>
        <pt x="301" y="500" on="0"/>
        <pt x="340" y="466" on="0"/>
        <pt x="375" y="456" on="1"/>
        <pt x="448" y="436" on="1"/>
        <pt x="543" y="410" on="0"/>
        <pt x="646" y="306" on="0"/>
        <pt x="646" y="229" on="1"/>
        <pt x="646" y="166" on="0"/>
        <pt x="575" y="57" on="0"/>
        <pt x="436" y="-10" on="0"/>
      </contour>
    </TTGlyph>
    <TTGlyph name="Scaron" xMin="19" yMin="-10" xMax="715" yMax="989">
      <contour>
        <pt x="393" y="800" on="1"/>
        <pt x="298" y="989" on="1"/>
        <pt x="432" y="989" on="1"/>
        <pt x="477" y="887" on="1"/>
        <pt x="567" y="989" on="1"/>
        <pt x="715" y="989" on="1"/>
        <pt x="540" y="800" on="1"/>
      </contour>
      <contour>
        <pt x="334" y="-10" on="1"/>
        <pt x="256" y="-10" on="0"/>
        <pt x="147" y="26" on="0"/>
        <pt x="78" y="82" on="0"/>
        <pt x="39" y="146" on="0"/>
        <pt x="23" y="202" on="0"/>
        <pt x="19" y="238" on="0"/>
        <pt x="19" y="238" on="1"/>
        <pt x="208" y="238" on="1"/>
        <pt x="208" y="238" on="0"/>
        <pt x="216" y="210" on="0"/>
        <pt x="242" y="172" on="0"/>
        <pt x="296" y="144" on="0"/>
        <pt x="342" y="144" on="1"/>
        <pt x="395" y="144" on="0"/>
        <pt x="454" y="187" on="0"/>
        <pt x="454" y="220" on="1"/>
        <pt x="454" y="268" on="0"/>
        <pt x="384" y="287" on="1"/>
        <pt x="304" y="309" on="1"/>
        <pt x="219" y="332" on="0"/>
        <pt x="111" y="432" on="0"/>
        <pt x="111" y="515" on="1"/>
        <pt x="111" y="578" on="0"/>
        <pt x="179" y="685" on="0"/>
        <pt x="311" y="750" on="0"/>
        <pt x="408" y="750" on="1"/>
        <pt x="479" y="750" on="0"/>
        <pt x="578" y="717" on="0"/>
        <pt x="644" y="664" on="0"/>
        <pt x="683" y="606" on="0"/>
        <pt x="702" y="553" on="0"/>
        <pt x="708" y="520" on="0"/>
        <pt x="708" y="520" on="1"/>
        <pt x="523" y="520" on="1"/>
        <pt x="523" y="520" on="0"/>
        <pt x="516" y="544" on="0"/>
        <pt x="494" y="576" on="0"/>
        <pt x="447" y="600" on="0"/>
        <pt x="408" y="600" on="1"/>
        <pt x="356" y="600" on="0"/>
        <pt x="301" y="557" on="0"/>
        <pt x="301" y="526" on="1"/>
        <pt x="301" y="500" on="0"/>
        <pt x="340" y="466" on="0"/>
        <pt x="375" y="456" on="1"/>
        <pt x="448" y="436" on="1"/>
        <pt x="543" y="410" on="0"/>
        <pt x="646" y="306" on="0"/>
        <pt x="646" y="229" on="1"/>
        <pt x="646" y="166" on="0"/>
        <pt x="575" y="57" on="0"/>
        <pt x="436" y="-10" on="0"/>
      </contour>
    </TTGlyph>
    <TTGlyph name="Scedilla" xMin="19" yMin="-263" xMax="708" yMax="750">
      <contour>
        <pt x="276" y="-263" on="1"/>
        <pt x="242" y="-263" on="0"/>
        <pt x="189" y="-255" on="0"/>
        <pt x="189" y="-255" on="1"/>
        <pt x="203" y="-159" on="1"/>
        <pt x="203" y="-159" on="0"/>
        <pt x="229" y="-162" on="0"/>
        <pt x="265" y="-165" on="0"/>
        <pt x="278" y="-165" on="1"/>
        <pt x="313" y="-165" on="0"/>
        <pt x="337" y="-144" on="0"/>
        <pt x="337" y="-131" on="1"/>
        <pt x="337" y="-120" on="0"/>
        <pt x="319" y="-104" on="0"/>
        <pt x="301" y="-104" on="1"/>
        <pt x="284" y="-104" on="0"/>
        <pt x="259" y="-116" on="0"/>
        <pt x="259" y="-116" on="1"/>
        <pt x="213" y="-58" on="1"/>
        <pt x="263" y="-5" on="1"/>
        <pt x="190" y="5" on="0"/>
        <pt x="98" y="60" on="0"/>
        <pt x="46" y="130" on="0"/>
        <pt x="24" y="195" on="0"/>
        <pt x="19" y="238" on="0"/>
        <pt x="19" y="238" on="1"/>
        <pt x="208" y="238" on="1"/>
        <pt x="208" y="238" on="0"/>
        <pt x="216" y="210" on="0"/>
        <pt x="242" y="172" on="0"/>
        <pt x="296" y="144" on="0"/>
        <pt x="342" y="144" on="1"/>
        <pt x="395" y="144" on="0"/>
        <pt x="454" y="187" on="0"/>
        <pt x="454" y="220" on="1"/>
        <pt x="454" y="268" on="0"/>
        <pt x="384" y="287" on="1"/>
        <pt x="304" y="309" on="1"/>
        <pt x="219" y="332" on="0"/>
        <pt x="111" y="432" on="0"/>
        <pt x="111" y="515" on="1"/>
        <pt x="111" y="578" on="0"/>
        <pt x="179" y="685" on="0"/>
        <pt x="311" y="750" on="0"/>
        <pt x="408" y="750" on="1"/>
        <pt x="479" y="750" on="0"/>
        <pt x="578" y="717" on="0"/>
        <pt x="644" y="664" on="0"/>
        <pt x="683" y="606" on="0"/>
        <pt x="702" y="553" on="0"/>
        <pt x="708" y="520" on="0"/>
        <pt x="708" y="520" on="1"/>
        <pt x="523" y="520" on="1"/>
        <pt x="523" y="520" on="0"/>
        <pt x="516" y="544" on="0"/>
        <pt x="494" y="576" on="0"/>
        <pt x="447" y="600" on="0"/>
        <pt x="408" y="600" on="1"/>
        <pt x="356" y="600" on="0"/>
        <pt x="301" y="557" on="0"/>
        <pt x="301" y="526" on="1"/>
        <pt x="301" y="500" on="0"/>
        <pt x="340" y="466" on="0"/>
        <pt x="375" y="456" on="1"/>
        <pt x="448" y="436" on="1"/>
        <pt x="543" y="410" on="0"/>
        <pt x="646" y="306" on="0"/>
        <pt x="646" y="229" on="1"/>
        <pt x="646" y="170" on="0"/>
        <pt x="584" y="67" on="0"/>
        <pt x="463" y="-2" on="0"/>
        <pt x="374" y="-9" on="1"/>
        <pt x="351" y="-32" on="1"/>
        <pt x="351" y="-32" on="1"/>
        <pt x="401" y="-32" on="0"/>
        <pt x="464" y="-91" on="0"/>
        <pt x="464" y="-133" on="1"/>
        <pt x="464" y="-164" on="0"/>
        <pt x="425" y="-224" on="0"/>
        <pt x="342" y="-263" on="0"/>
      </contour>
    </TTGlyph>
    <TTGlyph name="T" xMin="87" yMin="0" xMax="762" yMax="740">
      <contour>
        <pt x="191" y="0" on="1"/>
        <pt x="313" y="574" on="1"/>
        <pt x="87" y="574" on="1"/>
        <pt x="122" y="740" on="1"/>
        <pt x="762" y="740" on="1"/>
        <pt x="727" y="574" on="1"/>
        <pt x="505" y="574" on="1"/>
        <pt x="383" y="0" on="1"/>
      </contour>
    </TTGlyph>
    <TTGlyph name="Tbar" xMin="87" yMin="0" xMax="762" yMax="740">
      <contour>
        <pt x="191" y="0" on="1"/>
        <pt x="257" y="313" on="1"/>
        <pt x="92" y="313" on="1"/>
        <pt x="116" y="428" on="1"/>
        <pt x="282" y="428" on="1"/>
        <pt x="313" y="574" on="1"/>
        <pt x="87" y="574" on="1"/>
        <pt x="122" y="740" on="1"/>
        <pt x="762" y="740" on="1"/>
        <pt x="727" y="574" on="1"/>
        <pt x="505" y="574" on="1"/>
        <pt x="474" y="428" on="1"/>
        <pt x="648" y="428" on="1"/>
        <pt x="623" y="313" on="1"/>
        <pt x="449" y="313" on="1"/>
        <pt x="383" y="0" on="1"/>
      </contour>
    </TTGlyph>
    <TTGlyph name="Tcaron" xMin="87" yMin="0" xMax="762" yMax="989">
      <contour>
        <pt x="379" y="800" on="1"/>
        <pt x="284" y="989" on="1"/>
        <pt x="418" y="989" on="1"/>
        <pt x="463" y="887" on="1"/>
        <pt x="553" y="989" on="1"/>
        <pt x="701" y="989" on="1"/>
        <pt x="526" y="800" on="1"/>
      </contour>
      <contour>
        <pt x="191" y="0" on="1"/>
        <pt x="313" y="574" on="1"/>
        <pt x="87" y="574" on="1"/>
        <pt x="122" y="740" on="1"/>
        <pt x="762" y="740" on="1"/>
        <pt x="727" y="574" on="1"/>
        <pt x="505" y="574" on="1"/>
        <pt x="383" y="0" on="1"/>
      </contour>
    </TTGlyph>
    <TTGlyph name="Thorn" xMin="2" yMin="0" xMax="701" yMax="740">
      <contour>
        <pt x="2" y="0" on="1"/>
        <pt x="159" y="740" on="1"/>
        <pt x="351" y="740" on="1"/>
        <pt x="326" y="621" on="1"/>
        <pt x="440" y="621" on="1"/>
        <pt x="529" y="621" on="0"/>
        <pt x="645" y="556" on="0"/>
        <pt x="701" y="452" on="0"/>
        <pt x="701" y="393" on="1"/>
        <pt x="701" y="344" on="0"/>
        <pt x="662" y="247" on="0"/>
        <pt x="585" y="167" on="0"/>
        <pt x="473" y="120" on="0"/>
        <pt x="400" y="120" on="1"/>
        <pt x="219" y="120" on="1"/>
        <pt x="194" y="0" on="1"/>
      </contour>
      <contour>
        <pt x="418" y="454" on="1"/>
        <pt x="290" y="454" on="1"/>
        <pt x="255" y="286" on="1"/>
        <pt x="408" y="286" on="1"/>
        <pt x="456" y="286" on="0"/>
        <pt x="508" y="344" on="0"/>
        <pt x="508" y="377" on="1"/>
        <pt x="508" y="407" on="0"/>
        <pt x="465" y="454" on="0"/>
      </contour>
    </TTGlyph>
    <TTGlyph name="U" xMin="51" yMin="-10" xMax="775" yMax="740">
      <contour>
        <pt x="321" y="-10" on="1"/>
        <pt x="265" y="-10" on="0"/>
        <pt x="159" y="26" on="0"/>
        <pt x="81" y="104" on="0"/>
        <pt x="51" y="230" on="0"/>
        <pt x="70" y="320" on="1"/>
        <pt x="159" y="740" on="1"/>
        <pt x="351" y="740" on="1"/>
        <pt x="262" y="320" on="1"/>
        <pt x="247" y="249" on="0"/>
        <pt x="296" y="170" on="0"/>
        <pt x="355" y="170" on="1"/>
        <pt x="413" y="170" on="0"/>
        <pt x="478" y="247" on="0"/>
        <pt x="494" y="320" on="1"/>
        <pt x="583" y="740" on="1"/>
        <pt x="775" y="740" on="1"/>
        <pt x="682" y="300" on="1"/>
        <pt x="657" y="181" on="0"/>
        <pt x="551" y="45" on="0"/>
        <pt x="406" y="-10" on="0"/>
      </contour>
    </TTGlyph>
    <TTGlyph name="Uacute" xMin="51" yMin="-10" xMax="775" yMax="989">
      <contour>
        <pt x="558" y="809" on="1"/>
        <pt x="425" y="810" on="1"/>
        <pt x="502" y="989" on="1"/>
        <pt x="672" y="989" on="1"/>
      </contour>
      <contour>
        <pt x="321" y="-10" on="1"/>
        <pt x="265" y="-10" on="0"/>
        <pt x="159" y="26" on="0"/>
        <pt x="81" y="104" on="0"/>
        <pt x="51" y="230" on="0"/>
        <pt x="70" y="320" on="1"/>
        <pt x="159" y="740" on="1"/>
        <pt x="351" y="740" on="1"/>
        <pt x="262" y="320" on="1"/>
        <pt x="247" y="249" on="0"/>
        <pt x="296" y="170" on="0"/>
        <pt x="355" y="170" on="1"/>
        <pt x="413" y="170" on="0"/>
        <pt x="478" y="247" on="0"/>
        <pt x="494" y="320" on="1"/>
        <pt x="583" y="740" on="1"/>
        <pt x="775" y="740" on="1"/>
        <pt x="682" y="300" on="1"/>
        <pt x="657" y="181" on="0"/>
        <pt x="551" y="45" on="0"/>
        <pt x="406" y="-10" on="0"/>
      </contour>
    </TTGlyph>
    <TTGlyph name="Ucircumflex" xMin="51" yMin="-10" xMax="775" yMax="988">
      <contour>
        <pt x="271" y="799" on="1"/>
        <pt x="446" y="988" on="1"/>
        <pt x="593" y="988" on="1"/>
        <pt x="688" y="799" on="1"/>
        <pt x="554" y="799" on="1"/>
        <pt x="509" y="901" on="1"/>
        <pt x="419" y="799" on="1"/>
      </contour>
      <contour>
        <pt x="321" y="-10" on="1"/>
        <pt x="265" y="-10" on="0"/>
        <pt x="159" y="26" on="0"/>
        <pt x="81" y="104" on="0"/>
        <pt x="51" y="230" on="0"/>
        <pt x="70" y="320" on="1"/>
        <pt x="159" y="740" on="1"/>
        <pt x="351" y="740" on="1"/>
        <pt x="262" y="320" on="1"/>
        <pt x="247" y="249" on="0"/>
        <pt x="296" y="170" on="0"/>
        <pt x="355" y="170" on="1"/>
        <pt x="413" y="170" on="0"/>
        <pt x="478" y="247" on="0"/>
        <pt x="494" y="320" on="1"/>
        <pt x="583" y="740" on="1"/>
        <pt x="775" y="740" on="1"/>
        <pt x="682" y="300" on="1"/>
        <pt x="657" y="181" on="0"/>
        <pt x="551" y="45" on="0"/>
        <pt x="406" y="-10" on="0"/>
      </contour>
    </TTGlyph>
    <TTGlyph name="Udieresis" xMin="51" yMin="-10" xMax="775" yMax="983">
      <contour>
        <pt x="623" y="788" on="1"/>
        <pt x="578" y="788" on="0"/>
        <pt x="521" y="845" on="0"/>
        <pt x="521" y="885" on="1"/>
        <pt x="521" y="926" on="0"/>
        <pt x="578" y="983" on="0"/>
        <pt x="623" y="983" on="1"/>
        <pt x="667" y="983" on="0"/>
        <pt x="725" y="926" on="0"/>
        <pt x="725" y="885" on="1"/>
        <pt x="725" y="845" on="0"/>
        <pt x="667" y="788" on="0"/>
      </contour>
      <contour>
        <pt x="373" y="788" on="1"/>
        <pt x="328" y="788" on="0"/>
        <pt x="271" y="845" on="0"/>
        <pt x="271" y="885" on="1"/>
        <pt x="271" y="926" on="0"/>
        <pt x="328" y="983" on="0"/>
        <pt x="373" y="983" on="1"/>
        <pt x="417" y="983" on="0"/>
        <pt x="475" y="926" on="0"/>
        <pt x="475" y="885" on="1"/>
        <pt x="475" y="845" on="0"/>
        <pt x="417" y="788" on="0"/>
      </contour>
      <contour>
        <pt x="321" y="-10" on="1"/>
        <pt x="265" y="-10" on="0"/>
        <pt x="159" y="26" on="0"/>
        <pt x="81" y="104" on="0"/>
        <pt x="51" y="230" on="0"/>
        <pt x="70" y="320" on="1"/>
        <pt x="159" y="740" on="1"/>
        <pt x="351" y="740" on="1"/>
        <pt x="262" y="320" on="1"/>
        <pt x="247" y="249" on="0"/>
        <pt x="296" y="170" on="0"/>
        <pt x="355" y="170" on="1"/>
        <pt x="413" y="170" on="0"/>
        <pt x="478" y="247" on="0"/>
        <pt x="494" y="320" on="1"/>
        <pt x="583" y="740" on="1"/>
        <pt x="775" y="740" on="1"/>
        <pt x="682" y="300" on="1"/>
        <pt x="657" y="181" on="0"/>
        <pt x="551" y="45" on="0"/>
        <pt x="406" y="-10" on="0"/>
      </contour>
    </TTGlyph>
    <TTGlyph name="Ugrave" xMin="51" yMin="-10" xMax="775" yMax="989">
      <contour>
        <pt x="408" y="809" on="1"/>
        <pt x="304" y="989" on="1"/>
        <pt x="469" y="989" on="1"/>
        <pt x="536" y="810" on="1"/>
      </contour>
      <contour>
        <pt x="321" y="-10" on="1"/>
        <pt x="265" y="-10" on="0"/>
        <pt x="159" y="26" on="0"/>
        <pt x="81" y="104" on="0"/>
        <pt x="51" y="230" on="0"/>
        <pt x="70" y="320" on="1"/>
        <pt x="159" y="740" on="1"/>
        <pt x="351" y="740" on="1"/>
        <pt x="262" y="320" on="1"/>
        <pt x="247" y="249" on="0"/>
        <pt x="296" y="170" on="0"/>
        <pt x="355" y="170" on="1"/>
        <pt x="413" y="170" on="0"/>
        <pt x="478" y="247" on="0"/>
        <pt x="494" y="320" on="1"/>
        <pt x="583" y="740" on="1"/>
        <pt x="775" y="740" on="1"/>
        <pt x="682" y="300" on="1"/>
        <pt x="657" y="181" on="0"/>
        <pt x="551" y="45" on="0"/>
        <pt x="406" y="-10" on="0"/>
      </contour>
    </TTGlyph>
    <TTGlyph name="Uhorn" xMin="51" yMin="-10" xMax="930" yMax="858">
      <contour>
        <pt x="321" y="-10" on="1"/>
        <pt x="265" y="-10" on="0"/>
        <pt x="159" y="26" on="0"/>
        <pt x="81" y="104" on="0"/>
        <pt x="51" y="230" on="0"/>
        <pt x="70" y="320" on="1"/>
        <pt x="159" y="740" on="1"/>
        <pt x="351" y="740" on="1"/>
        <pt x="262" y="320" on="1"/>
        <pt x="247" y="249" on="0"/>
        <pt x="296" y="170" on="0"/>
        <pt x="355" y="170" on="1"/>
        <pt x="413" y="170" on="0"/>
        <pt x="478" y="247" on="0"/>
        <pt x="494" y="320" on="1"/>
        <pt x="562" y="642" on="1"/>
        <pt x="562" y="642" on="1"/>
        <pt x="583" y="740" on="1"/>
        <pt x="705" y="740" on="1"/>
        <pt x="747" y="740" on="0"/>
        <pt x="756" y="780" on="1"/>
        <pt x="773" y="858" on="1"/>
        <pt x="930" y="858" on="1"/>
        <pt x="907" y="751" on="1"/>
        <pt x="896" y="699" on="0"/>
        <pt x="832" y="642" on="0"/>
        <pt x="769" y="642" on="1"/>
        <pt x="754" y="642" on="1"/>
        <pt x="682" y="300" on="1"/>
        <pt x="657" y="181" on="0"/>
        <pt x="551" y="45" on="0"/>
        <pt x="406" y="-10" on="0"/>
      </contour>
    </TTGlyph>
    <TTGlyph name="Uhungarumlaut" xMin="51" yMin="-10" xMax="775" yMax="989">
      <contour>
        <pt x="438" y="809" on="1"/>
        <pt x="318" y="810" on="1"/>
        <pt x="393" y="989" on="1"/>
        <pt x="550" y="989" on="1"/>
      </contour>
      <contour>
        <pt x="642" y="809" on="1"/>
        <pt x="519" y="810" on="1"/>
        <pt x="604" y="989" on="1"/>
        <pt x="764" y="989" on="1"/>
      </contour>
      <contour>
        <pt x="321" y="-10" on="1"/>
        <pt x="265" y="-10" on="0"/>
        <pt x="159" y="26" on="0"/>
        <pt x="81" y="104" on="0"/>
        <pt x="51" y="230" on="0"/>
        <pt x="70" y="320" on="1"/>
        <pt x="159" y="740" on="1"/>
        <pt x="351" y="740" on="1"/>
        <pt x="262" y="320" on="1"/>
        <pt x="247" y="249" on="0"/>
        <pt x="296" y="170" on="0"/>
        <pt x="355" y="170" on="1"/>
        <pt x="413" y="170" on="0"/>
        <pt x="478" y="247" on="0"/>
        <pt x="494" y="320" on="1"/>
        <pt x="583" y="740" on="1"/>
        <pt x="775" y="740" on="1"/>
        <pt x="682" y="300" on="1"/>
        <pt x="657" y="181" on="0"/>
        <pt x="551" y="45" on="0"/>
        <pt x="406" y="-10" on="0"/>
      </contour>
    </TTGlyph>
    <TTGlyph name="Umacron" xMin="51" yMin="-10" xMax="775" yMax="925">
      <contour>
        <pt x="313" y="823" on="1"/>
        <pt x="335" y="925" on="1"/>
        <pt x="675" y="925" on="1"/>
        <pt x="653" y="823" on="1"/>
      </contour>
      <contour>
        <pt x="321" y="-10" on="1"/>
        <pt x="265" y="-10" on="0"/>
        <pt x="159" y="26" on="0"/>
        <pt x="81" y="104" on="0"/>
        <pt x="51" y="230" on="0"/>
        <pt x="70" y="320" on="1"/>
        <pt x="159" y="740" on="1"/>
        <pt x="351" y="740" on="1"/>
        <pt x="262" y="320" on="1"/>
        <pt x="247" y="249" on="0"/>
        <pt x="296" y="170" on="0"/>
        <pt x="355" y="170" on="1"/>
        <pt x="413" y="170" on="0"/>
        <pt x="478" y="247" on="0"/>
        <pt x="494" y="320" on="1"/>
        <pt x="583" y="740" on="1"/>
        <pt x="775" y="740" on="1"/>
        <pt x="682" y="300" on="1"/>
        <pt x="657" y="181" on="0"/>
        <pt x="551" y="45" on="0"/>
        <pt x="406" y="-10" on="0"/>
      </contour>
    </TTGlyph>
    <TTGlyph name="Uogonek" xMin="49" yMin="-198" xMax="775" yMax="740">
      <contour>
        <pt x="316" y="-198" on="1"/>
        <pt x="244" y="-198" on="0"/>
        <pt x="177" y="-144" on="0"/>
        <pt x="177" y="-103" on="1"/>
        <pt x="177" y="-66" on="0"/>
        <pt x="221" y="-17" on="0"/>
        <pt x="248" y="-2" on="1"/>
        <pt x="187" y="11" on="0"/>
        <pt x="91" y="86" on="0"/>
        <pt x="49" y="220" on="0"/>
        <pt x="70" y="320" on="1"/>
        <pt x="159" y="740" on="1"/>
        <pt x="351" y="740" on="1"/>
        <pt x="262" y="320" on="1"/>
        <pt x="247" y="249" on="0"/>
        <pt x="296" y="170" on="0"/>
        <pt x="355" y="170" on="1"/>
        <pt x="413" y="170" on="0"/>
        <pt x="478" y="247" on="0"/>
        <pt x="494" y="320" on="1"/>
        <pt x="583" y="740" on="1"/>
        <pt x="775" y="740" on="1"/>
        <pt x="682" y="300" on="1"/>
        <pt x="659" y="192" on="0"/>
        <pt x="568" y="61" on="0"/>
        <pt x="443" y="-1" on="0"/>
        <pt x="369" y="-8" on="1"/>
        <pt x="360" y="-12" on="0"/>
        <pt x="335" y="-28" on="0"/>
        <pt x="316" y="-50" on="0"/>
        <pt x="316" y="-64" on="1"/>
        <pt x="316" y="-77" on="0"/>
        <pt x="337" y="-94" on="0"/>
        <pt x="362" y="-94" on="1"/>
        <pt x="373" y="-94" on="0"/>
        <pt x="394" y="-91" on="0"/>
        <pt x="394" y="-91" on="1"/>
        <pt x="373" y="-193" on="1"/>
        <pt x="373" y="-193" on="0"/>
        <pt x="342" y="-198" on="0"/>
      </contour>
    </TTGlyph>
    <TTGlyph name="Uring" xMin="51" yMin="-10" xMax="775" yMax="1069">
      <contour>
        <pt x="507" y="788" on="1"/>
        <pt x="468" y="788" on="0"/>
        <pt x="404" y="826" on="0"/>
        <pt x="366" y="890" on="0"/>
        <pt x="366" y="929" on="1"/>
        <pt x="366" y="968" on="0"/>
        <pt x="404" y="1031" on="0"/>
        <pt x="468" y="1069" on="0"/>
        <pt x="507" y="1069" on="1"/>
        <pt x="546" y="1069" on="0"/>
        <pt x="610" y="1031" on="0"/>
        <pt x="648" y="968" on="0"/>
        <pt x="648" y="929" on="1"/>
        <pt x="648" y="890" on="0"/>
        <pt x="610" y="826" on="0"/>
        <pt x="546" y="788" on="0"/>
      </contour>
      <contour>
        <pt x="507" y="878" on="1"/>
        <pt x="528" y="878" on="0"/>
        <pt x="558" y="907" on="0"/>
        <pt x="558" y="929" on="1"/>
        <pt x="558" y="950" on="0"/>
        <pt x="528" y="979" on="0"/>
        <pt x="507" y="979" on="1"/>
        <pt x="486" y="979" on="0"/>
        <pt x="456" y="950" on="0"/>
        <pt x="456" y="929" on="1"/>
        <pt x="456" y="907" on="0"/>
        <pt x="486" y="878" on="0"/>
      </contour>
      <contour>
        <pt x="321" y="-10" on="1"/>
        <pt x="265" y="-10" on="0"/>
        <pt x="159" y="26" on="0"/>
        <pt x="81" y="104" on="0"/>
        <pt x="51" y="230" on="0"/>
        <pt x="70" y="320" on="1"/>
        <pt x="159" y="740" on="1"/>
        <pt x="351" y="740" on="1"/>
        <pt x="262" y="320" on="1"/>
        <pt x="247" y="249" on="0"/>
        <pt x="296" y="170" on="0"/>
        <pt x="355" y="170" on="1"/>
        <pt x="413" y="170" on="0"/>
        <pt x="478" y="247" on="0"/>
        <pt x="494" y="320" on="1"/>
        <pt x="583" y="740" on="1"/>
        <pt x="775" y="740" on="1"/>
        <pt x="682" y="300" on="1"/>
        <pt x="657" y="181" on="0"/>
        <pt x="551" y="45" on="0"/>
        <pt x="406" y="-10" on="0"/>
      </contour>
    </TTGlyph>
    <TTGlyph name="Utilde" xMin="51" yMin="-10" xMax="775" yMax="987">
      <contour>
        <pt x="573" y="822" on="1"/>
        <pt x="546" y="822" on="0"/>
        <pt x="506" y="840" on="0"/>
        <pt x="476" y="863" on="0"/>
        <pt x="450" y="881" on="0"/>
        <pt x="437" y="881" on="1"/>
        <pt x="411" y="881" on="0"/>
        <pt x="400" y="828" on="1"/>
        <pt x="307" y="828" on="1"/>
        <pt x="316" y="868" on="0"/>
        <pt x="342" y="940" on="0"/>
        <pt x="394" y="987" on="0"/>
        <pt x="439" y="987" on="1"/>
        <pt x="476" y="987" on="0"/>
        <pt x="523" y="958" on="0"/>
        <pt x="558" y="928" on="0"/>
        <pt x="575" y="928" on="1"/>
        <pt x="589" y="928" on="0"/>
        <pt x="606" y="955" on="0"/>
        <pt x="612" y="981" on="1"/>
        <pt x="705" y="981" on="1"/>
        <pt x="697" y="942" on="0"/>
        <pt x="669" y="869" on="0"/>
        <pt x="618" y="822" on="0"/>
      </contour>
      <contour>
        <pt x="321" y="-10" on="1"/>
        <pt x="265" y="-10" on="0"/>
        <pt x="159" y="26" on="0"/>
        <pt x="81" y="104" on="0"/>
        <pt x="51" y="230" on="0"/>
        <pt x="70" y="320" on="1"/>
        <pt x="159" y="740" on="1"/>
        <pt x="351" y="740" on="1"/>
        <pt x="262" y="320" on="1"/>
        <pt x="247" y="249" on="0"/>
        <pt x="296" y="170" on="0"/>
        <pt x="355" y="170" on="1"/>
        <pt x="413" y="170" on="0"/>
        <pt x="478" y="247" on="0"/>
        <pt x="494" y="320" on="1"/>
        <pt x="583" y="740" on="1"/>
        <pt x="775" y="740" on="1"/>
        <pt x="682" y="300" on="1"/>
        <pt x="657" y="181" on="0"/>
        <pt x="551" y="45" on="0"/>
        <pt x="406" y="-10" on="0"/>
      </contour>
    </TTGlyph>
    <TTGlyph name="V" xMin="107" yMin="0" xMax="858" yMax="740">
      <contour>
        <pt x="196" y="0" on="1"/>
        <pt x="107" y="740" on="1"/>
        <pt x="297" y="740" on="1"/>
        <pt x="354" y="179" on="1"/>
        <pt x="648" y="740" on="1"/>
        <pt x="858" y="740" on="1"/>
        <pt x="455" y="0" on="1"/>
      </contour>
    </TTGlyph>
    <TTGlyph name="W" xMin="117" yMin="0" xMax="1160" yMax="740">
      <contour>
        <pt x="136" y="0" on="1"/>
        <pt x="117" y="740" on="1"/>
        <pt x="299" y="740" on="1"/>
        <pt x="309" y="245" on="1"/>
        <pt x="530" y="740" on="1"/>
        <pt x="729" y="740" on="1"/>
        <pt x="743" y="244" on="1"/>
        <pt x="960" y="740" on="1"/>
        <pt x="1160" y="740" on="1"/>
        <pt x="827" y="0" on="1"/>
        <pt x="579" y="0" on="1"/>
        <pt x="568" y="416" on="1"/>
        <pt x="381" y="0" on="1"/>
      </contour>
    </TTGlyph>
    <TTGlyph name="Wacute" xMin="107" yMin="0" xMax="1150" yMax="989">
      <contour>
        <pt x="716" y="809" on="1"/>
        <pt x="583" y="810" on="1"/>
        <pt x="660" y="989" on="1"/>
        <pt x="830" y="989" on="1"/>
      </contour>
      <contour>
        <pt x="126" y="0" on="1"/>
        <pt x="107" y="740" on="1"/>
        <pt x="289" y="740" on="1"/>
        <pt x="299" y="245" on="1"/>
        <pt x="520" y="740" on="1"/>
        <pt x="719" y="740" on="1"/>
        <pt x="733" y="244" on="1"/>
        <pt x="950" y="740" on="1"/>
        <pt x="1150" y="740" on="1"/>
        <pt x="817" y="0" on="1"/>
        <pt x="569" y="0" on="1"/>
        <pt x="558" y="416" on="1"/>
        <pt x="371" y="0" on="1"/>
      </contour>
    </TTGlyph>
    <TTGlyph name="Wcircumflex" xMin="107" yMin="0" xMax="1150" yMax="988">
      <contour>
        <pt x="429" y="799" on="1"/>
        <pt x="604" y="988" on="1"/>
        <pt x="751" y="988" on="1"/>
        <pt x="846" y="799" on="1"/>
        <pt x="712" y="799" on="1"/>
        <pt x="667" y="901" on="1"/>
        <pt x="577" y="799" on="1"/>
      </contour>
      <contour>
        <pt x="126" y="0" on="1"/>
        <pt x="107" y="740" on="1"/>
        <pt x="289" y="740" on="1"/>
        <pt x="299" y="245" on="1"/>
        <pt x="520" y="740" on="1"/>
        <pt x="719" y="740" on="1"/>
        <pt x="733" y="244" on="1"/>
        <pt x="950" y="740" on="1"/>
        <pt x="1150" y="740" on="1"/>
        <pt x="817" y="0" on="1"/>
        <pt x="569" y="0" on="1"/>
        <pt x="558" y="416" on="1"/>
        <pt x="371" y="0" on="1"/>
      </contour>
    </TTGlyph>
    <TTGlyph name="Wdieresis" xMin="107" yMin="0" xMax="1150" yMax="983">
      <contour>
        <pt x="781" y="788" on="1"/>
        <pt x="736" y="788" on="0"/>
        <pt x="679" y="845" on="0"/>
        <pt x="679" y="885" on="1"/>
        <pt x="679" y="926" on="0"/>
        <pt x="736" y="983" on="0"/>
        <pt x="781" y="983" on="1"/>
        <pt x="825" y="983" on="0"/>
        <pt x="883" y="926" on="0"/>
        <pt x="883" y="885" on="1"/>
        <pt x="883" y="845" on="0"/>
        <pt x="825" y="788" on="0"/>
      </contour>
      <contour>
        <pt x="531" y="788" on="1"/>
        <pt x="486" y="788" on="0"/>
        <pt x="429" y="845" on="0"/>
        <pt x="429" y="885" on="1"/>
        <pt x="429" y="926" on="0"/>
        <pt x="486" y="983" on="0"/>
        <pt x="531" y="983" on="1"/>
        <pt x="575" y="983" on="0"/>
        <pt x="633" y="926" on="0"/>
        <pt x="633" y="885" on="1"/>
        <pt x="633" y="845" on="0"/>
        <pt x="575" y="788" on="0"/>
      </contour>
      <contour>
        <pt x="126" y="0" on="1"/>
        <pt x="107" y="740" on="1"/>
        <pt x="289" y="740" on="1"/>
        <pt x="299" y="245" on="1"/>
        <pt x="520" y="740" on="1"/>
        <pt x="719" y="740" on="1"/>
        <pt x="733" y="244" on="1"/>
        <pt x="950" y="740" on="1"/>
        <pt x="1150" y="740" on="1"/>
        <pt x="817" y="0" on="1"/>
        <pt x="569" y="0" on="1"/>
        <pt x="558" y="416" on="1"/>
        <pt x="371" y="0" on="1"/>
      </contour>
    </TTGlyph>
    <TTGlyph name="Wgrave" xMin="107" yMin="0" xMax="1150" yMax="989">
      <contour>
        <pt x="566" y="809" on="1"/>
        <pt x="462" y="989" on="1"/>
        <pt x="627" y="989" on="1"/>
        <pt x="694" y="810" on="1"/>
      </contour>
      <contour>
        <pt x="126" y="0" on="1"/>
        <pt x="107" y="740" on="1"/>
        <pt x="289" y="740" on="1"/>
        <pt x="299" y="245" on="1"/>
        <pt x="520" y="740" on="1"/>
        <pt x="719" y="740" on="1"/>
        <pt x="733" y="244" on="1"/>
        <pt x="950" y="740" on="1"/>
        <pt x="1150" y="740" on="1"/>
        <pt x="817" y="0" on="1"/>
        <pt x="569" y="0" on="1"/>
        <pt x="558" y="416" on="1"/>
        <pt x="371" y="0" on="1"/>
      </contour>
    </TTGlyph>
    <TTGlyph name="X" xMin="-21" yMin="0" xMax="875" yMax="740">
      <contour>
        <pt x="-21" y="0" on="1"/>
        <pt x="296" y="390" on="1"/>
        <pt x="161" y="740" on="1"/>
        <pt x="379" y="740" on="1"/>
        <pt x="456" y="514" on="1"/>
        <pt x="629" y="740" on="1"/>
        <pt x="875" y="740" on="1"/>
        <pt x="555" y="350" on="1"/>
        <pt x="694" y="0" on="1"/>
        <pt x="476" y="0" on="1"/>
        <pt x="398" y="227" on="1"/>
        <pt x="225" y="0" on="1"/>
      </contour>
    </TTGlyph>
    <TTGlyph name="Y" xMin="117" yMin="0" xMax="831" yMax="740">
      <contour>
        <pt x="221" y="0" on="1"/>
        <pt x="273" y="248" on="1"/>
        <pt x="117" y="740" on="1"/>
        <pt x="315" y="740" on="1"/>
        <pt x="399" y="443" on="1"/>
        <pt x="608" y="740" on="1"/>
        <pt x="831" y="740" on="1"/>
        <pt x="465" y="247" on="1"/>
        <pt x="413" y="0" on="1"/>
      </contour>
    </TTGlyph>
    <TTGlyph name="Yacute" xMin="117" yMin="0" xMax="831" yMax="989">
      <contour>
        <pt x="565" y="809" on="1"/>
        <pt x="432" y="810" on="1"/>
        <pt x="509" y="989" on="1"/>
        <pt x="679" y="989" on="1"/>
      </contour>
      <contour>
        <pt x="221" y="0" on="1"/>
        <pt x="273" y="248" on="1"/>
        <pt x="117" y="740" on="1"/>
        <pt x="315" y="740" on="1"/>
        <pt x="399" y="443" on="1"/>
        <pt x="608" y="740" on="1"/>
        <pt x="831" y="740" on="1"/>
        <pt x="465" y="247" on="1"/>
        <pt x="413" y="0" on="1"/>
      </contour>
    </TTGlyph>
    <TTGlyph name="Ycircumflex" xMin="117" yMin="0" xMax="831" yMax="988">
      <contour>
        <pt x="278" y="799" on="1"/>
        <pt x="453" y="988" on="1"/>
        <pt x="600" y="988" on="1"/>
        <pt x="695" y="799" on="1"/>
        <pt x="561" y="799" on="1"/>
        <pt x="516" y="901" on="1"/>
        <pt x="426" y="799" on="1"/>
      </contour>
      <contour>
        <pt x="221" y="0" on="1"/>
        <pt x="273" y="248" on="1"/>
        <pt x="117" y="740" on="1"/>
        <pt x="315" y="740" on="1"/>
        <pt x="399" y="443" on="1"/>
        <pt x="608" y="740" on="1"/>
        <pt x="831" y="740" on="1"/>
        <pt x="465" y="247" on="1"/>
        <pt x="413" y="0" on="1"/>
      </contour>
    </TTGlyph>
    <TTGlyph name="Ydieresis" xMin="117" yMin="0" xMax="831" yMax="983">
      <contour>
        <pt x="630" y="788" on="1"/>
        <pt x="585" y="788" on="0"/>
        <pt x="528" y="845" on="0"/>
        <pt x="528" y="885" on="1"/>
        <pt x="528" y="926" on="0"/>
        <pt x="585" y="983" on="0"/>
        <pt x="630" y="983" on="1"/>
        <pt x="674" y="983" on="0"/>
        <pt x="732" y="926" on="0"/>
        <pt x="732" y="885" on="1"/>
        <pt x="732" y="845" on="0"/>
        <pt x="674" y="788" on="0"/>
      </contour>
      <contour>
        <pt x="380" y="788" on="1"/>
        <pt x="335" y="788" on="0"/>
        <pt x="278" y="845" on="0"/>
        <pt x="278" y="885" on="1"/>
        <pt x="278" y="926" on="0"/>
        <pt x="335" y="983" on="0"/>
        <pt x="380" y="983" on="1"/>
        <pt x="424" y="983" on="0"/>
        <pt x="482" y="926" on="0"/>
        <pt x="482" y="885" on="1"/>
        <pt x="482" y="845" on="0"/>
        <pt x="424" y="788" on="0"/>
      </contour>
      <contour>
        <pt x="221" y="0" on="1"/>
        <pt x="273" y="248" on="1"/>
        <pt x="117" y="740" on="1"/>
        <pt x="315" y="740" on="1"/>
        <pt x="399" y="443" on="1"/>
        <pt x="608" y="740" on="1"/>
        <pt x="831" y="740" on="1"/>
        <pt x="465" y="247" on="1"/>
        <pt x="413" y="0" on="1"/>
      </contour>
    </TTGlyph>
    <TTGlyph name="Ygrave" xMin="117" yMin="0" xMax="831" yMax="989">
      <contour>
        <pt x="415" y="809" on="1"/>
        <pt x="311" y="989" on="1"/>
        <pt x="476" y="989" on="1"/>
        <pt x="543" y="810" on="1"/>
      </contour>
      <contour>
        <pt x="221" y="0" on="1"/>
        <pt x="273" y="248" on="1"/>
        <pt x="117" y="740" on="1"/>
        <pt x="315" y="740" on="1"/>
        <pt x="399" y="443" on="1"/>
        <pt x="608" y="740" on="1"/>
        <pt x="831" y="740" on="1"/>
        <pt x="465" y="247" on="1"/>
        <pt x="413" y="0" on="1"/>
      </contour>
    </TTGlyph>
    <TTGlyph name="Z" xMin="-1" yMin="0" xMax="748" yMax="740">
      <contour>
        <pt x="-1" y="0" on="1"/>
        <pt x="27" y="133" on="1"/>
        <pt x="440" y="574" on="1"/>
        <pt x="121" y="574" on="1"/>
        <pt x="156" y="740" on="1"/>
        <pt x="748" y="740" on="1"/>
        <pt x="720" y="608" on="1"/>
        <pt x="306" y="166" on="1"/>
        <pt x="627" y="166" on="1"/>
        <pt x="591" y="0" on="1"/>
      </contour>
    </TTGlyph>
    <TTGlyph name="Zacute" xMin="-1" yMin="0" xMax="748" yMax="989">
      <contour>
        <pt x="527" y="809" on="1"/>
        <pt x="394" y="810" on="1"/>
        <pt x="471" y="989" on="1"/>
        <pt x="641" y="989" on="1"/>
      </contour>
      <contour>
        <pt x="-1" y="0" on="1"/>
        <pt x="27" y="133" on="1"/>
        <pt x="440" y="574" on="1"/>
        <pt x="121" y="574" on="1"/>
        <pt x="156" y="740" on="1"/>
        <pt x="748" y="740" on="1"/>
        <pt x="720" y="608" on="1"/>
        <pt x="306" y="166" on="1"/>
        <pt x="627" y="166" on="1"/>
        <pt x="591" y="0" on="1"/>
      </contour>
    </TTGlyph>
    <TTGlyph name="Zcaron" xMin="-1" yMin="0" xMax="748" yMax="989">
      <contour>
        <pt x="379" y="800" on="1"/>
        <pt x="284" y="989" on="1"/>
        <pt x="418" y="989" on="1"/>
        <pt x="463" y="887" on="1"/>
        <pt x="553" y="989" on="1"/>
        <pt x="701" y="989" on="1"/>
        <pt x="526" y="800" on="1"/>
      </contour>
      <contour>
        <pt x="-1" y="0" on="1"/>
        <pt x="27" y="133" on="1"/>
        <pt x="440" y="574" on="1"/>
        <pt x="121" y="574" on="1"/>
        <pt x="156" y="740" on="1"/>
        <pt x="748" y="740" on="1"/>
        <pt x="720" y="608" on="1"/>
        <pt x="306" y="166" on="1"/>
        <pt x="627" y="166" on="1"/>
        <pt x="591" y="0" on="1"/>
      </contour>
    </TTGlyph>
    <TTGlyph name="Zdotaccent" xMin="-1" yMin="0" xMax="748" yMax="1000">
      <contour>
        <pt x="469" y="793" on="1"/>
        <pt x="422" y="793" on="0"/>
        <pt x="361" y="854" on="0"/>
        <pt x="361" y="896" on="1"/>
        <pt x="361" y="940" on="0"/>
        <pt x="422" y="1000" on="0"/>
        <pt x="469" y="1000" on="1"/>
        <pt x="516" y="1000" on="0"/>
        <pt x="578" y="940" on="0"/>
        <pt x="578" y="896" on="1"/>
        <pt x="578" y="854" on="0"/>
        <pt x="516" y="793" on="0"/>
      </contour>
      <contour>
        <pt x="-1" y="0" on="1"/>
        <pt x="27" y="133" on="1"/>
        <pt x="440" y="574" on="1"/>
        <pt x="121" y="574" on="1"/>
        <pt x="156" y="740" on="1"/>
        <pt x="748" y="740" on="1"/>
        <pt x="720" y="608" on="1"/>
        <pt x="306" y="166" on="1"/>
        <pt x="627" y="166" on="1"/>
        <pt x="591" y="0" on="1"/>
      </contour>
    </TTGlyph>
    <TTGlyph name="a" xMin="37" yMin="-10" xMax="664" yMax="540">
      <contour>
        <pt x="305" y="540" on="1"/>
        <pt x="349" y="540" on="0"/>
        <pt x="405" y="515" on="0"/>
        <pt x="438" y="483" on="0"/>
        <pt x="451" y="458" on="0"/>
        <pt x="451" y="458" on="1"/>
        <pt x="459" y="458" on="1"/>
        <pt x="474" y="530" on="1"/>
        <pt x="664" y="530" on="1"/>
        <pt x="554" y="0" on="1"/>
        <pt x="364" y="0" on="1"/>
        <pt x="376" y="58" on="1"/>
        <pt x="368" y="58" on="1"/>
        <pt x="368" y="58" on="0"/>
        <pt x="354" y="37" on="0"/>
        <pt x="322" y="11" on="0"/>
        <pt x="268" y="-10" on="0"/>
        <pt x="228" y="-10" on="1"/>
        <pt x="163" y="-10" on="0"/>
        <pt x="78" y="52" on="0"/>
        <pt x="37" y="154" on="0"/>
        <pt x="37" y="213" on="1"/>
        <pt x="37" y="270" on="0"/>
        <pt x="73" y="385" on="0"/>
        <pt x="142" y="482" on="0"/>
        <pt x="242" y="540" on="0"/>
      </contour>
      <contour>
        <pt x="351" y="389" on="1"/>
        <pt x="313" y="389" on="0"/>
        <pt x="258" y="342" on="0"/>
        <pt x="229" y="272" on="0"/>
        <pt x="229" y="237" on="1"/>
        <pt x="229" y="198" on="0"/>
        <pt x="268" y="141" on="0"/>
        <pt x="310" y="141" on="1"/>
        <pt x="348" y="141" on="0"/>
        <pt x="403" y="188" on="0"/>
        <pt x="432" y="258" on="0"/>
        <pt x="432" y="292" on="1"/>
        <pt x="432" y="331" on="0"/>
        <pt x="393" y="389" on="0"/>
      </contour>
    </TTGlyph>
    <TTGlyph name="a.ss01" xMin="11" yMin="-10" xMax="579" yMax="540">
      <contour>
        <pt x="319" y="60" on="1"/>
        <pt x="300" y="32" on="0"/>
        <pt x="231" y="-10" on="0"/>
        <pt x="173" y="-10" on="1"/>
        <pt x="98" y="-10" on="0"/>
        <pt x="11" y="68" on="0"/>
        <pt x="11" y="135" on="1"/>
        <pt x="11" y="206" on="0"/>
        <pt x="115" y="305" on="0"/>
        <pt x="217" y="312" on="1"/>
        <pt x="381" y="324" on="1"/>
        <pt x="384" y="337" on="1"/>
        <pt x="391" y="369" on="0"/>
        <pt x="357" y="407" on="0"/>
        <pt x="320" y="407" on="1"/>
        <pt x="290" y="407" on="0"/>
        <pt x="260" y="384" on="0"/>
        <pt x="251" y="361" on="0"/>
        <pt x="251" y="361" on="1"/>
        <pt x="75" y="361" on="1"/>
        <pt x="75" y="361" on="0"/>
        <pt x="86" y="397" on="0"/>
        <pt x="117" y="450" on="0"/>
        <pt x="175" y="504" on="0"/>
        <pt x="268" y="540" on="0"/>
        <pt x="336" y="540" on="1"/>
        <pt x="427" y="540" on="0"/>
        <pt x="537" y="474" on="0"/>
        <pt x="579" y="372" on="0"/>
        <pt x="567" y="318" on="1"/>
        <pt x="499" y="0" on="1"/>
        <pt x="313" y="0" on="1"/>
        <pt x="326" y="60" on="1"/>
      </contour>
      <contour>
        <pt x="200" y="158" on="1"/>
        <pt x="200" y="136" on="0"/>
        <pt x="231" y="113" on="0"/>
        <pt x="255" y="113" on="1"/>
        <pt x="290" y="113" on="0"/>
        <pt x="347" y="158" on="0"/>
        <pt x="356" y="201" on="1"/>
        <pt x="359" y="217" on="1"/>
        <pt x="258" y="209" on="1"/>
        <pt x="228" y="207" on="0"/>
        <pt x="200" y="178" on="0"/>
      </contour>
    </TTGlyph>
    <TTGlyph name="aacute" xMin="27" yMin="-10" xMax="654" yMax="779">
      <contour>
        <pt x="470" y="599" on="1"/>
        <pt x="337" y="600" on="1"/>
        <pt x="414" y="779" on="1"/>
        <pt x="584" y="779" on="1"/>
      </contour>
      <contour>
        <pt x="295" y="540" on="1"/>
        <pt x="339" y="540" on="0"/>
        <pt x="395" y="515" on="0"/>
        <pt x="428" y="483" on="0"/>
        <pt x="441" y="458" on="0"/>
        <pt x="441" y="458" on="1"/>
        <pt x="449" y="458" on="1"/>
        <pt x="464" y="530" on="1"/>
        <pt x="654" y="530" on="1"/>
        <pt x="544" y="0" on="1"/>
        <pt x="354" y="0" on="1"/>
        <pt x="366" y="58" on="1"/>
        <pt x="358" y="58" on="1"/>
        <pt x="358" y="58" on="0"/>
        <pt x="344" y="37" on="0"/>
        <pt x="312" y="11" on="0"/>
        <pt x="258" y="-10" on="0"/>
        <pt x="218" y="-10" on="1"/>
        <pt x="153" y="-10" on="0"/>
        <pt x="68" y="52" on="0"/>
        <pt x="27" y="154" on="0"/>
        <pt x="27" y="213" on="1"/>
        <pt x="27" y="270" on="0"/>
        <pt x="63" y="385" on="0"/>
        <pt x="132" y="482" on="0"/>
        <pt x="232" y="540" on="0"/>
      </contour>
      <contour>
        <pt x="341" y="389" on="1"/>
        <pt x="303" y="389" on="0"/>
        <pt x="248" y="342" on="0"/>
        <pt x="219" y="272" on="0"/>
        <pt x="219" y="237" on="1"/>
        <pt x="219" y="198" on="0"/>
        <pt x="258" y="141" on="0"/>
        <pt x="300" y="141" on="1"/>
        <pt x="338" y="141" on="0"/>
        <pt x="393" y="188" on="0"/>
        <pt x="422" y="258" on="0"/>
        <pt x="422" y="292" on="1"/>
        <pt x="422" y="331" on="0"/>
        <pt x="383" y="389" on="0"/>
      </contour>
    </TTGlyph>
    <TTGlyph name="aacute.ss01" xMin="11" yMin="-10" xMax="579" yMax="779">
      <contour>
        <pt x="447" y="599" on="1"/>
        <pt x="314" y="600" on="1"/>
        <pt x="391" y="779" on="1"/>
        <pt x="561" y="779" on="1"/>
      </contour>
      <contour>
        <pt x="319" y="60" on="1"/>
        <pt x="300" y="32" on="0"/>
        <pt x="231" y="-10" on="0"/>
        <pt x="173" y="-10" on="1"/>
        <pt x="98" y="-10" on="0"/>
        <pt x="11" y="68" on="0"/>
        <pt x="11" y="135" on="1"/>
        <pt x="11" y="206" on="0"/>
        <pt x="115" y="305" on="0"/>
        <pt x="217" y="312" on="1"/>
        <pt x="381" y="324" on="1"/>
        <pt x="384" y="337" on="1"/>
        <pt x="391" y="369" on="0"/>
        <pt x="357" y="407" on="0"/>
        <pt x="320" y="407" on="1"/>
        <pt x="290" y="407" on="0"/>
        <pt x="260" y="384" on="0"/>
        <pt x="251" y="361" on="0"/>
        <pt x="251" y="361" on="1"/>
        <pt x="75" y="361" on="1"/>
        <pt x="75" y="361" on="0"/>
        <pt x="86" y="397" on="0"/>
        <pt x="117" y="450" on="0"/>
        <pt x="175" y="504" on="0"/>
        <pt x="268" y="540" on="0"/>
        <pt x="336" y="540" on="1"/>
        <pt x="427" y="540" on="0"/>
        <pt x="537" y="474" on="0"/>
        <pt x="579" y="372" on="0"/>
        <pt x="567" y="318" on="1"/>
        <pt x="499" y="0" on="1"/>
        <pt x="313" y="0" on="1"/>
        <pt x="326" y="60" on="1"/>
      </contour>
      <contour>
        <pt x="200" y="158" on="1"/>
        <pt x="200" y="136" on="0"/>
        <pt x="231" y="113" on="0"/>
        <pt x="255" y="113" on="1"/>
        <pt x="290" y="113" on="0"/>
        <pt x="347" y="158" on="0"/>
        <pt x="356" y="201" on="1"/>
        <pt x="359" y="217" on="1"/>
        <pt x="258" y="209" on="1"/>
        <pt x="228" y="207" on="0"/>
        <pt x="200" y="178" on="0"/>
      </contour>
    </TTGlyph>
    <TTGlyph name="abreve" xMin="27" yMin="-10" xMax="654" yMax="778">
      <contour>
        <pt x="407" y="592" on="1"/>
        <pt x="347" y="592" on="0"/>
        <pt x="277" y="630" on="0"/>
        <pt x="245" y="685" on="0"/>
        <pt x="236" y="740" on="0"/>
        <pt x="238" y="778" on="0"/>
        <pt x="238" y="778" on="1"/>
        <pt x="357" y="778" on="1"/>
        <pt x="357" y="778" on="0"/>
        <pt x="355" y="754" on="0"/>
        <pt x="362" y="721" on="0"/>
        <pt x="387" y="697" on="0"/>
        <pt x="415" y="697" on="1"/>
        <pt x="442" y="697" on="0"/>
        <pt x="478" y="721" on="0"/>
        <pt x="499" y="754" on="0"/>
        <pt x="507" y="778" on="0"/>
        <pt x="507" y="778" on="1"/>
        <pt x="626" y="778" on="1"/>
        <pt x="626" y="778" on="0"/>
        <pt x="618" y="740" on="0"/>
        <pt x="595" y="685" on="0"/>
        <pt x="547" y="630" on="0"/>
        <pt x="467" y="592" on="0"/>
      </contour>
      <contour>
        <pt x="295" y="540" on="1"/>
        <pt x="339" y="540" on="0"/>
        <pt x="395" y="515" on="0"/>
        <pt x="428" y="483" on="0"/>
        <pt x="441" y="458" on="0"/>
        <pt x="441" y="458" on="1"/>
        <pt x="449" y="458" on="1"/>
        <pt x="464" y="530" on="1"/>
        <pt x="654" y="530" on="1"/>
        <pt x="544" y="0" on="1"/>
        <pt x="354" y="0" on="1"/>
        <pt x="366" y="58" on="1"/>
        <pt x="358" y="58" on="1"/>
        <pt x="358" y="58" on="0"/>
        <pt x="344" y="37" on="0"/>
        <pt x="312" y="11" on="0"/>
        <pt x="258" y="-10" on="0"/>
        <pt x="218" y="-10" on="1"/>
        <pt x="153" y="-10" on="0"/>
        <pt x="68" y="52" on="0"/>
        <pt x="27" y="154" on="0"/>
        <pt x="27" y="213" on="1"/>
        <pt x="27" y="270" on="0"/>
        <pt x="63" y="385" on="0"/>
        <pt x="132" y="482" on="0"/>
        <pt x="232" y="540" on="0"/>
      </contour>
      <contour>
        <pt x="341" y="389" on="1"/>
        <pt x="303" y="389" on="0"/>
        <pt x="248" y="342" on="0"/>
        <pt x="219" y="272" on="0"/>
        <pt x="219" y="237" on="1"/>
        <pt x="219" y="198" on="0"/>
        <pt x="258" y="141" on="0"/>
        <pt x="300" y="141" on="1"/>
        <pt x="338" y="141" on="0"/>
        <pt x="393" y="188" on="0"/>
        <pt x="422" y="258" on="0"/>
        <pt x="422" y="292" on="1"/>
        <pt x="422" y="331" on="0"/>
        <pt x="383" y="389" on="0"/>
      </contour>
    </TTGlyph>
    <TTGlyph name="abreve.ss01" xMin="11" yMin="-10" xMax="603" yMax="778">
      <contour>
        <pt x="384" y="592" on="1"/>
        <pt x="324" y="592" on="0"/>
        <pt x="254" y="630" on="0"/>
        <pt x="222" y="685" on="0"/>
        <pt x="213" y="740" on="0"/>
        <pt x="215" y="778" on="0"/>
        <pt x="215" y="778" on="1"/>
        <pt x="334" y="778" on="1"/>
        <pt x="334" y="778" on="0"/>
        <pt x="332" y="754" on="0"/>
        <pt x="339" y="721" on="0"/>
        <pt x="364" y="697" on="0"/>
        <pt x="392" y="697" on="1"/>
        <pt x="419" y="697" on="0"/>
        <pt x="455" y="721" on="0"/>
        <pt x="476" y="754" on="0"/>
        <pt x="484" y="778" on="0"/>
        <pt x="484" y="778" on="1"/>
        <pt x="603" y="778" on="1"/>
        <pt x="603" y="778" on="0"/>
        <pt x="595" y="740" on="0"/>
        <pt x="572" y="685" on="0"/>
        <pt x="524" y="630" on="0"/>
        <pt x="444" y="592" on="0"/>
      </contour>
      <contour>
        <pt x="319" y="60" on="1"/>
        <pt x="300" y="32" on="0"/>
        <pt x="231" y="-10" on="0"/>
        <pt x="173" y="-10" on="1"/>
        <pt x="98" y="-10" on="0"/>
        <pt x="11" y="68" on="0"/>
        <pt x="11" y="135" on="1"/>
        <pt x="11" y="206" on="0"/>
        <pt x="115" y="305" on="0"/>
        <pt x="217" y="312" on="1"/>
        <pt x="381" y="324" on="1"/>
        <pt x="384" y="337" on="1"/>
        <pt x="391" y="369" on="0"/>
        <pt x="357" y="407" on="0"/>
        <pt x="320" y="407" on="1"/>
        <pt x="290" y="407" on="0"/>
        <pt x="260" y="384" on="0"/>
        <pt x="251" y="361" on="0"/>
        <pt x="251" y="361" on="1"/>
        <pt x="75" y="361" on="1"/>
        <pt x="75" y="361" on="0"/>
        <pt x="86" y="397" on="0"/>
        <pt x="117" y="450" on="0"/>
        <pt x="175" y="504" on="0"/>
        <pt x="268" y="540" on="0"/>
        <pt x="336" y="540" on="1"/>
        <pt x="427" y="540" on="0"/>
        <pt x="537" y="474" on="0"/>
        <pt x="579" y="372" on="0"/>
        <pt x="567" y="318" on="1"/>
        <pt x="499" y="0" on="1"/>
        <pt x="313" y="0" on="1"/>
        <pt x="326" y="60" on="1"/>
      </contour>
      <contour>
        <pt x="200" y="158" on="1"/>
        <pt x="200" y="136" on="0"/>
        <pt x="231" y="113" on="0"/>
        <pt x="255" y="113" on="1"/>
        <pt x="290" y="113" on="0"/>
        <pt x="347" y="158" on="0"/>
        <pt x="356" y="201" on="1"/>
        <pt x="359" y="217" on="1"/>
        <pt x="258" y="209" on="1"/>
        <pt x="228" y="207" on="0"/>
        <pt x="200" y="178" on="0"/>
      </contour>
    </TTGlyph>
    <TTGlyph name="acircumflex" xMin="27" yMin="-10" xMax="654" yMax="778">
      <contour>
        <pt x="183" y="589" on="1"/>
        <pt x="358" y="778" on="1"/>
        <pt x="505" y="778" on="1"/>
        <pt x="600" y="589" on="1"/>
        <pt x="466" y="589" on="1"/>
        <pt x="421" y="691" on="1"/>
        <pt x="331" y="589" on="1"/>
      </contour>
      <contour>
        <pt x="295" y="540" on="1"/>
        <pt x="339" y="540" on="0"/>
        <pt x="395" y="515" on="0"/>
        <pt x="428" y="483" on="0"/>
        <pt x="441" y="458" on="0"/>
        <pt x="441" y="458" on="1"/>
        <pt x="449" y="458" on="1"/>
        <pt x="464" y="530" on="1"/>
        <pt x="654" y="530" on="1"/>
        <pt x="544" y="0" on="1"/>
        <pt x="354" y="0" on="1"/>
        <pt x="366" y="58" on="1"/>
        <pt x="358" y="58" on="1"/>
        <pt x="358" y="58" on="0"/>
        <pt x="344" y="37" on="0"/>
        <pt x="312" y="11" on="0"/>
        <pt x="258" y="-10" on="0"/>
        <pt x="218" y="-10" on="1"/>
        <pt x="153" y="-10" on="0"/>
        <pt x="68" y="52" on="0"/>
        <pt x="27" y="154" on="0"/>
        <pt x="27" y="213" on="1"/>
        <pt x="27" y="270" on="0"/>
        <pt x="63" y="385" on="0"/>
        <pt x="132" y="482" on="0"/>
        <pt x="232" y="540" on="0"/>
      </contour>
      <contour>
        <pt x="341" y="389" on="1"/>
        <pt x="303" y="389" on="0"/>
        <pt x="248" y="342" on="0"/>
        <pt x="219" y="272" on="0"/>
        <pt x="219" y="237" on="1"/>
        <pt x="219" y="198" on="0"/>
        <pt x="258" y="141" on="0"/>
        <pt x="300" y="141" on="1"/>
        <pt x="338" y="141" on="0"/>
        <pt x="393" y="188" on="0"/>
        <pt x="422" y="258" on="0"/>
        <pt x="422" y="292" on="1"/>
        <pt x="422" y="331" on="0"/>
        <pt x="383" y="389" on="0"/>
      </contour>
    </TTGlyph>
    <TTGlyph name="acircumflex.ss01" xMin="11" yMin="-10" xMax="579" yMax="778">
      <contour>
        <pt x="160" y="589" on="1"/>
        <pt x="335" y="778" on="1"/>
        <pt x="482" y="778" on="1"/>
        <pt x="577" y="589" on="1"/>
        <pt x="443" y="589" on="1"/>
        <pt x="398" y="691" on="1"/>
        <pt x="308" y="589" on="1"/>
      </contour>
      <contour>
        <pt x="319" y="60" on="1"/>
        <pt x="300" y="32" on="0"/>
        <pt x="231" y="-10" on="0"/>
        <pt x="173" y="-10" on="1"/>
        <pt x="98" y="-10" on="0"/>
        <pt x="11" y="68" on="0"/>
        <pt x="11" y="135" on="1"/>
        <pt x="11" y="206" on="0"/>
        <pt x="115" y="305" on="0"/>
        <pt x="217" y="312" on="1"/>
        <pt x="381" y="324" on="1"/>
        <pt x="384" y="337" on="1"/>
        <pt x="391" y="369" on="0"/>
        <pt x="357" y="407" on="0"/>
        <pt x="320" y="407" on="1"/>
        <pt x="290" y="407" on="0"/>
        <pt x="260" y="384" on="0"/>
        <pt x="251" y="361" on="0"/>
        <pt x="251" y="361" on="1"/>
        <pt x="75" y="361" on="1"/>
        <pt x="75" y="361" on="0"/>
        <pt x="86" y="397" on="0"/>
        <pt x="117" y="450" on="0"/>
        <pt x="175" y="504" on="0"/>
        <pt x="268" y="540" on="0"/>
        <pt x="336" y="540" on="1"/>
        <pt x="427" y="540" on="0"/>
        <pt x="537" y="474" on="0"/>
        <pt x="579" y="372" on="0"/>
        <pt x="567" y="318" on="1"/>
        <pt x="499" y="0" on="1"/>
        <pt x="313" y="0" on="1"/>
        <pt x="326" y="60" on="1"/>
      </contour>
      <contour>
        <pt x="200" y="158" on="1"/>
        <pt x="200" y="136" on="0"/>
        <pt x="231" y="113" on="0"/>
        <pt x="255" y="113" on="1"/>
        <pt x="290" y="113" on="0"/>
        <pt x="347" y="158" on="0"/>
        <pt x="356" y="201" on="1"/>
        <pt x="359" y="217" on="1"/>
        <pt x="258" y="209" on="1"/>
        <pt x="228" y="207" on="0"/>
        <pt x="200" y="178" on="0"/>
      </contour>
    </TTGlyph>
    <TTGlyph name="acute" xMin="167" yMin="599" xMax="414" yMax="779">
      <contour>
        <pt x="300" y="599" on="1"/>
        <pt x="167" y="600" on="1"/>
        <pt x="244" y="779" on="1"/>
        <pt x="414" y="779" on="1"/>
      </contour>
    </TTGlyph>
    <TTGlyph name="acutecomb" xMin="127" yMin="599" xMax="374" yMax="779">
      <contour>
        <pt x="260" y="599" on="1"/>
        <pt x="127" y="600" on="1"/>
        <pt x="204" y="779" on="1"/>
        <pt x="374" y="779" on="1"/>
      </contour>
    </TTGlyph>
    <TTGlyph name="adieresis" xMin="27" yMin="-10" xMax="654" yMax="773">
      <contour>
        <pt x="535" y="578" on="1"/>
        <pt x="490" y="578" on="0"/>
        <pt x="433" y="635" on="0"/>
        <pt x="433" y="675" on="1"/>
        <pt x="433" y="716" on="0"/>
        <pt x="490" y="773" on="0"/>
        <pt x="535" y="773" on="1"/>
        <pt x="579" y="773" on="0"/>
        <pt x="637" y="716" on="0"/>
        <pt x="637" y="675" on="1"/>
        <pt x="637" y="635" on="0"/>
        <pt x="579" y="578" on="0"/>
      </contour>
      <contour>
        <pt x="285" y="578" on="1"/>
        <pt x="240" y="578" on="0"/>
        <pt x="183" y="635" on="0"/>
        <pt x="183" y="675" on="1"/>
        <pt x="183" y="716" on="0"/>
        <pt x="240" y="773" on="0"/>
        <pt x="285" y="773" on="1"/>
        <pt x="329" y="773" on="0"/>
        <pt x="387" y="716" on="0"/>
        <pt x="387" y="675" on="1"/>
        <pt x="387" y="635" on="0"/>
        <pt x="329" y="578" on="0"/>
      </contour>
      <contour>
        <pt x="295" y="540" on="1"/>
        <pt x="339" y="540" on="0"/>
        <pt x="395" y="515" on="0"/>
        <pt x="428" y="483" on="0"/>
        <pt x="441" y="458" on="0"/>
        <pt x="441" y="458" on="1"/>
        <pt x="449" y="458" on="1"/>
        <pt x="464" y="530" on="1"/>
        <pt x="654" y="530" on="1"/>
        <pt x="544" y="0" on="1"/>
        <pt x="354" y="0" on="1"/>
        <pt x="366" y="58" on="1"/>
        <pt x="358" y="58" on="1"/>
        <pt x="358" y="58" on="0"/>
        <pt x="344" y="37" on="0"/>
        <pt x="312" y="11" on="0"/>
        <pt x="258" y="-10" on="0"/>
        <pt x="218" y="-10" on="1"/>
        <pt x="153" y="-10" on="0"/>
        <pt x="68" y="52" on="0"/>
        <pt x="27" y="154" on="0"/>
        <pt x="27" y="213" on="1"/>
        <pt x="27" y="270" on="0"/>
        <pt x="63" y="385" on="0"/>
        <pt x="132" y="482" on="0"/>
        <pt x="232" y="540" on="0"/>
      </contour>
      <contour>
        <pt x="341" y="389" on="1"/>
        <pt x="303" y="389" on="0"/>
        <pt x="248" y="342" on="0"/>
        <pt x="219" y="272" on="0"/>
        <pt x="219" y="237" on="1"/>
        <pt x="219" y="198" on="0"/>
        <pt x="258" y="141" on="0"/>
        <pt x="300" y="141" on="1"/>
        <pt x="338" y="141" on="0"/>
        <pt x="393" y="188" on="0"/>
        <pt x="422" y="258" on="0"/>
        <pt x="422" y="292" on="1"/>
        <pt x="422" y="331" on="0"/>
        <pt x="383" y="389" on="0"/>
      </contour>
    </TTGlyph>
    <TTGlyph name="adieresis.ss01" xMin="11" yMin="-10" xMax="614" yMax="773">
      <contour>
        <pt x="512" y="578" on="1"/>
        <pt x="467" y="578" on="0"/>
        <pt x="410" y="635" on="0"/>
        <pt x="410" y="675" on="1"/>
        <pt x="410" y="716" on="0"/>
        <pt x="467" y="773" on="0"/>
        <pt x="512" y="773" on="1"/>
        <pt x="556" y="773" on="0"/>
        <pt x="614" y="716" on="0"/>
        <pt x="614" y="675" on="1"/>
        <pt x="614" y="635" on="0"/>
        <pt x="556" y="578" on="0"/>
      </contour>
      <contour>
        <pt x="262" y="578" on="1"/>
        <pt x="217" y="578" on="0"/>
        <pt x="160" y="635" on="0"/>
        <pt x="160" y="675" on="1"/>
        <pt x="160" y="716" on="0"/>
        <pt x="217" y="773" on="0"/>
        <pt x="262" y="773" on="1"/>
        <pt x="306" y="773" on="0"/>
        <pt x="364" y="716" on="0"/>
        <pt x="364" y="675" on="1"/>
        <pt x="364" y="635" on="0"/>
        <pt x="306" y="578" on="0"/>
      </contour>
      <contour>
        <pt x="319" y="60" on="1"/>
        <pt x="300" y="32" on="0"/>
        <pt x="231" y="-10" on="0"/>
        <pt x="173" y="-10" on="1"/>
        <pt x="98" y="-10" on="0"/>
        <pt x="11" y="68" on="0"/>
        <pt x="11" y="135" on="1"/>
        <pt x="11" y="206" on="0"/>
        <pt x="115" y="305" on="0"/>
        <pt x="217" y="312" on="1"/>
        <pt x="381" y="324" on="1"/>
        <pt x="384" y="337" on="1"/>
        <pt x="391" y="369" on="0"/>
        <pt x="357" y="407" on="0"/>
        <pt x="320" y="407" on="1"/>
        <pt x="290" y="407" on="0"/>
        <pt x="260" y="384" on="0"/>
        <pt x="251" y="361" on="0"/>
        <pt x="251" y="361" on="1"/>
        <pt x="75" y="361" on="1"/>
        <pt x="75" y="361" on="0"/>
        <pt x="86" y="397" on="0"/>
        <pt x="117" y="450" on="0"/>
        <pt x="175" y="504" on="0"/>
        <pt x="268" y="540" on="0"/>
        <pt x="336" y="540" on="1"/>
        <pt x="427" y="540" on="0"/>
        <pt x="537" y="474" on="0"/>
        <pt x="579" y="372" on="0"/>
        <pt x="567" y="318" on="1"/>
        <pt x="499" y="0" on="1"/>
        <pt x="313" y="0" on="1"/>
        <pt x="326" y="60" on="1"/>
      </contour>
      <contour>
        <pt x="200" y="158" on="1"/>
        <pt x="200" y="136" on="0"/>
        <pt x="231" y="113" on="0"/>
        <pt x="255" y="113" on="1"/>
        <pt x="290" y="113" on="0"/>
        <pt x="347" y="158" on="0"/>
        <pt x="356" y="201" on="1"/>
        <pt x="359" y="217" on="1"/>
        <pt x="258" y="209" on="1"/>
        <pt x="228" y="207" on="0"/>
        <pt x="200" y="178" on="0"/>
      </contour>
    </TTGlyph>
    <TTGlyph name="ae" xMin="12" yMin="-10" xMax="915" yMax="540">
      <contour>
        <pt x="197" y="-10" on="1"/>
        <pt x="114" y="-10" on="0"/>
        <pt x="12" y="68" on="0"/>
        <pt x="12" y="138" on="1"/>
        <pt x="12" y="208" on="0"/>
        <pt x="119" y="305" on="0"/>
        <pt x="218" y="312" on="1"/>
        <pt x="370" y="324" on="1"/>
        <pt x="376" y="343" on="1"/>
        <pt x="381" y="372" on="0"/>
        <pt x="346" y="407" on="0"/>
        <pt x="312" y="407" on="1"/>
        <pt x="281" y="407" on="0"/>
        <pt x="251" y="384" on="0"/>
        <pt x="242" y="361" on="0"/>
        <pt x="242" y="361" on="1"/>
        <pt x="66" y="361" on="1"/>
        <pt x="66" y="361" on="0"/>
        <pt x="78" y="397" on="0"/>
        <pt x="110" y="450" on="0"/>
        <pt x="166" y="504" on="0"/>
        <pt x="253" y="540" on="0"/>
        <pt x="315" y="540" on="1"/>
        <pt x="366" y="540" on="0"/>
        <pt x="431" y="517" on="0"/>
        <pt x="467" y="486" on="0"/>
        <pt x="481" y="463" on="0"/>
        <pt x="481" y="463" on="1"/>
        <pt x="487" y="463" on="1"/>
        <pt x="487" y="463" on="0"/>
        <pt x="509" y="486" on="0"/>
        <pt x="555" y="517" on="0"/>
        <pt x="627" y="540" on="0"/>
        <pt x="676" y="540" on="1"/>
        <pt x="747" y="540" on="0"/>
        <pt x="843" y="487" on="0"/>
        <pt x="899" y="400" on="0"/>
        <pt x="915" y="294" on="0"/>
        <pt x="906" y="240" on="1"/>
        <pt x="902" y="217" on="1"/>
        <pt x="544" y="217" on="1"/>
        <pt x="546" y="174" on="0"/>
        <pt x="590" y="126" on="0"/>
        <pt x="629" y="126" on="1"/>
        <pt x="660" y="126" on="0"/>
        <pt x="696" y="152" on="0"/>
        <pt x="712" y="177" on="0"/>
        <pt x="712" y="177" on="1"/>
        <pt x="890" y="177" on="1"/>
        <pt x="890" y="177" on="0"/>
        <pt x="875" y="139" on="0"/>
        <pt x="839" y="84" on="0"/>
        <pt x="777" y="28" on="0"/>
        <pt x="684" y="-10" on="0"/>
        <pt x="619" y="-10" on="1"/>
        <pt x="561" y="-10" on="0"/>
        <pt x="480" y="19" on="0"/>
        <pt x="431" y="57" on="0"/>
        <pt x="409" y="86" on="0"/>
        <pt x="409" y="86" on="1"/>
        <pt x="404" y="86" on="1"/>
        <pt x="404" y="86" on="0"/>
        <pt x="381" y="57" on="0"/>
        <pt x="331" y="19" on="0"/>
        <pt x="253" y="-10" on="0"/>
      </contour>
      <contour>
        <pt x="559" y="322" on="1"/>
        <pt x="739" y="322" on="1"/>
        <pt x="744" y="357" on="0"/>
        <pt x="703" y="404" on="0"/>
        <pt x="662" y="404" on="1"/>
        <pt x="623" y="404" on="0"/>
        <pt x="569" y="358" on="0"/>
      </contour>
      <contour>
        <pt x="254" y="113" on="1"/>
        <pt x="283" y="113" on="0"/>
        <pt x="339" y="157" on="0"/>
        <pt x="347" y="201" on="1"/>
        <pt x="350" y="217" on="1"/>
        <pt x="259" y="209" on="1"/>
        <pt x="231" y="207" on="0"/>
        <pt x="201" y="179" on="0"/>
        <pt x="201" y="158" on="1"/>
        <pt x="201" y="135" on="0"/>
        <pt x="234" y="113" on="0"/>
      </contour>
    </TTGlyph>
    <TTGlyph name="agrave" xMin="27" yMin="-10" xMax="654" yMax="779">
      <contour>
        <pt x="320" y="599" on="1"/>
        <pt x="216" y="779" on="1"/>
        <pt x="381" y="779" on="1"/>
        <pt x="448" y="600" on="1"/>
      </contour>
      <contour>
        <pt x="295" y="540" on="1"/>
        <pt x="339" y="540" on="0"/>
        <pt x="395" y="515" on="0"/>
        <pt x="428" y="483" on="0"/>
        <pt x="441" y="458" on="0"/>
        <pt x="441" y="458" on="1"/>
        <pt x="449" y="458" on="1"/>
        <pt x="464" y="530" on="1"/>
        <pt x="654" y="530" on="1"/>
        <pt x="544" y="0" on="1"/>
        <pt x="354" y="0" on="1"/>
        <pt x="366" y="58" on="1"/>
        <pt x="358" y="58" on="1"/>
        <pt x="358" y="58" on="0"/>
        <pt x="344" y="37" on="0"/>
        <pt x="312" y="11" on="0"/>
        <pt x="258" y="-10" on="0"/>
        <pt x="218" y="-10" on="1"/>
        <pt x="153" y="-10" on="0"/>
        <pt x="68" y="52" on="0"/>
        <pt x="27" y="154" on="0"/>
        <pt x="27" y="213" on="1"/>
        <pt x="27" y="270" on="0"/>
        <pt x="63" y="385" on="0"/>
        <pt x="132" y="482" on="0"/>
        <pt x="232" y="540" on="0"/>
      </contour>
      <contour>
        <pt x="341" y="389" on="1"/>
        <pt x="303" y="389" on="0"/>
        <pt x="248" y="342" on="0"/>
        <pt x="219" y="272" on="0"/>
        <pt x="219" y="237" on="1"/>
        <pt x="219" y="198" on="0"/>
        <pt x="258" y="141" on="0"/>
        <pt x="300" y="141" on="1"/>
        <pt x="338" y="141" on="0"/>
        <pt x="393" y="188" on="0"/>
        <pt x="422" y="258" on="0"/>
        <pt x="422" y="292" on="1"/>
        <pt x="422" y="331" on="0"/>
        <pt x="383" y="389" on="0"/>
      </contour>
    </TTGlyph>
    <TTGlyph name="agrave.ss01" xMin="11" yMin="-10" xMax="579" yMax="779">
      <contour>
        <pt x="297" y="599" on="1"/>
        <pt x="193" y="779" on="1"/>
        <pt x="358" y="779" on="1"/>
        <pt x="425" y="600" on="1"/>
      </contour>
      <contour>
        <pt x="319" y="60" on="1"/>
        <pt x="300" y="32" on="0"/>
        <pt x="231" y="-10" on="0"/>
        <pt x="173" y="-10" on="1"/>
        <pt x="98" y="-10" on="0"/>
        <pt x="11" y="68" on="0"/>
        <pt x="11" y="135" on="1"/>
        <pt x="11" y="206" on="0"/>
        <pt x="115" y="305" on="0"/>
        <pt x="217" y="312" on="1"/>
        <pt x="381" y="324" on="1"/>
        <pt x="384" y="337" on="1"/>
        <pt x="391" y="369" on="0"/>
        <pt x="357" y="407" on="0"/>
        <pt x="320" y="407" on="1"/>
        <pt x="290" y="407" on="0"/>
        <pt x="260" y="384" on="0"/>
        <pt x="251" y="361" on="0"/>
        <pt x="251" y="361" on="1"/>
        <pt x="75" y="361" on="1"/>
        <pt x="75" y="361" on="0"/>
        <pt x="86" y="397" on="0"/>
        <pt x="117" y="450" on="0"/>
        <pt x="175" y="504" on="0"/>
        <pt x="268" y="540" on="0"/>
        <pt x="336" y="540" on="1"/>
        <pt x="427" y="540" on="0"/>
        <pt x="537" y="474" on="0"/>
        <pt x="579" y="372" on="0"/>
        <pt x="567" y="318" on="1"/>
        <pt x="499" y="0" on="1"/>
        <pt x="313" y="0" on="1"/>
        <pt x="326" y="60" on="1"/>
      </contour>
      <contour>
        <pt x="200" y="158" on="1"/>
        <pt x="200" y="136" on="0"/>
        <pt x="231" y="113" on="0"/>
        <pt x="255" y="113" on="1"/>
        <pt x="290" y="113" on="0"/>
        <pt x="347" y="158" on="0"/>
        <pt x="356" y="201" on="1"/>
        <pt x="359" y="217" on="1"/>
        <pt x="258" y="209" on="1"/>
        <pt x="228" y="207" on="0"/>
        <pt x="200" y="178" on="0"/>
      </contour>
    </TTGlyph>
    <TTGlyph name="amacron" xMin="27" yMin="-10" xMax="654" yMax="755">
      <contour>
        <pt x="235" y="653" on="1"/>
        <pt x="257" y="755" on="1"/>
        <pt x="597" y="755" on="1"/>
        <pt x="575" y="653" on="1"/>
      </contour>
      <contour>
        <pt x="295" y="540" on="1"/>
        <pt x="339" y="540" on="0"/>
        <pt x="395" y="515" on="0"/>
        <pt x="428" y="483" on="0"/>
        <pt x="441" y="458" on="0"/>
        <pt x="441" y="458" on="1"/>
        <pt x="449" y="458" on="1"/>
        <pt x="464" y="530" on="1"/>
        <pt x="654" y="530" on="1"/>
        <pt x="544" y="0" on="1"/>
        <pt x="354" y="0" on="1"/>
        <pt x="366" y="58" on="1"/>
        <pt x="358" y="58" on="1"/>
        <pt x="358" y="58" on="0"/>
        <pt x="344" y="37" on="0"/>
        <pt x="312" y="11" on="0"/>
        <pt x="258" y="-10" on="0"/>
        <pt x="218" y="-10" on="1"/>
        <pt x="153" y="-10" on="0"/>
        <pt x="68" y="52" on="0"/>
        <pt x="27" y="154" on="0"/>
        <pt x="27" y="213" on="1"/>
        <pt x="27" y="270" on="0"/>
        <pt x="63" y="385" on="0"/>
        <pt x="132" y="482" on="0"/>
        <pt x="232" y="540" on="0"/>
      </contour>
      <contour>
        <pt x="341" y="389" on="1"/>
        <pt x="303" y="389" on="0"/>
        <pt x="248" y="342" on="0"/>
        <pt x="219" y="272" on="0"/>
        <pt x="219" y="237" on="1"/>
        <pt x="219" y="198" on="0"/>
        <pt x="258" y="141" on="0"/>
        <pt x="300" y="141" on="1"/>
        <pt x="338" y="141" on="0"/>
        <pt x="393" y="188" on="0"/>
        <pt x="422" y="258" on="0"/>
        <pt x="422" y="292" on="1"/>
        <pt x="422" y="331" on="0"/>
        <pt x="383" y="389" on="0"/>
      </contour>
    </TTGlyph>
    <TTGlyph name="amacron.ss01" xMin="11" yMin="-10" xMax="579" yMax="715">
      <contour>
        <pt x="202" y="613" on="1"/>
        <pt x="224" y="715" on="1"/>
        <pt x="564" y="715" on="1"/>
        <pt x="542" y="613" on="1"/>
      </contour>
      <contour>
        <pt x="319" y="60" on="1"/>
        <pt x="300" y="32" on="0"/>
        <pt x="231" y="-10" on="0"/>
        <pt x="173" y="-10" on="1"/>
        <pt x="98" y="-10" on="0"/>
        <pt x="11" y="68" on="0"/>
        <pt x="11" y="135" on="1"/>
        <pt x="11" y="206" on="0"/>
        <pt x="115" y="305" on="0"/>
        <pt x="217" y="312" on="1"/>
        <pt x="381" y="324" on="1"/>
        <pt x="384" y="337" on="1"/>
        <pt x="391" y="369" on="0"/>
        <pt x="357" y="407" on="0"/>
        <pt x="320" y="407" on="1"/>
        <pt x="290" y="407" on="0"/>
        <pt x="260" y="384" on="0"/>
        <pt x="251" y="361" on="0"/>
        <pt x="251" y="361" on="1"/>
        <pt x="75" y="361" on="1"/>
        <pt x="75" y="361" on="0"/>
        <pt x="86" y="397" on="0"/>
        <pt x="117" y="450" on="0"/>
        <pt x="175" y="504" on="0"/>
        <pt x="268" y="540" on="0"/>
        <pt x="336" y="540" on="1"/>
        <pt x="427" y="540" on="0"/>
        <pt x="537" y="474" on="0"/>
        <pt x="579" y="372" on="0"/>
        <pt x="567" y="318" on="1"/>
        <pt x="499" y="0" on="1"/>
        <pt x="313" y="0" on="1"/>
        <pt x="326" y="60" on="1"/>
      </contour>
      <contour>
        <pt x="200" y="158" on="1"/>
        <pt x="200" y="136" on="0"/>
        <pt x="231" y="113" on="0"/>
        <pt x="255" y="113" on="1"/>
        <pt x="290" y="113" on="0"/>
        <pt x="347" y="158" on="0"/>
        <pt x="356" y="201" on="1"/>
        <pt x="359" y="217" on="1"/>
        <pt x="258" y="209" on="1"/>
        <pt x="228" y="207" on="0"/>
        <pt x="200" y="178" on="0"/>
      </contour>
    </TTGlyph>
    <TTGlyph name="ampersand" xMin="14" yMin="-11" xMax="710" yMax="750">
      <contour>
        <pt x="270" y="-11" on="1"/>
        <pt x="204" y="-11" on="0"/>
        <pt x="87" y="35" on="0"/>
        <pt x="14" y="127" on="0"/>
        <pt x="14" y="195" on="1"/>
        <pt x="14" y="247" on="0"/>
        <pt x="59" y="329" on="0"/>
        <pt x="134" y="391" on="0"/>
        <pt x="180" y="415" on="1"/>
        <pt x="161" y="447" on="0"/>
        <pt x="138" y="514" on="0"/>
        <pt x="138" y="551" on="1"/>
        <pt x="138" y="613" on="0"/>
        <pt x="200" y="702" on="0"/>
        <pt x="302" y="750" on="0"/>
        <pt x="362" y="750" on="1"/>
        <pt x="416" y="750" on="0"/>
        <pt x="514" y="710" on="0"/>
        <pt x="576" y="632" on="0"/>
        <pt x="576" y="575" on="1"/>
        <pt x="576" y="524" on="0"/>
        <pt x="526" y="452" on="0"/>
        <pt x="449" y="402" on="0"/>
        <pt x="409" y="384" on="1"/>
        <pt x="491" y="279" on="1"/>
        <pt x="505" y="308" on="0"/>
        <pt x="524" y="378" on="0"/>
        <pt x="528" y="418" on="1"/>
        <pt x="677" y="418" on="1"/>
        <pt x="669" y="336" on="0"/>
        <pt x="622" y="206" on="0"/>
        <pt x="587" y="156" on="1"/>
        <pt x="710" y="0" on="1"/>
        <pt x="490" y="0" on="1"/>
        <pt x="460" y="40" on="1"/>
        <pt x="415" y="14" on="0"/>
        <pt x="318" y="-11" on="0"/>
      </contour>
      <contour>
        <pt x="297" y="564" on="1"/>
        <pt x="297" y="542" on="0"/>
        <pt x="318" y="501" on="0"/>
        <pt x="333" y="480" on="1"/>
        <pt x="364" y="493" on="0"/>
        <pt x="420" y="536" on="0"/>
        <pt x="420" y="572" on="1"/>
        <pt x="420" y="601" on="0"/>
        <pt x="384" y="629" on="0"/>
        <pt x="362" y="629" on="1"/>
        <pt x="338" y="629" on="0"/>
        <pt x="297" y="596" on="0"/>
      </contour>
      <contour>
        <pt x="189" y="221" on="1"/>
        <pt x="189" y="178" on="0"/>
        <pt x="251" y="132" on="0"/>
        <pt x="295" y="132" on="1"/>
        <pt x="335" y="132" on="0"/>
        <pt x="375" y="153" on="1"/>
        <pt x="288" y="268" on="1"/>
        <pt x="279" y="280" on="0"/>
        <pt x="261" y="303" on="0"/>
        <pt x="252" y="315" on="1"/>
        <pt x="219" y="295" on="0"/>
        <pt x="189" y="248" on="0"/>
      </contour>
    </TTGlyph>
    <TTGlyph name="aogonek" xMin="27" yMin="-194" xMax="654" yMax="540">
      <contour>
        <pt x="482" y="-194" on="1"/>
        <pt x="410" y="-194" on="0"/>
        <pt x="343" y="-140" on="0"/>
        <pt x="343" y="-99" on="1"/>
        <pt x="343" y="-63" on="0"/>
        <pt x="385" y="-15" on="0"/>
        <pt x="411" y="0" on="1"/>
        <pt x="354" y="0" on="1"/>
        <pt x="366" y="58" on="1"/>
        <pt x="358" y="58" on="1"/>
        <pt x="358" y="58" on="0"/>
        <pt x="344" y="37" on="0"/>
        <pt x="312" y="11" on="0"/>
        <pt x="258" y="-10" on="0"/>
        <pt x="218" y="-10" on="1"/>
        <pt x="153" y="-10" on="0"/>
        <pt x="68" y="52" on="0"/>
        <pt x="27" y="154" on="0"/>
        <pt x="27" y="213" on="1"/>
        <pt x="27" y="270" on="0"/>
        <pt x="63" y="385" on="0"/>
        <pt x="132" y="482" on="0"/>
        <pt x="232" y="540" on="0"/>
        <pt x="295" y="540" on="1"/>
        <pt x="339" y="540" on="0"/>
        <pt x="395" y="515" on="0"/>
        <pt x="428" y="483" on="0"/>
        <pt x="441" y="458" on="0"/>
        <pt x="441" y="458" on="1"/>
        <pt x="449" y="458" on="1"/>
        <pt x="464" y="530" on="1"/>
        <pt x="654" y="530" on="1"/>
        <pt x="544" y="0" on="1"/>
        <pt x="544" y="0" on="0"/>
        <pt x="513" y="-15" on="0"/>
        <pt x="482" y="-42" on="0"/>
        <pt x="482" y="-60" on="1"/>
        <pt x="482" y="-73" on="0"/>
        <pt x="503" y="-90" on="0"/>
        <pt x="528" y="-90" on="1"/>
        <pt x="539" y="-90" on="0"/>
        <pt x="560" y="-87" on="0"/>
        <pt x="560" y="-87" on="1"/>
        <pt x="539" y="-189" on="1"/>
        <pt x="539" y="-189" on="0"/>
        <pt x="508" y="-194" on="0"/>
      </contour>
      <contour>
        <pt x="341" y="389" on="1"/>
        <pt x="303" y="389" on="0"/>
        <pt x="248" y="342" on="0"/>
        <pt x="219" y="272" on="0"/>
        <pt x="219" y="237" on="1"/>
        <pt x="219" y="198" on="0"/>
        <pt x="258" y="141" on="0"/>
        <pt x="300" y="141" on="1"/>
        <pt x="338" y="141" on="0"/>
        <pt x="393" y="188" on="0"/>
        <pt x="422" y="258" on="0"/>
        <pt x="422" y="292" on="1"/>
        <pt x="422" y="331" on="0"/>
        <pt x="383" y="389" on="0"/>
      </contour>
    </TTGlyph>
    <TTGlyph name="aogonek.ss01" xMin="11" yMin="-194" xMax="579" yMax="540">
      <contour>
        <pt x="437" y="-194" on="1"/>
        <pt x="365" y="-194" on="0"/>
        <pt x="298" y="-140" on="0"/>
        <pt x="298" y="-99" on="1"/>
        <pt x="298" y="-63" on="0"/>
        <pt x="340" y="-15" on="0"/>
        <pt x="366" y="0" on="1"/>
        <pt x="313" y="0" on="1"/>
        <pt x="326" y="60" on="1"/>
        <pt x="319" y="60" on="1"/>
        <pt x="300" y="32" on="0"/>
        <pt x="231" y="-10" on="0"/>
        <pt x="173" y="-10" on="1"/>
        <pt x="98" y="-10" on="0"/>
        <pt x="11" y="68" on="0"/>
        <pt x="11" y="135" on="1"/>
        <pt x="11" y="206" on="0"/>
        <pt x="115" y="305" on="0"/>
        <pt x="217" y="312" on="1"/>
        <pt x="381" y="324" on="1"/>
        <pt x="384" y="337" on="1"/>
        <pt x="391" y="369" on="0"/>
        <pt x="357" y="407" on="0"/>
        <pt x="320" y="407" on="1"/>
        <pt x="290" y="407" on="0"/>
        <pt x="260" y="384" on="0"/>
        <pt x="251" y="361" on="0"/>
        <pt x="251" y="361" on="1"/>
        <pt x="75" y="361" on="1"/>
        <pt x="75" y="361" on="0"/>
        <pt x="86" y="397" on="0"/>
        <pt x="117" y="450" on="0"/>
        <pt x="175" y="504" on="0"/>
        <pt x="268" y="540" on="0"/>
        <pt x="336" y="540" on="1"/>
        <pt x="427" y="540" on="0"/>
        <pt x="537" y="474" on="0"/>
        <pt x="579" y="372" on="0"/>
        <pt x="567" y="318" on="1"/>
        <pt x="499" y="0" on="1"/>
        <pt x="499" y="0" on="0"/>
        <pt x="468" y="-15" on="0"/>
        <pt x="437" y="-42" on="0"/>
        <pt x="437" y="-60" on="1"/>
        <pt x="437" y="-73" on="0"/>
        <pt x="458" y="-90" on="0"/>
        <pt x="483" y="-90" on="1"/>
        <pt x="494" y="-90" on="0"/>
        <pt x="515" y="-87" on="0"/>
        <pt x="515" y="-87" on="1"/>
        <pt x="494" y="-189" on="1"/>
        <pt x="494" y="-189" on="0"/>
        <pt x="463" y="-194" on="0"/>
      </contour>
      <contour>
        <pt x="200" y="158" on="1"/>
        <pt x="200" y="136" on="0"/>
        <pt x="231" y="113" on="0"/>
        <pt x="255" y="113" on="1"/>
        <pt x="290" y="113" on="0"/>
        <pt x="347" y="158" on="0"/>
        <pt x="356" y="201" on="1"/>
        <pt x="359" y="217" on="1"/>
        <pt x="258" y="209" on="1"/>
        <pt x="228" y="207" on="0"/>
        <pt x="200" y="178" on="0"/>
      </contour>
    </TTGlyph>
    <TTGlyph name="approxequal" xMin="118" yMin="156" xMax="516" yMax="553">
      <contour>
        <pt x="384" y="388" on="1"/>
        <pt x="357" y="388" on="0"/>
        <pt x="317" y="406" on="0"/>
        <pt x="287" y="429" on="0"/>
        <pt x="261" y="447" on="0"/>
        <pt x="248" y="447" on="1"/>
        <pt x="222" y="447" on="0"/>
        <pt x="211" y="394" on="1"/>
        <pt x="118" y="394" on="1"/>
        <pt x="127" y="434" on="0"/>
        <pt x="153" y="506" on="0"/>
        <pt x="205" y="553" on="0"/>
        <pt x="250" y="553" on="1"/>
        <pt x="287" y="553" on="0"/>
        <pt x="334" y="524" on="0"/>
        <pt x="369" y="494" on="0"/>
        <pt x="386" y="494" on="1"/>
        <pt x="400" y="494" on="0"/>
        <pt x="417" y="521" on="0"/>
        <pt x="423" y="547" on="1"/>
        <pt x="516" y="547" on="1"/>
        <pt x="508" y="507" on="0"/>
        <pt x="480" y="435" on="0"/>
        <pt x="429" y="388" on="0"/>
      </contour>
      <contour>
        <pt x="384" y="156" on="1"/>
        <pt x="357" y="156" on="0"/>
        <pt x="317" y="174" on="0"/>
        <pt x="287" y="197" on="0"/>
        <pt x="261" y="215" on="0"/>
        <pt x="248" y="215" on="1"/>
        <pt x="222" y="215" on="0"/>
        <pt x="211" y="162" on="1"/>
        <pt x="118" y="162" on="1"/>
        <pt x="127" y="202" on="0"/>
        <pt x="153" y="274" on="0"/>
        <pt x="205" y="321" on="0"/>
        <pt x="250" y="321" on="1"/>
        <pt x="287" y="321" on="0"/>
        <pt x="334" y="292" on="0"/>
        <pt x="369" y="262" on="0"/>
        <pt x="386" y="262" on="1"/>
        <pt x="400" y="262" on="0"/>
        <pt x="417" y="289" on="0"/>
        <pt x="423" y="315" on="1"/>
        <pt x="516" y="315" on="1"/>
        <pt x="508" y="276" on="0"/>
        <pt x="480" y="203" on="0"/>
        <pt x="429" y="156" on="0"/>
      </contour>
    </TTGlyph>
    <TTGlyph name="aring" xMin="27" yMin="-10" xMax="654" yMax="859">
      <contour>
        <pt x="419" y="578" on="1"/>
        <pt x="380" y="578" on="0"/>
        <pt x="316" y="616" on="0"/>
        <pt x="278" y="680" on="0"/>
        <pt x="278" y="719" on="1"/>
        <pt x="278" y="758" on="0"/>
        <pt x="316" y="821" on="0"/>
        <pt x="380" y="859" on="0"/>
        <pt x="419" y="859" on="1"/>
        <pt x="458" y="859" on="0"/>
        <pt x="522" y="821" on="0"/>
        <pt x="560" y="758" on="0"/>
        <pt x="560" y="719" on="1"/>
        <pt x="560" y="680" on="0"/>
        <pt x="522" y="616" on="0"/>
        <pt x="458" y="578" on="0"/>
      </contour>
      <contour>
        <pt x="419" y="668" on="1"/>
        <pt x="440" y="668" on="0"/>
        <pt x="470" y="697" on="0"/>
        <pt x="470" y="719" on="1"/>
        <pt x="470" y="740" on="0"/>
        <pt x="440" y="769" on="0"/>
        <pt x="419" y="769" on="1"/>
        <pt x="398" y="769" on="0"/>
        <pt x="368" y="740" on="0"/>
        <pt x="368" y="719" on="1"/>
        <pt x="368" y="697" on="0"/>
        <pt x="398" y="668" on="0"/>
      </contour>
      <contour>
        <pt x="295" y="540" on="1"/>
        <pt x="339" y="540" on="0"/>
        <pt x="395" y="515" on="0"/>
        <pt x="428" y="483" on="0"/>
        <pt x="441" y="458" on="0"/>
        <pt x="441" y="458" on="1"/>
        <pt x="449" y="458" on="1"/>
        <pt x="464" y="530" on="1"/>
        <pt x="654" y="530" on="1"/>
        <pt x="544" y="0" on="1"/>
        <pt x="354" y="0" on="1"/>
        <pt x="366" y="58" on="1"/>
        <pt x="358" y="58" on="1"/>
        <pt x="358" y="58" on="0"/>
        <pt x="344" y="37" on="0"/>
        <pt x="312" y="11" on="0"/>
        <pt x="258" y="-10" on="0"/>
        <pt x="218" y="-10" on="1"/>
        <pt x="153" y="-10" on="0"/>
        <pt x="68" y="52" on="0"/>
        <pt x="27" y="154" on="0"/>
        <pt x="27" y="213" on="1"/>
        <pt x="27" y="270" on="0"/>
        <pt x="63" y="385" on="0"/>
        <pt x="132" y="482" on="0"/>
        <pt x="232" y="540" on="0"/>
      </contour>
      <contour>
        <pt x="341" y="389" on="1"/>
        <pt x="303" y="389" on="0"/>
        <pt x="248" y="342" on="0"/>
        <pt x="219" y="272" on="0"/>
        <pt x="219" y="237" on="1"/>
        <pt x="219" y="198" on="0"/>
        <pt x="258" y="141" on="0"/>
        <pt x="300" y="141" on="1"/>
        <pt x="338" y="141" on="0"/>
        <pt x="393" y="188" on="0"/>
        <pt x="422" y="258" on="0"/>
        <pt x="422" y="292" on="1"/>
        <pt x="422" y="331" on="0"/>
        <pt x="383" y="389" on="0"/>
      </contour>
    </TTGlyph>
    <TTGlyph name="aring.ss01" xMin="11" yMin="-10" xMax="579" yMax="859">
      <contour>
        <pt x="396" y="578" on="1"/>
        <pt x="357" y="578" on="0"/>
        <pt x="293" y="616" on="0"/>
        <pt x="255" y="680" on="0"/>
        <pt x="255" y="719" on="1"/>
        <pt x="255" y="758" on="0"/>
        <pt x="293" y="821" on="0"/>
        <pt x="357" y="859" on="0"/>
        <pt x="396" y="859" on="1"/>
        <pt x="435" y="859" on="0"/>
        <pt x="499" y="821" on="0"/>
        <pt x="537" y="758" on="0"/>
        <pt x="537" y="719" on="1"/>
        <pt x="537" y="680" on="0"/>
        <pt x="499" y="616" on="0"/>
        <pt x="435" y="578" on="0"/>
      </contour>
      <contour>
        <pt x="396" y="668" on="1"/>
        <pt x="417" y="668" on="0"/>
        <pt x="447" y="697" on="0"/>
        <pt x="447" y="719" on="1"/>
        <pt x="447" y="740" on="0"/>
        <pt x="417" y="769" on="0"/>
        <pt x="396" y="769" on="1"/>
        <pt x="375" y="769" on="0"/>
        <pt x="345" y="740" on="0"/>
        <pt x="345" y="719" on="1"/>
        <pt x="345" y="697" on="0"/>
        <pt x="375" y="668" on="0"/>
      </contour>
      <contour>
        <pt x="319" y="60" on="1"/>
        <pt x="300" y="32" on="0"/>
        <pt x="231" y="-10" on="0"/>
        <pt x="173" y="-10" on="1"/>
        <pt x="98" y="-10" on="0"/>
        <pt x="11" y="68" on="0"/>
        <pt x="11" y="135" on="1"/>
        <pt x="11" y="206" on="0"/>
        <pt x="115" y="305" on="0"/>
        <pt x="217" y="312" on="1"/>
        <pt x="381" y="324" on="1"/>
        <pt x="384" y="337" on="1"/>
        <pt x="391" y="369" on="0"/>
        <pt x="357" y="407" on="0"/>
        <pt x="320" y="407" on="1"/>
        <pt x="290" y="407" on="0"/>
        <pt x="260" y="384" on="0"/>
        <pt x="251" y="361" on="0"/>
        <pt x="251" y="361" on="1"/>
        <pt x="75" y="361" on="1"/>
        <pt x="75" y="361" on="0"/>
        <pt x="86" y="397" on="0"/>
        <pt x="117" y="450" on="0"/>
        <pt x="175" y="504" on="0"/>
        <pt x="268" y="540" on="0"/>
        <pt x="336" y="540" on="1"/>
        <pt x="427" y="540" on="0"/>
        <pt x="537" y="474" on="0"/>
        <pt x="579" y="372" on="0"/>
        <pt x="567" y="318" on="1"/>
        <pt x="499" y="0" on="1"/>
        <pt x="313" y="0" on="1"/>
        <pt x="326" y="60" on="1"/>
      </contour>
      <contour>
        <pt x="200" y="158" on="1"/>
        <pt x="200" y="136" on="0"/>
        <pt x="231" y="113" on="0"/>
        <pt x="255" y="113" on="1"/>
        <pt x="290" y="113" on="0"/>
        <pt x="347" y="158" on="0"/>
        <pt x="356" y="201" on="1"/>
        <pt x="359" y="217" on="1"/>
        <pt x="258" y="209" on="1"/>
        <pt x="228" y="207" on="0"/>
        <pt x="200" y="178" on="0"/>
      </contour>
    </TTGlyph>
    <TTGlyph name="asciicircum" xMin="152" yMin="551" xMax="569" yMax="740">
      <contour>
        <pt x="152" y="551" on="1"/>
        <pt x="327" y="740" on="1"/>
        <pt x="474" y="740" on="1"/>
        <pt x="569" y="551" on="1"/>
        <pt x="435" y="551" on="1"/>
        <pt x="390" y="653" on="1"/>
        <pt x="300" y="551" on="1"/>
      </contour>
    </TTGlyph>
    <TTGlyph name="asciitilde" xMin="75" yMin="312" xMax="473" yMax="477">
      <contour>
        <pt x="341" y="312" on="1"/>
        <pt x="314" y="312" on="0"/>
        <pt x="274" y="330" on="0"/>
        <pt x="244" y="353" on="0"/>
        <pt x="218" y="371" on="0"/>
        <pt x="205" y="371" on="1"/>
        <pt x="179" y="371" on="0"/>
        <pt x="168" y="318" on="1"/>
        <pt x="75" y="318" on="1"/>
        <pt x="84" y="358" on="0"/>
        <pt x="110" y="430" on="0"/>
        <pt x="162" y="477" on="0"/>
        <pt x="207" y="477" on="1"/>
        <pt x="244" y="477" on="0"/>
        <pt x="291" y="448" on="0"/>
        <pt x="326" y="418" on="0"/>
        <pt x="343" y="418" on="1"/>
        <pt x="357" y="418" on="0"/>
        <pt x="374" y="445" on="0"/>
        <pt x="380" y="471" on="1"/>
        <pt x="473" y="471" on="1"/>
        <pt x="465" y="432" on="0"/>
        <pt x="437" y="359" on="0"/>
        <pt x="386" y="312" on="0"/>
      </contour>
    </TTGlyph>
    <TTGlyph name="asterisk" xMin="97" yMin="317" xMax="541" yMax="740">
      <contour>
        <pt x="246" y="317" on="1"/>
        <pt x="142" y="393" on="1"/>
        <pt x="220" y="496" on="1"/>
        <pt x="97" y="532" on="1"/>
        <pt x="136" y="655" on="1"/>
        <pt x="258" y="611" on="1"/>
        <pt x="254" y="740" on="1"/>
        <pt x="383" y="740" on="1"/>
        <pt x="379" y="611" on="1"/>
        <pt x="501" y="655" on="1"/>
        <pt x="541" y="532" on="1"/>
        <pt x="417" y="496" on="1"/>
        <pt x="496" y="393" on="1"/>
        <pt x="391" y="317" on="1"/>
        <pt x="319" y="423" on="1"/>
      </contour>
    </TTGlyph>
    <TTGlyph name="at" xMin="40" yMin="-190" xMax="1031" yMax="760">
      <contour>
        <pt x="506" y="-190" on="1"/>
        <pt x="386" y="-190" on="0"/>
        <pt x="210" y="-119" on="0"/>
        <pt x="96" y="2" on="0"/>
        <pt x="40" y="155" on="0"/>
        <pt x="40" y="238" on="1"/>
        <pt x="40" y="314" on="0"/>
        <pt x="85" y="464" on="0"/>
        <pt x="172" y="597" on="0"/>
        <pt x="300" y="701" on="0"/>
        <pt x="467" y="760" on="0"/>
        <pt x="569" y="760" on="1"/>
        <pt x="692" y="760" on="0"/>
        <pt x="868" y="690" on="0"/>
        <pt x="979" y="573" on="0"/>
        <pt x="1031" y="431" on="0"/>
        <pt x="1031" y="359" on="1"/>
        <pt x="1031" y="299" on="0"/>
        <pt x="997" y="189" on="0"/>
        <pt x="933" y="102" on="0"/>
        <pt x="842" y="52" on="0"/>
        <pt x="785" y="52" on="1"/>
        <pt x="736" y="52" on="0"/>
        <pt x="673" y="77" on="0"/>
        <pt x="637" y="109" on="0"/>
        <pt x="623" y="134" on="0"/>
        <pt x="623" y="134" on="1"/>
        <pt x="613" y="134" on="1"/>
        <pt x="613" y="134" on="0"/>
        <pt x="596" y="109" on="0"/>
        <pt x="561" y="77" on="0"/>
        <pt x="505" y="52" on="0"/>
        <pt x="467" y="52" on="1"/>
        <pt x="408" y="52" on="0"/>
        <pt x="331" y="105" on="0"/>
        <pt x="295" y="190" on="0"/>
        <pt x="295" y="238" on="1"/>
        <pt x="295" y="283" on="0"/>
        <pt x="325" y="373" on="0"/>
        <pt x="381" y="447" on="0"/>
        <pt x="463" y="492" on="0"/>
        <pt x="515" y="492" on="1"/>
        <pt x="548" y="492" on="0"/>
        <pt x="593" y="472" on="0"/>
        <pt x="619" y="447" on="0"/>
        <pt x="631" y="427" on="0"/>
        <pt x="631" y="427" on="1"/>
        <pt x="637" y="427" on="1"/>
        <pt x="649" y="484" on="1"/>
        <pt x="800" y="484" on="1"/>
        <pt x="755" y="268" on="1"/>
        <pt x="751" y="247" on="0"/>
        <pt x="751" y="204" on="0"/>
        <pt x="771" y="175" on="0"/>
        <pt x="796" y="175" on="1"/>
        <pt x="820" y="175" on="0"/>
        <pt x="862" y="227" on="0"/>
        <pt x="889" y="312" on="0"/>
        <pt x="889" y="361" on="1"/>
        <pt x="889" y="408" on="0"/>
        <pt x="857" y="504" on="0"/>
        <pt x="784" y="583" on="0"/>
        <pt x="661" y="631" on="0"/>
        <pt x="569" y="631" on="1"/>
        <pt x="478" y="631" on="0"/>
        <pt x="336" y="562" on="0"/>
        <pt x="237" y="448" on="0"/>
        <pt x="186" y="310" on="0"/>
        <pt x="186" y="240" on="1"/>
        <pt x="186" y="182" on="0"/>
        <pt x="224" y="74" on="0"/>
        <pt x="302" y="-10" on="0"/>
        <pt x="423" y="-59" on="0"/>
        <pt x="506" y="-59" on="1"/>
        <pt x="555" y="-59" on="0"/>
        <pt x="642" y="-43" on="0"/>
        <pt x="710" y="-23" on="0"/>
        <pt x="749" y="-7" on="0"/>
        <pt x="749" y="-7" on="1"/>
        <pt x="796" y="-128" on="1"/>
        <pt x="796" y="-128" on="0"/>
        <pt x="754" y="-147" on="0"/>
        <pt x="677" y="-171" on="0"/>
        <pt x="571" y="-190" on="0"/>
      </contour>
      <contour>
        <pt x="506" y="175" on="1"/>
        <pt x="537" y="175" on="0"/>
        <pt x="582" y="212" on="0"/>
        <pt x="606" y="266" on="0"/>
        <pt x="606" y="293" on="1"/>
        <pt x="606" y="324" on="0"/>
        <pt x="573" y="369" on="0"/>
        <pt x="538" y="369" on="1"/>
        <pt x="507" y="369" on="0"/>
        <pt x="463" y="333" on="0"/>
        <pt x="439" y="279" on="0"/>
        <pt x="439" y="251" on="1"/>
        <pt x="439" y="221" on="0"/>
        <pt x="471" y="175" on="0"/>
      </contour>
    </TTGlyph>
    <TTGlyph name="atilde" xMin="27" yMin="-10" xMax="654" yMax="777">
      <contour>
        <pt x="485" y="612" on="1"/>
        <pt x="458" y="612" on="0"/>
        <pt x="418" y="630" on="0"/>
        <pt x="388" y="653" on="0"/>
        <pt x="362" y="671" on="0"/>
        <pt x="349" y="671" on="1"/>
        <pt x="323" y="671" on="0"/>
        <pt x="312" y="618" on="1"/>
        <pt x="219" y="618" on="1"/>
        <pt x="228" y="658" on="0"/>
        <pt x="254" y="730" on="0"/>
        <pt x="306" y="777" on="0"/>
        <pt x="351" y="777" on="1"/>
        <pt x="388" y="777" on="0"/>
        <pt x="435" y="748" on="0"/>
        <pt x="470" y="718" on="0"/>
        <pt x="487" y="718" on="1"/>
        <pt x="501" y="718" on="0"/>
        <pt x="518" y="745" on="0"/>
        <pt x="524" y="771" on="1"/>
        <pt x="617" y="771" on="1"/>
        <pt x="609" y="732" on="0"/>
        <pt x="581" y="659" on="0"/>
        <pt x="530" y="612" on="0"/>
      </contour>
      <contour>
        <pt x="295" y="540" on="1"/>
        <pt x="339" y="540" on="0"/>
        <pt x="395" y="515" on="0"/>
        <pt x="428" y="483" on="0"/>
        <pt x="441" y="458" on="0"/>
        <pt x="441" y="458" on="1"/>
        <pt x="449" y="458" on="1"/>
        <pt x="464" y="530" on="1"/>
        <pt x="654" y="530" on="1"/>
        <pt x="544" y="0" on="1"/>
        <pt x="354" y="0" on="1"/>
        <pt x="366" y="58" on="1"/>
        <pt x="358" y="58" on="1"/>
        <pt x="358" y="58" on="0"/>
        <pt x="344" y="37" on="0"/>
        <pt x="312" y="11" on="0"/>
        <pt x="258" y="-10" on="0"/>
        <pt x="218" y="-10" on="1"/>
        <pt x="153" y="-10" on="0"/>
        <pt x="68" y="52" on="0"/>
        <pt x="27" y="154" on="0"/>
        <pt x="27" y="213" on="1"/>
        <pt x="27" y="270" on="0"/>
        <pt x="63" y="385" on="0"/>
        <pt x="132" y="482" on="0"/>
        <pt x="232" y="540" on="0"/>
      </contour>
      <contour>
        <pt x="341" y="389" on="1"/>
        <pt x="303" y="389" on="0"/>
        <pt x="248" y="342" on="0"/>
        <pt x="219" y="272" on="0"/>
        <pt x="219" y="237" on="1"/>
        <pt x="219" y="198" on="0"/>
        <pt x="258" y="141" on="0"/>
        <pt x="300" y="141" on="1"/>
        <pt x="338" y="141" on="0"/>
        <pt x="393" y="188" on="0"/>
        <pt x="422" y="258" on="0"/>
        <pt x="422" y="292" on="1"/>
        <pt x="422" y="331" on="0"/>
        <pt x="383" y="389" on="0"/>
      </contour>
    </TTGlyph>
    <TTGlyph name="atilde.ss01" xMin="11" yMin="-10" xMax="594" yMax="777">
      <contour>
        <pt x="462" y="612" on="1"/>
        <pt x="435" y="612" on="0"/>
        <pt x="395" y="630" on="0"/>
        <pt x="365" y="653" on="0"/>
        <pt x="339" y="671" on="0"/>
        <pt x="326" y="671" on="1"/>
        <pt x="300" y="671" on="0"/>
        <pt x="289" y="618" on="1"/>
        <pt x="196" y="618" on="1"/>
        <pt x="205" y="658" on="0"/>
        <pt x="231" y="730" on="0"/>
        <pt x="283" y="777" on="0"/>
        <pt x="328" y="777" on="1"/>
        <pt x="365" y="777" on="0"/>
        <pt x="412" y="748" on="0"/>
        <pt x="447" y="718" on="0"/>
        <pt x="464" y="718" on="1"/>
        <pt x="478" y="718" on="0"/>
        <pt x="495" y="745" on="0"/>
        <pt x="501" y="771" on="1"/>
        <pt x="594" y="771" on="1"/>
        <pt x="586" y="732" on="0"/>
        <pt x="558" y="659" on="0"/>
        <pt x="507" y="612" on="0"/>
      </contour>
      <contour>
        <pt x="319" y="60" on="1"/>
        <pt x="300" y="32" on="0"/>
        <pt x="231" y="-10" on="0"/>
        <pt x="173" y="-10" on="1"/>
        <pt x="98" y="-10" on="0"/>
        <pt x="11" y="68" on="0"/>
        <pt x="11" y="135" on="1"/>
        <pt x="11" y="206" on="0"/>
        <pt x="115" y="305" on="0"/>
        <pt x="217" y="312" on="1"/>
        <pt x="381" y="324" on="1"/>
        <pt x="384" y="337" on="1"/>
        <pt x="391" y="369" on="0"/>
        <pt x="357" y="407" on="0"/>
        <pt x="320" y="407" on="1"/>
        <pt x="290" y="407" on="0"/>
        <pt x="260" y="384" on="0"/>
        <pt x="251" y="361" on="0"/>
        <pt x="251" y="361" on="1"/>
        <pt x="75" y="361" on="1"/>
        <pt x="75" y="361" on="0"/>
        <pt x="86" y="397" on="0"/>
        <pt x="117" y="450" on="0"/>
        <pt x="175" y="504" on="0"/>
        <pt x="268" y="540" on="0"/>
        <pt x="336" y="540" on="1"/>
        <pt x="427" y="540" on="0"/>
        <pt x="537" y="474" on="0"/>
        <pt x="579" y="372" on="0"/>
        <pt x="567" y="318" on="1"/>
        <pt x="499" y="0" on="1"/>
        <pt x="313" y="0" on="1"/>
        <pt x="326" y="60" on="1"/>
      </contour>
      <contour>
        <pt x="200" y="158" on="1"/>
        <pt x="200" y="136" on="0"/>
        <pt x="231" y="113" on="0"/>
        <pt x="255" y="113" on="1"/>
        <pt x="290" y="113" on="0"/>
        <pt x="347" y="158" on="0"/>
        <pt x="356" y="201" on="1"/>
        <pt x="359" y="217" on="1"/>
        <pt x="258" y="209" on="1"/>
        <pt x="228" y="207" on="0"/>
        <pt x="200" y="178" on="0"/>
      </contour>
    </TTGlyph>
    <TTGlyph name="b" xMin="5" yMin="-10" xMax="632" yMax="760">
      <contour>
        <pt x="364" y="-10" on="1"/>
        <pt x="321" y="-10" on="0"/>
        <pt x="264" y="15" on="0"/>
        <pt x="231" y="47" on="0"/>
        <pt x="218" y="72" on="0"/>
        <pt x="218" y="72" on="1"/>
        <pt x="210" y="72" on="1"/>
        <pt x="195" y="0" on="1"/>
        <pt x="5" y="0" on="1"/>
        <pt x="163" y="760" on="1"/>
        <pt x="353" y="760" on="1"/>
        <pt x="293" y="472" on="1"/>
        <pt x="301" y="472" on="1"/>
        <pt x="301" y="472" on="0"/>
        <pt x="315" y="493" on="0"/>
        <pt x="347" y="519" on="0"/>
        <pt x="401" y="540" on="0"/>
        <pt x="441" y="540" on="1"/>
        <pt x="507" y="540" on="0"/>
        <pt x="591" y="478" on="0"/>
        <pt x="632" y="376" on="0"/>
        <pt x="632" y="317" on="1"/>
        <pt x="632" y="260" on="0"/>
        <pt x="596" y="145" on="0"/>
        <pt x="527" y="48" on="0"/>
        <pt x="427" y="-10" on="0"/>
      </contour>
      <contour>
        <pt x="318" y="141" on="1"/>
        <pt x="356" y="141" on="0"/>
        <pt x="411" y="188" on="0"/>
        <pt x="440" y="259" on="0"/>
        <pt x="440" y="293" on="1"/>
        <pt x="440" y="332" on="0"/>
        <pt x="401" y="389" on="0"/>
        <pt x="359" y="389" on="1"/>
        <pt x="321" y="389" on="0"/>
        <pt x="266" y="342" on="0"/>
        <pt x="237" y="273" on="0"/>
        <pt x="237" y="238" on="1"/>
        <pt x="237" y="199" on="0"/>
        <pt x="276" y="141" on="0"/>
      </contour>
    </TTGlyph>
    <TTGlyph name="backslash" xMin="135" yMin="-201" xMax="418" yMax="833">
      <contour>
        <pt x="418" y="-201" on="1"/>
        <pt x="264" y="-201" on="1"/>
        <pt x="135" y="833" on="1"/>
        <pt x="289" y="833" on="1"/>
      </contour>
    </TTGlyph>
    <TTGlyph name="bar" xMin="13" yMin="-259" xMax="424" yMax="960">
      <contour>
        <pt x="13" y="-259" on="1"/>
        <pt x="272" y="960" on="1"/>
        <pt x="424" y="960" on="1"/>
        <pt x="165" y="-259" on="1"/>
      </contour>
    </TTGlyph>
    <TTGlyph name="braceleft" xMin="26" yMin="-221" xMax="604" yMax="863">
      <contour>
        <pt x="284" y="-221" on="1"/>
        <pt x="198" y="-221" on="0"/>
        <pt x="100" y="-160" on="0"/>
        <pt x="70" y="-52" on="0"/>
        <pt x="85" y="19" on="1"/>
        <pt x="119" y="181" on="1"/>
        <pt x="131" y="241" on="0"/>
        <pt x="72" y="241" on="1"/>
        <pt x="26" y="241" on="1"/>
        <pt x="60" y="401" on="1"/>
        <pt x="101" y="401" on="1"/>
        <pt x="134" y="401" on="0"/>
        <pt x="174" y="434" on="0"/>
        <pt x="181" y="471" on="1"/>
        <pt x="221" y="663" on="1"/>
        <pt x="241" y="762" on="0"/>
        <pt x="357" y="863" on="0"/>
        <pt x="467" y="863" on="1"/>
        <pt x="604" y="863" on="1"/>
        <pt x="570" y="702" on="1"/>
        <pt x="485" y="702" on="1"/>
        <pt x="425" y="702" on="0"/>
        <pt x="412" y="642" on="1"/>
        <pt x="374" y="461" on="1"/>
        <pt x="362" y="404" on="0"/>
        <pt x="314" y="341" on="0"/>
        <pt x="255" y="325" on="1"/>
        <pt x="253" y="317" on="1"/>
        <pt x="303" y="301" on="0"/>
        <pt x="325" y="229" on="0"/>
        <pt x="314" y="181" on="1"/>
        <pt x="276" y="0" on="1"/>
        <pt x="270" y="-29" on="0"/>
        <pt x="296" y="-60" on="0"/>
        <pt x="333" y="-60" on="1"/>
        <pt x="408" y="-60" on="1"/>
        <pt x="374" y="-221" on="1"/>
      </contour>
    </TTGlyph>
    <TTGlyph name="braceleft.case" xMin="26" yMin="-191" xMax="604" yMax="893">
      <contour>
        <pt x="284" y="-191" on="1"/>
        <pt x="198" y="-191" on="0"/>
        <pt x="100" y="-130" on="0"/>
        <pt x="70" y="-22" on="0"/>
        <pt x="85" y="49" on="1"/>
        <pt x="119" y="211" on="1"/>
        <pt x="131" y="271" on="0"/>
        <pt x="72" y="271" on="1"/>
        <pt x="26" y="271" on="1"/>
        <pt x="60" y="431" on="1"/>
        <pt x="101" y="431" on="1"/>
        <pt x="134" y="431" on="0"/>
        <pt x="174" y="464" on="0"/>
        <pt x="181" y="501" on="1"/>
        <pt x="221" y="693" on="1"/>
        <pt x="241" y="792" on="0"/>
        <pt x="357" y="893" on="0"/>
        <pt x="467" y="893" on="1"/>
        <pt x="604" y="893" on="1"/>
        <pt x="570" y="732" on="1"/>
        <pt x="485" y="732" on="1"/>
        <pt x="425" y="732" on="0"/>
        <pt x="412" y="672" on="1"/>
        <pt x="374" y="491" on="1"/>
        <pt x="362" y="434" on="0"/>
        <pt x="314" y="371" on="0"/>
        <pt x="255" y="355" on="1"/>
        <pt x="253" y="347" on="1"/>
        <pt x="303" y="331" on="0"/>
        <pt x="325" y="259" on="0"/>
        <pt x="314" y="211" on="1"/>
        <pt x="276" y="30" on="1"/>
        <pt x="270" y="1" on="0"/>
        <pt x="296" y="-30" on="0"/>
        <pt x="333" y="-30" on="1"/>
        <pt x="408" y="-30" on="1"/>
        <pt x="374" y="-191" on="1"/>
      </contour>
    </TTGlyph>
    <TTGlyph name="braceright" xMin="-62" yMin="-221" xMax="516" yMax="863">
      <contour>
        <pt x="258" y="863" on="1"/>
        <pt x="344" y="863" on="0"/>
        <pt x="442" y="802" on="0"/>
        <pt x="472" y="694" on="0"/>
        <pt x="457" y="623" on="1"/>
        <pt x="423" y="461" on="1"/>
        <pt x="411" y="401" on="0"/>
        <pt x="470" y="401" on="1"/>
        <pt x="516" y="401" on="1"/>
        <pt x="482" y="241" on="1"/>
        <pt x="441" y="241" on="1"/>
        <pt x="408" y="241" on="0"/>
        <pt x="369" y="208" on="0"/>
        <pt x="361" y="171" on="1"/>
        <pt x="321" y="-21" on="1"/>
        <pt x="301" y="-120" on="0"/>
        <pt x="185" y="-221" on="0"/>
        <pt x="75" y="-221" on="1"/>
        <pt x="-62" y="-221" on="1"/>
        <pt x="-28" y="-60" on="1"/>
        <pt x="57" y="-60" on="1"/>
        <pt x="117" y="-60" on="0"/>
        <pt x="130" y="0" on="1"/>
        <pt x="168" y="181" on="1"/>
        <pt x="180" y="238" on="0"/>
        <pt x="229" y="301" on="0"/>
        <pt x="287" y="317" on="1"/>
        <pt x="289" y="325" on="1"/>
        <pt x="239" y="342" on="0"/>
        <pt x="218" y="413" on="0"/>
        <pt x="228" y="461" on="1"/>
        <pt x="266" y="642" on="1"/>
        <pt x="272" y="671" on="0"/>
        <pt x="246" y="702" on="0"/>
        <pt x="209" y="702" on="1"/>
        <pt x="134" y="702" on="1"/>
        <pt x="168" y="863" on="1"/>
      </contour>
    </TTGlyph>
    <TTGlyph name="braceright.case" xMin="-62" yMin="-191" xMax="516" yMax="893">
      <contour>
        <pt x="258" y="893" on="1"/>
        <pt x="344" y="893" on="0"/>
        <pt x="442" y="832" on="0"/>
        <pt x="472" y="724" on="0"/>
        <pt x="457" y="653" on="1"/>
        <pt x="423" y="491" on="1"/>
        <pt x="411" y="431" on="0"/>
        <pt x="470" y="431" on="1"/>
        <pt x="516" y="431" on="1"/>
        <pt x="482" y="271" on="1"/>
        <pt x="441" y="271" on="1"/>
        <pt x="408" y="271" on="0"/>
        <pt x="369" y="238" on="0"/>
        <pt x="361" y="201" on="1"/>
        <pt x="321" y="9" on="1"/>
        <pt x="301" y="-90" on="0"/>
        <pt x="185" y="-191" on="0"/>
        <pt x="75" y="-191" on="1"/>
        <pt x="-62" y="-191" on="1"/>
        <pt x="-28" y="-30" on="1"/>
        <pt x="57" y="-30" on="1"/>
        <pt x="117" y="-30" on="0"/>
        <pt x="130" y="30" on="1"/>
        <pt x="168" y="211" on="1"/>
        <pt x="180" y="268" on="0"/>
        <pt x="229" y="331" on="0"/>
        <pt x="287" y="347" on="1"/>
        <pt x="289" y="355" on="1"/>
        <pt x="239" y="372" on="0"/>
        <pt x="218" y="443" on="0"/>
        <pt x="228" y="491" on="1"/>
        <pt x="266" y="672" on="1"/>
        <pt x="272" y="701" on="0"/>
        <pt x="246" y="732" on="0"/>
        <pt x="209" y="732" on="1"/>
        <pt x="134" y="732" on="1"/>
        <pt x="168" y="893" on="1"/>
      </contour>
    </TTGlyph>
    <TTGlyph name="bracketleft" xMin="-45" yMin="-221" xMax="559" yMax="863">
      <contour>
        <pt x="-45" y="-221" on="1"/>
        <pt x="185" y="863" on="1"/>
        <pt x="559" y="863" on="1"/>
        <pt x="525" y="702" on="1"/>
        <pt x="346" y="702" on="1"/>
        <pt x="184" y="-60" on="1"/>
        <pt x="363" y="-60" on="1"/>
        <pt x="329" y="-221" on="1"/>
      </contour>
    </TTGlyph>
    <TTGlyph name="bracketleft.case" xMin="16" yMin="-191" xMax="620" yMax="893">
      <contour>
        <pt x="16" y="-191" on="1"/>
        <pt x="246" y="893" on="1"/>
        <pt x="620" y="893" on="1"/>
        <pt x="586" y="732" on="1"/>
        <pt x="407" y="732" on="1"/>
        <pt x="245" y="-30" on="1"/>
        <pt x="424" y="-30" on="1"/>
        <pt x="390" y="-191" on="1"/>
      </contour>
    </TTGlyph>
</ttFont>
